<?xml version="1.0" encoding="UTF-8" standalone="no"?>
<!-- Created with Inkscape (http://www.inkscape.org/) -->

<svg
   width="2400"
   height="1080"
   viewBox="0 0 634.99998 285.75"
   version="1.1"
   id="svg1"
   xml:space="preserve"
   sodipodi:docname="nes-landscape.svg"
   inkscape:version="1.3.2 (091e20ef0f, 2023-11-25, custom)"
   inkscape:export-filename="psx-analog-landscape.png"
   inkscape:export-xdpi="96"
   inkscape:export-ydpi="96"
   xmlns:inkscape="http://www.inkscape.org/namespaces/inkscape"
   xmlns:sodipodi="http://sodipodi.sourceforge.net/DTD/sodipodi-0.dtd"
   xmlns="http://www.w3.org/2000/svg"
   xmlns:svg="http://www.w3.org/2000/svg"><sodipodi:namedview
     id="namedview1"
     pagecolor="#000000"
     bordercolor="#000000"
     borderopacity="0.25"
     inkscape:showpageshadow="2"
     inkscape:pageopacity="0.0"
     inkscape:pagecheckerboard="0"
     inkscape:deskcolor="#d1d1d1"
     inkscape:document-units="px"
     showguides="true"
     inkscape:zoom="0.18958334"
     inkscape:cx="1993.8461"
     inkscape:cy="1366.1538"
     inkscape:window-width="1920"
     inkscape:window-height="1017"
     inkscape:window-x="0"
     inkscape:window-y="0"
     inkscape:window-maximized="1"
     inkscape:current-layer="layer5"
     inkscape:export-bgcolor="#ffffff00"><sodipodi:guide
       position="78.581252,142.87501"
       orientation="1,0"
       id="guide1"
       inkscape:locked="false" /><sodipodi:guide
       position="78.581249,142.875"
       orientation="0,-1"
       id="guide2"
       inkscape:locked="false" /><sodipodi:guide
       position="556.41875,142.87501"
       orientation="1,0"
       id="guide9"
       inkscape:locked="false" /></sodipodi:namedview><defs
     id="defs1"><inkscape:path-effect
       effect="offset"
       id="path-effect246"
       is_visible="true"
       lpeversion="1.2"
       linejoin_type="round"
       unit="px"
       offset="-24"
       miter_limit="4"
       attempt_force_join="true"
       update_on_knot_move="true" /><inkscape:path-effect
       effect="offset"
       id="path-effect237"
       is_visible="true"
       lpeversion="1.2"
       linejoin_type="miter"
       unit="px"
       offset="48"
       miter_limit="4"
       attempt_force_join="false"
       update_on_knot_move="true" /><inkscape:path-effect
       effect="offset"
       id="path-effect235"
       is_visible="true"
       lpeversion="1.2"
       linejoin_type="miter"
       unit="px"
       offset="-6"
       miter_limit="4"
       attempt_force_join="false"
       update_on_knot_move="true" /></defs><g
     inkscape:label="layout"
     inkscape:groupmode="layer"
     id="layer1"
     style="display:inline;opacity:1"
     sodipodi:insensitive="true"><rect
       style="fill:#aa87de;fill-opacity:1;stroke-width:1.27;stroke-linecap:round;paint-order:markers fill stroke"
       id="rect3"
       width="635"
       height="285.75003"
       x="0"
       y="-3.501758e-05" /><rect
       style="fill:#8d5fd3;fill-opacity:1;stroke-width:1.27;stroke-linecap:round;paint-order:markers fill stroke"
       id="rect5"
       width="428.625"
       height="285.75"
       x="103.18749"
       y="-2.2499999e-06" /><path
       id="path7"
       style="fill:#c87137;fill-opacity:1;stroke-width:3.175;paint-order:markers fill stroke"
       d="M 556.41874,70.643745 A 72.231247,72.231247 0 0 0 484.18749,142.875 72.231247,72.231247 0 0 0 556.41874,215.10625 72.231247,72.231247 0 0 0 628.64998,142.875 72.231247,72.231247 0 0 0 556.41874,70.643745 Z m 0,1.587498 A 70.643745,70.643745 0 0 1 627.06248,142.875 70.643745,70.643745 0 0 1 556.41874,213.51875 70.643745,70.643745 0 0 1 485.77499,142.875 70.643745,70.643745 0 0 1 556.41874,72.231243 Z" /><circle
       style="fill:#c87137;fill-opacity:1;stroke-width:3.175;paint-order:markers fill stroke"
       id="path25"
       cx="556.41876"
       cy="142.87498"
       r="65.881248" /><path
       id="path39"
       style="fill:#5500d4;fill-opacity:1;stroke-width:3.175;paint-order:markers fill stroke"
       d="m 589.35937,199.92983 a 5.5562501,5.5562501 0 0 0 2.03372,-7.58997 5.5562501,5.5562501 0 0 0 -7.58997,-2.03374 5.5562501,5.5562501 0 0 0 -2.03373,7.58998 5.5562501,5.5562501 0 0 0 7.58998,2.03373 z m -0.79375,-1.37481 a 3.96875,3.96875 0 0 1 -5.42141,-1.45267 3.96875,3.96875 0 0 1 1.45266,-5.42141 3.96875,3.96875 0 0 1 5.42141,1.45268 3.96875,3.96875 0 0 1 -1.45266,5.4214 z"
       inkscape:transform-center-x="-30.1625"
       inkscape:transform-center-y="52.242978" /><path
       id="path41"
       style="fill:#5500d4;fill-opacity:1;stroke-width:3.175;paint-order:markers fill stroke"
       d="m 523.47811,85.820176 a 5.5562501,5.5562501 0 0 0 -2.03372,7.589971 5.5562501,5.5562501 0 0 0 7.58997,2.03373 5.5562501,5.5562501 0 0 0 2.03373,-7.589976 5.5562501,5.5562501 0 0 0 -7.58998,-2.033725 z m 0.79375,1.374813 a 3.96875,3.96875 0 0 1 5.42141,1.452662 3.96875,3.96875 0 0 1 -1.45266,5.421413 3.96875,3.96875 0 0 1 -5.42141,-1.452673 3.96875,3.96875 0 0 1 1.45266,-5.421402 z"
       inkscape:transform-center-x="30.162501"
       inkscape:transform-center-y="-52.242979" /><g
       id="g1"
       inkscape:transform-center-x="-53.18124"
       inkscape:transform-center-y="-92.112634"
       transform="rotate(60,556.41875,142.875)"><path
         id="path48"
         style="fill:#ccff00;fill-opacity:1;stroke-width:3.175;paint-order:markers fill stroke"
         d="m 492.52186,32.202371 a 21.43125,21.43125 0 0 0 -7.84438,29.275627 21.43125,21.43125 0 0 0 29.27563,7.844387 21.43125,21.43125 0 0 0 7.84438,-29.275632 21.43125,21.43125 0 0 0 -29.27563,-7.844382 z m 0.79375,1.374816 a 19.84375,19.84375 0 0 1 27.10706,7.263316 19.84375,19.84375 0 0 1 -7.26331,27.107067 19.84375,19.84375 0 0 1 -27.10706,-7.263322 19.84375,19.84375 0 0 1 7.26331,-27.107061 z" /><path
         id="path49"
         style="display:inline;fill:#ccff00;fill-opacity:1;stroke-width:3.175;paint-order:markers fill stroke"
         d="m 494.10936,34.952002 a 18.25625,18.25625 0 0 0 -6.68225,24.938496 18.25625,18.25625 0 0 0 24.9385,6.682256 18.25625,18.25625 0 0 0 6.68225,-24.938501 18.25625,18.25625 0 0 0 -24.9385,-6.682251 z m 0.79375,1.374815 a 16.668749,16.668749 0 0 1 22.76993,6.101186 16.668749,16.668749 0 0 1 -6.10118,22.769936 16.668749,16.668749 0 0 1 -22.76993,-6.101191 16.668749,16.668749 0 0 1 6.10118,-22.769931 z" /></g><path
       id="path64"
       style="fill:#c87137;fill-opacity:1;stroke-width:3.175;paint-order:markers fill stroke"
       d="M 78.58125,70.643745 A 72.231247,72.231247 0 0 0 6.35,142.875 72.231247,72.231247 0 0 0 78.58125,215.10625 72.231247,72.231247 0 0 0 150.81249,142.875 72.231247,72.231247 0 0 0 78.58125,70.643745 Z m 0,1.587498 A 70.643745,70.643745 0 0 1 149.22499,142.875 70.643745,70.643745 0 0 1 78.58125,213.51875 70.643745,70.643745 0 0 1 7.9375,142.875 70.643745,70.643745 0 0 1 78.58125,72.231243 Z" /><circle
       style="fill:#c87137;fill-opacity:1;stroke-width:3.175;paint-order:markers fill stroke"
       id="circle64"
       cx="78.581253"
       cy="142.87498"
       r="65.881248" /><path
       id="path65"
       style="fill:#5500d4;fill-opacity:1;stroke-width:3.175;paint-order:markers fill stroke"
       d="m 78.58124,76.993743 a 25.4,25.4 0 0 0 -25.39999,25.400007 25.4,25.4 0 0 0 25.39999,25.4 25.4,25.4 0 0 0 25.4,-25.4 25.4,25.4 0 0 0 -25.4,-25.400007 z m 0,1.58751 a 23.8125,23.8125 0 0 1 23.8125,23.812497 23.8125,23.8125 0 0 1 -23.8125,23.8125 23.8125,23.8125 0 0 1 -23.81249,-23.8125 23.8125,23.8125 0 0 1 23.81249,-23.812497 z" /><path
       id="path66"
       style="fill:#5500d4;fill-opacity:1;stroke-width:3.175;paint-order:markers fill stroke"
       d="m 78.58124,157.95625 a 25.4,25.4 0 0 0 -25.39999,25.4 25.4,25.4 0 0 0 25.39999,25.4 25.4,25.4 0 0 0 25.4,-25.4 25.4,25.4 0 0 0 -25.4,-25.4 z m 0,1.5875 a 23.8125,23.8125 0 0 1 23.8125,23.8125 23.8125,23.8125 0 0 1 -23.8125,23.8125 23.8125,23.8125 0 0 1 -23.81249,-23.8125 23.8125,23.8125 0 0 1 23.81249,-23.8125 z" /><path
       id="path71"
       style="fill:#5500d4;fill-opacity:1;stroke-width:3.175;paint-order:markers fill stroke"
       d="m 119.0625,117.475 a 25.4,25.4 0 0 0 -25.39999,25.4 25.4,25.4 0 0 0 25.39999,25.4 25.4,25.4 0 0 0 25.4,-25.4 25.4,25.4 0 0 0 -25.4,-25.4 z m 0,1.5875 A 23.8125,23.8125 0 0 1 142.875,142.875 23.8125,23.8125 0 0 1 119.0625,166.6875 23.8125,23.8125 0 0 1 95.25001,142.875 23.8125,23.8125 0 0 1 119.0625,119.0625 Z" /><path
       id="path72"
       style="fill:#5500d4;fill-opacity:1;stroke-width:3.175;paint-order:markers fill stroke"
       d="m 38.09999,117.475 a 25.4,25.4 0 0 0 -25.39999,25.4 25.4,25.4 0 0 0 25.39999,25.4 25.4,25.4 0 0 0 25.4,-25.4 25.4,25.4 0 0 0 -25.4,-25.4 z m 0,1.5875 A 23.8125,23.8125 0 0 1 61.91249,142.875 23.8125,23.8125 0 0 1 38.09999,166.6875 23.8125,23.8125 0 0 1 14.2875,142.875 23.8125,23.8125 0 0 1 38.09999,119.0625 Z" /><path
       id="path73"
       style="fill:#5500d4;fill-opacity:1;stroke-width:3.175;paint-order:markers fill stroke"
       d="m 31.99617,96.289933 a 5.5562501,5.5562501 0 0 0 0,7.857717 5.5562501,5.5562501 0 0 0 7.85772,0 5.5562501,5.5562501 0 0 0 0,-7.857717 5.5562501,5.5562501 0 0 0 -7.85772,0 z m 1.12253,1.12253 a 3.96875,3.96875 0 0 1 5.61266,0 3.96875,3.96875 0 0 1 0,5.612657 3.96875,3.96875 0 0 1 -5.61266,-1e-5 3.96875,3.96875 0 0 1 0,-5.612647 z"
       inkscape:transform-center-x="42.656221"
       inkscape:transform-center-y="-42.656211" /><path
       id="path74"
       style="fill:#5500d4;fill-opacity:1;stroke-width:3.175;paint-order:markers fill stroke"
       d="m 31.99618,189.46008 a 5.5562501,5.5562501 0 0 0 7.85772,0 5.5562501,5.5562501 0 0 0 0,-7.85772 5.5562501,5.5562501 0 0 0 -7.85772,0 5.5562501,5.5562501 0 0 0 0,7.85772 z m 1.12253,-1.12253 a 3.96875,3.96875 0 0 1 0,-5.61266 3.96875,3.96875 0 0 1 5.61266,0 3.96875,3.96875 0 0 1 -10e-6,5.61266 3.96875,3.96875 0 0 1 -5.61265,0 z"
       inkscape:transform-center-x="42.656211"
       inkscape:transform-center-y="42.65622" /><path
       id="path75"
       style="fill:#5500d4;fill-opacity:1;stroke-width:3.175;paint-order:markers fill stroke"
       d="m 125.16633,189.46007 a 5.5562501,5.5562501 0 0 0 0,-7.85772 5.5562501,5.5562501 0 0 0 -7.85772,0 5.5562501,5.5562501 0 0 0 0,7.85772 5.5562501,5.5562501 0 0 0 7.85772,0 z m -1.12253,-1.12253 a 3.96875,3.96875 0 0 1 -5.61266,0 3.96875,3.96875 0 0 1 0,-5.61266 3.96875,3.96875 0 0 1 5.61266,10e-6 3.96875,3.96875 0 0 1 0,5.61265 z"
       inkscape:transform-center-x="-42.65622"
       inkscape:transform-center-y="42.65621" /><path
       id="path76"
       style="fill:#5500d4;fill-opacity:1;stroke-width:3.175;paint-order:markers fill stroke"
       d="m 125.16632,96.289923 a 5.5562501,5.5562501 0 0 0 -7.85772,0 5.5562501,5.5562501 0 0 0 0,7.857717 5.5562501,5.5562501 0 0 0 7.85772,0 5.5562501,5.5562501 0 0 0 0,-7.857717 z m -1.12253,1.12253 a 3.96875,3.96875 0 0 1 0,5.612657 3.96875,3.96875 0 0 1 -5.61266,0 3.96875,3.96875 0 0 1 1e-5,-5.612657 3.96875,3.96875 0 0 1 5.61265,0 z"
       inkscape:transform-center-x="-42.65621"
       inkscape:transform-center-y="-42.656221" /><g
       id="g2"
       inkscape:transform-center-x="53.181257"
       inkscape:transform-center-y="-92.112621"
       transform="rotate(-60,78.581252,142.875)"><path
         id="path79"
         style="fill:#ccff00;fill-opacity:1;stroke-width:3.175;paint-order:markers fill stroke"
         d="m 142.47812,32.202361 a 21.43125,21.43125 0 0 0 -29.27563,7.844387 21.43125,21.43125 0 0 0 7.84438,29.275627 21.43125,21.43125 0 0 0 29.27563,-7.844382 21.43125,21.43125 0 0 0 -7.84438,-29.275632 z m -0.79375,1.374816 a 19.84375,19.84375 0 0 1 7.26331,27.107066 19.84375,19.84375 0 0 1 -27.10706,7.263317 19.84375,19.84375 0 0 1 -7.26331,-27.107062 19.84375,19.84375 0 0 1 27.10706,-7.263321 z" /><path
         id="path80"
         style="display:inline;fill:#ccff00;fill-opacity:1;stroke-width:3.175;paint-order:markers fill stroke"
         d="m 140.89062,34.951992 a 18.25625,18.25625 0 0 0 -24.9385,6.682256 18.25625,18.25625 0 0 0 6.68225,24.938496 18.25625,18.25625 0 0 0 24.9385,-6.682251 18.25625,18.25625 0 0 0 -6.68225,-24.938501 z m -0.79375,1.374815 a 16.668749,16.668749 0 0 1 6.10118,22.769936 16.668749,16.668749 0 0 1 -22.76993,6.101186 16.668749,16.668749 0 0 1 -6.10118,-22.769931 16.668749,16.668749 0 0 1 22.76993,-6.101191 z" /></g><g
       id="g113"
       style="fill:#ffff00;fill-opacity:1"
       transform="translate(-271.47438,123.88236)"><path
         id="path112"
         style="fill:#ffff00;fill-opacity:1;stroke-width:3.175;paint-order:markers fill stroke"
         d="m 293.69938,123.76764 a 15.875,15.875 0 0 0 -15.875,15.875 15.875,15.875 0 0 0 15.875,15.875 15.875,15.875 0 0 0 15.875,-15.875 15.875,15.875 0 0 0 -15.875,-15.875 z m 0,1.5875 a 14.287499,14.287499 0 0 1 14.2875,14.2875 14.287499,14.287499 0 0 1 -14.2875,14.2875 14.287499,14.287499 0 0 1 -14.2875,-14.2875 14.287499,14.287499 0 0 1 14.2875,-14.2875 z" /><path
         id="circle112"
         style="display:inline;fill:#ffff00;fill-opacity:1;stroke-width:3.175;paint-order:markers fill stroke"
         d="m 293.69938,126.94264 a 12.7,12.7 0 0 0 -12.7,12.7 12.7,12.7 0 0 0 12.7,12.7 12.7,12.7 0 0 0 12.7,-12.7 12.7,12.7 0 0 0 -12.7,-12.7 z m 0,1.5875 a 11.1125,11.1125 0 0 1 11.1125,11.1125 11.1125,11.1125 0 0 1 -11.1125,11.1125 11.1125,11.1125 0 0 1 -11.1125,-11.1125 11.1125,11.1125 0 0 1 11.1125,-11.1125 z" /></g><g
       id="g114"
       style="fill:#ffff00;fill-opacity:1"
       transform="translate(319.07561,123.88236)"><path
         id="path113"
         style="fill:#ffff00;fill-opacity:1;stroke-width:3.175;paint-order:markers fill stroke"
         d="m 293.69938,123.76764 a 15.875,15.875 0 0 0 -15.875,15.875 15.875,15.875 0 0 0 15.875,15.875 15.875,15.875 0 0 0 15.875,-15.875 15.875,15.875 0 0 0 -15.875,-15.875 z m 0,1.5875 a 14.287499,14.287499 0 0 1 14.2875,14.2875 14.287499,14.287499 0 0 1 -14.2875,14.2875 14.287499,14.287499 0 0 1 -14.2875,-14.2875 14.287499,14.287499 0 0 1 14.2875,-14.2875 z" /><path
         id="path114"
         style="display:inline;fill:#ffff00;fill-opacity:1;stroke-width:3.175;paint-order:markers fill stroke"
         d="m 293.69938,126.94264 a 12.7,12.7 0 0 0 -12.7,12.7 12.7,12.7 0 0 0 12.7,12.7 12.7,12.7 0 0 0 12.7,-12.7 12.7,12.7 0 0 0 -12.7,-12.7 z m 0,1.5875 a 11.1125,11.1125 0 0 1 11.1125,11.1125 11.1125,11.1125 0 0 1 -11.1125,11.1125 11.1125,11.1125 0 0 1 -11.1125,-11.1125 11.1125,11.1125 0 0 1 11.1125,-11.1125 z" /></g><g
       id="g116"
       style="fill:#ffff00;fill-opacity:1"
       transform="translate(-74.624383,-117.41764)"><path
         id="path115"
         style="fill:#ffff00;fill-opacity:1;stroke-width:3.175;paint-order:markers fill stroke"
         d="m 293.69938,123.76764 a 15.875,15.875 0 0 0 -15.875,15.875 15.875,15.875 0 0 0 15.875,15.875 15.875,15.875 0 0 0 15.875,-15.875 15.875,15.875 0 0 0 -15.875,-15.875 z m 0,1.5875 a 14.287499,14.287499 0 0 1 14.2875,14.2875 14.287499,14.287499 0 0 1 -14.2875,14.2875 14.287499,14.287499 0 0 1 -14.2875,-14.2875 14.287499,14.287499 0 0 1 14.2875,-14.2875 z" /><path
         id="path116"
         style="display:inline;fill:#ffff00;fill-opacity:1;stroke-width:3.175;paint-order:markers fill stroke"
         d="m 293.69938,126.94264 a 12.7,12.7 0 0 0 -12.7,12.7 12.7,12.7 0 0 0 12.7,12.7 12.7,12.7 0 0 0 12.7,-12.7 12.7,12.7 0 0 0 -12.7,-12.7 z m 0,1.5875 a 11.1125,11.1125 0 0 1 11.1125,11.1125 11.1125,11.1125 0 0 1 -11.1125,11.1125 11.1125,11.1125 0 0 1 -11.1125,-11.1125 11.1125,11.1125 0 0 1 11.1125,-11.1125 z" /></g><g
       id="g118"
       style="fill:#ffff00;fill-opacity:1"
       transform="translate(122.22561,-117.41764)"><path
         id="path117"
         style="fill:#ffff00;fill-opacity:1;stroke-width:3.175;paint-order:markers fill stroke"
         d="m 293.69938,123.76764 a 15.875,15.875 0 0 0 -15.875,15.875 15.875,15.875 0 0 0 15.875,15.875 15.875,15.875 0 0 0 15.875,-15.875 15.875,15.875 0 0 0 -15.875,-15.875 z m 0,1.5875 a 14.287499,14.287499 0 0 1 14.2875,14.2875 14.287499,14.287499 0 0 1 -14.2875,14.2875 14.287499,14.287499 0 0 1 -14.2875,-14.2875 14.287499,14.287499 0 0 1 14.2875,-14.2875 z" /><path
         id="path118"
         style="display:inline;fill:#ffff00;fill-opacity:1;stroke-width:3.175;paint-order:markers fill stroke"
         d="m 293.69938,126.94264 a 12.7,12.7 0 0 0 -12.7,12.7 12.7,12.7 0 0 0 12.7,12.7 12.7,12.7 0 0 0 12.7,-12.7 12.7,12.7 0 0 0 -12.7,-12.7 z m 0,1.5875 a 11.1125,11.1125 0 0 1 11.1125,11.1125 11.1125,11.1125 0 0 1 -11.1125,11.1125 11.1125,11.1125 0 0 1 -11.1125,-11.1125 11.1125,11.1125 0 0 1 11.1125,-11.1125 z" /></g><path
       id="circle6"
       style="fill:#5500d4;fill-opacity:1;stroke:none;stroke-width:0.264583;paint-order:markers fill stroke"
       d="M 572.81298,99.039394 A 29.765625,29.765625 0 0 0 561.918,139.7 a 29.765625,29.765625 0 0 0 40.6606,10.89497 29.765625,29.765625 0 0 0 10.89498,-40.66059 29.765625,29.765625 0 0 0 -40.6606,-10.894986 z m 0.79375,1.374816 a 28.178125,28.178125 0 0 1 38.49203,10.31392 28.178125,28.178125 0 0 1 -10.31391,38.49202 28.178125,28.178125 0 0 1 -38.49203,-10.3139 28.178125,28.178125 0 0 1 10.31391,-38.49204 z"
       inkscape:transform-center-x="-31.277042"
       inkscape:transform-center-y="-18.057808" /><path
       id="path8"
       style="fill:#5500d4;fill-opacity:1;stroke:none;stroke-width:0.264583;paint-order:markers fill stroke"
       d="m 510.2589,135.15501 a 29.765625,29.765625 0 0 0 -10.89498,40.66061 29.765625,29.765625 0 0 0 40.6606,10.89496 29.765625,29.765625 0 0 0 10.89498,-40.66059 29.765625,29.765625 0 0 0 -40.6606,-10.89498 z m 0.79375,1.37481 a 28.178125,28.178125 0 0 1 38.49203,10.31392 28.178125,28.178125 0 0 1 -10.31391,38.49203 28.178125,28.178125 0 0 1 -38.49203,-10.3139 28.178125,28.178125 0 0 1 10.31391,-38.49205 z"
       inkscape:transform-center-x="31.27704"
       inkscape:transform-center-y="18.057807" /></g><g
     inkscape:groupmode="layer"
     id="layer2"
     inkscape:label="backlit"
     inkscape:highlight-color="#8736a9"
     style="display:none;opacity:1"
     sodipodi:insensitive="true"><circle
       style="fill:#71c837;fill-opacity:0.998008;stroke-width:0.264583;paint-order:markers fill stroke"
       id="path2"
       cx="22.225"
       cy="263.52499"
       r="12.7" /><circle
       style="fill:#71c837;fill-opacity:0.998008;stroke-width:0.264583;paint-order:markers fill stroke"
       id="circle2"
       cx="219.075"
       cy="22.225"
       r="12.7" /><circle
       style="fill:#71c837;fill-opacity:0.998008;stroke-width:0.264583;paint-order:markers fill stroke"
       id="circle3"
       cx="415.92499"
       cy="22.225"
       r="12.7" /><circle
       style="fill:#71c837;fill-opacity:0.998008;stroke-width:0.264583;paint-order:markers fill stroke"
       id="circle4"
       cx="612.77496"
       cy="263.52499"
       r="12.7" /><circle
       style="fill:#71c837;fill-opacity:1;stroke-width:3.175;paint-order:markers fill stroke"
       id="circle88"
       cx="25.399996"
       cy="50.762375"
       r="18.256248" /><circle
       style="fill:#71c837;fill-opacity:1;stroke-width:3.175;paint-order:markers fill stroke"
       id="circle89"
       cx="609.59998"
       cy="50.762363"
       r="18.256248" /><circle
       style="fill:#71c837;fill-opacity:1;stroke-width:3.17499;paint-order:markers fill stroke"
       id="circle92"
       cx="35.92503"
       cy="100.21879"
       r="5.5562501" /><circle
       style="fill:#71c837;fill-opacity:1;stroke-width:3.17499;paint-order:markers fill stroke"
       id="circle93"
       cx="121.23746"
       cy="100.21877"
       r="5.5562501" /><circle
       style="fill:#71c837;fill-opacity:1;stroke-width:3.17499;paint-order:markers fill stroke"
       id="circle94"
       cx="121.23747"
       cy="185.5312"
       r="5.5562501" /><circle
       style="fill:#71c837;fill-opacity:1;stroke-width:3.17499;paint-order:markers fill stroke"
       id="circle95"
       cx="35.925045"
       cy="185.53122"
       r="5.5562501" /><circle
       style="fill:#71c837;fill-opacity:1;stroke-width:3.17499;paint-order:markers fill stroke"
       id="circle96"
       cx="78.581245"
       cy="102.39373"
       r="25.4" /><circle
       style="fill:#71c837;fill-opacity:1;stroke-width:3.17499;paint-order:markers fill stroke"
       id="circle97"
       cx="78.581245"
       cy="183.35625"
       r="25.4" /><circle
       style="fill:#71c837;fill-opacity:1;stroke-width:3.17499;paint-order:markers fill stroke"
       id="circle98"
       cx="38.099995"
       cy="142.875"
       r="25.4" /><circle
       style="fill:#71c837;fill-opacity:1;stroke-width:3.17499;paint-order:markers fill stroke"
       id="circle99"
       cx="119.06251"
       cy="142.875"
       r="25.4" /><circle
       style="fill:#71c837;fill-opacity:1;stroke-width:3.17499;paint-order:markers fill stroke"
       id="circle100"
       cx="526.25623"
       cy="90.632027"
       r="5.5562501" /><circle
       style="fill:#71c837;fill-opacity:1;stroke-width:3.17499;paint-order:markers fill stroke"
       id="circle102"
       cx="586.58124"
       cy="195.11798"
       r="5.5562501" /><circle
       style="fill:#71c837;fill-opacity:1;stroke-width:3.17498;paint-order:markers fill stroke"
       id="circle104"
       cx="587.6958"
       cy="124.81718"
       r="29.765625" /><circle
       style="fill:#71c837;fill-opacity:1;stroke-width:3.17498;paint-order:markers fill stroke"
       id="circle106"
       cx="525.14172"
       cy="160.9328"
       r="29.765625" /></g><g
     inkscape:groupmode="layer"
     id="layer5"
     inkscape:label="buttons"
     style="display:none;opacity:1"
     sodipodi:insensitive="true"><title
       id="title1">stop</title><title
       id="title1-7">fast-forward</title><title
       id="title1-8">play</title><title
       id="title1-1">open-in-app</title><title
       id="title1-9">content-save</title><title
       id="title1-5">menu</title><title
       id="title1-6">triangle-outline</title><title
       id="title1-2">square</title><title
       id="title1-07">square-outline</title><title
       id="title1-4">circle-outline</title><title
       id="title1-20">close</title><title
       id="title1-64">window-close</title><title
       id="title1-0">content-save-outline</title><title
       id="title1-15">triangle</title><g
       id="g125"><path
         d="m 607.21874,259.82084 h 11.1125 v 1.23474 h -11.1125 v -1.23474 m 0,3.0868 h 11.1125 v 1.23472 h -11.1125 v -1.23472 m 0,3.08679 h 11.1125 v 1.23473 h -11.1125 z"
         id="path37"
         style="fill:#ffffff;stroke:none;stroke-width:0.264582" /><path
         id="path113-3"
         style="fill:#ffffff;fill-opacity:0.3;stroke:none;stroke-width:3.175;paint-order:markers fill stroke"
         d="m 612.77499,247.65 a 15.875,15.875 0 0 0 -15.875,15.875 15.875,15.875 0 0 0 15.875,15.875 15.875,15.875 0 0 0 15.875,-15.875 15.875,15.875 0 0 0 -15.875,-15.875 z m 0,1.5875 a 14.287499,14.287499 0 0 1 14.2875,14.2875 14.287499,14.287499 0 0 1 -14.2875,14.2875 14.287499,14.287499 0 0 1 -14.2875,-14.2875 14.287499,14.287499 0 0 1 14.2875,-14.2875 z" /><path
         id="path114-9"
         style="display:inline;fill:#ffffff;fill-opacity:1;stroke:none;stroke-width:3.175;paint-order:markers fill stroke"
         d="m 612.77499,250.825 a 12.7,12.7 0 0 0 -12.7,12.7 12.7,12.7 0 0 0 12.7,12.7 12.7,12.7 0 0 0 12.7,-12.7 12.7,12.7 0 0 0 -12.7,-12.7 z m 0,1.5875 a 11.1125,11.1125 0 0 1 11.1125,11.1125 11.1125,11.1125 0 0 1 -11.1125,11.1125 11.1125,11.1125 0 0 1 -11.1125,-11.1125 11.1125,11.1125 0 0 1 11.1125,-11.1125 z" /></g><g
       id="g123"
       transform="translate(0,-241.3)"><path
         d="m 219.07499,262.29028 -2.46944,2.46945 h 1.8521 v 3.70416 h 1.23473 v -3.70416 h 1.85207 m 1.85209,-6.17362 h -8.64308 c -0.68528,0 -1.23471,0.55561 -1.23471,1.23469 v 7.40837 a 1.2347251,1.2347251 0 0 0 1.23471,1.23472 h 2.46946 v -1.23472 h -2.46946 v -6.17362 h 8.64308 v 6.17362 h -2.46947 v 1.23472 h 2.46947 a 1.2347251,1.2347251 0 0 0 1.23471,-1.23472 v -7.40837 a 1.2347251,1.2347251 0 0 0 -1.23471,-1.23469 z"
         id="path35"
         style="fill:#ffffff;stroke:none;stroke-width:0.264583" /><path
         id="path115-8"
         style="fill:#ffffff;fill-opacity:0.3;stroke:none;stroke-width:3.175;paint-order:markers fill stroke"
         d="M 219.075,247.65 A 15.875,15.875 0 0 0 203.2,263.525 15.875,15.875 0 0 0 219.075,279.4 15.875,15.875 0 0 0 234.95,263.525 15.875,15.875 0 0 0 219.075,247.65 Z m 0,1.5875 a 14.287499,14.287499 0 0 1 14.2875,14.2875 14.287499,14.287499 0 0 1 -14.2875,14.2875 14.287499,14.287499 0 0 1 -14.2875,-14.2875 14.287499,14.287499 0 0 1 14.2875,-14.2875 z" /><path
         id="path116-1"
         style="display:inline;fill:#ffffff;fill-opacity:1;stroke:none;stroke-width:3.175;paint-order:markers fill stroke"
         d="m 219.075,250.825 a 12.7,12.7 0 0 0 -12.7,12.7 12.7,12.7 0 0 0 12.7,12.7 12.7,12.7 0 0 0 12.7,-12.7 12.7,12.7 0 0 0 -12.7,-12.7 z m 0,1.5875 a 11.1125,11.1125 0 0 1 11.1125,11.1125 11.1125,11.1125 0 0 1 -11.1125,11.1125 11.1125,11.1125 0 0 1 -11.1125,-11.1125 11.1125,11.1125 0 0 1 11.1125,-11.1125 z" /></g><g
       id="g124"
       transform="translate(0,-241.3)"><path
         d="m 417.77708,261.67293 h -6.1736 v -2.46945 h 6.1736 m -1.85209,8.64304 a 1.8520824,1.8520824 0 0 1 -1.85207,-1.85208 1.8520824,1.8520824 0 0 1 1.85207,-1.85209 1.8520824,1.8520824 0 0 1 1.85209,1.85209 1.8520824,1.8520824 0 0 1 -1.85209,1.85208 m 3.08682,-9.87777 h -7.40833 c -0.68529,0 -1.23474,0.55565 -1.23474,1.23473 v 8.64304 a 1.2347215,1.2347215 0 0 0 1.23474,1.23472 h 8.64302 a 1.2347215,1.2347215 0 0 0 1.23474,-1.23472 v -7.40835 z"
         id="path36"
         style="fill:#ffffff;stroke:none;stroke-width:0.264583" /><path
         id="path117-9"
         style="fill:#ffffff;fill-opacity:0.3;stroke:none;stroke-width:3.175;paint-order:markers fill stroke"
         d="m 415.92499,247.65 a 15.875,15.875 0 0 0 -15.875,15.875 15.875,15.875 0 0 0 15.875,15.875 15.875,15.875 0 0 0 15.875,-15.875 15.875,15.875 0 0 0 -15.875,-15.875 z m 0,1.5875 a 14.287499,14.287499 0 0 1 14.2875,14.2875 14.287499,14.287499 0 0 1 -14.2875,14.2875 14.287499,14.287499 0 0 1 -14.2875,-14.2875 14.287499,14.287499 0 0 1 14.2875,-14.2875 z" /><path
         id="path118-3"
         style="display:inline;fill:#ffffff;fill-opacity:1;stroke:none;stroke-width:3.175;paint-order:markers fill stroke"
         d="m 415.92499,250.825 a 12.7,12.7 0 0 0 -12.7,12.7 12.7,12.7 0 0 0 12.7,12.7 12.7,12.7 0 0 0 12.7,-12.7 12.7,12.7 0 0 0 -12.7,-12.7 z m 0,1.5875 a 11.1125,11.1125 0 0 1 11.1125,11.1125 11.1125,11.1125 0 0 1 -11.1125,11.1125 11.1125,11.1125 0 0 1 -11.1125,-11.1125 11.1125,11.1125 0 0 1 11.1125,-11.1125 z" /></g><g
       id="g122"><path
         id="path112-6"
         style="fill:#ffffff;fill-opacity:0.3;stroke:none;stroke-width:3.175;paint-order:markers fill stroke"
         d="M 22.225,247.65 A 15.875,15.875 0 0 0 6.35,263.525 15.875,15.875 0 0 0 22.225,279.4 15.875,15.875 0 0 0 38.1,263.525 15.875,15.875 0 0 0 22.225,247.65 Z m 0,1.5875 A 14.287499,14.287499 0 0 1 36.5125,263.525 14.287499,14.287499 0 0 1 22.225,277.8125 14.287499,14.287499 0 0 1 7.9375,263.525 14.287499,14.287499 0 0 1 22.225,249.2375 Z" /><path
         id="circle112-5"
         style="display:inline;fill:#ffffff;fill-opacity:1;stroke:none;stroke-width:3.175;paint-order:markers fill stroke"
         d="m 22.225,250.825 a 12.7,12.7 0 0 0 -12.7,12.7 12.7,12.7 0 0 0 12.7,12.7 12.7,12.7 0 0 0 12.7,-12.7 12.7,12.7 0 0 0 -12.7,-12.7 z m 0,1.5875 A 11.1125,11.1125 0 0 1 33.3375,263.525 11.1125,11.1125 0 0 1 22.225,274.6375 11.1125,11.1125 0 0 1 11.1125,263.525 11.1125,11.1125 0 0 1 22.225,252.4125 Z" /><path
         d="m 23.283335,259.715 v 7.62001 l 5.397499,-3.81 m -11.112499,3.81 5.397501,-3.81 -5.397501,-3.81 z"
         id="path38"
         style="fill:#ffffff;stroke:none;stroke-width:0.264583" /></g><g
       id="g138"
       transform="translate(-106.3625)"><path
         d="m 138.1125,57.112374 h -12.7 v -12.70001 h 12.7 z"
         id="path1"
         style="fill:#ffffff;stroke-width:0.264583" /><path
         id="path79-6"
         style="display:inline;fill:#ffffff;fill-opacity:0.3;stroke-width:3.175;paint-order:markers fill stroke"
         d="m 142.47812,32.202361 a 21.43125,21.43125 0 0 0 -29.27563,7.844387 21.43125,21.43125 0 0 0 7.84438,29.275627 21.43125,21.43125 0 0 0 29.27563,-7.844382 21.43125,21.43125 0 0 0 -7.84438,-29.275632 z m -0.79375,1.374816 a 19.84375,19.84375 0 0 1 7.26331,27.107066 19.84375,19.84375 0 0 1 -27.10706,7.263317 19.84375,19.84375 0 0 1 -7.26331,-27.107062 19.84375,19.84375 0 0 1 27.10706,-7.263321 z" /><path
         id="path80-0"
         style="display:inline;fill:#ffffff;fill-opacity:1;stroke-width:3.175;paint-order:markers fill stroke"
         d="m 140.89062,34.951992 a 18.25625,18.25625 0 0 0 -24.9385,6.682256 18.25625,18.25625 0 0 0 6.68225,24.938496 18.25625,18.25625 0 0 0 24.9385,-6.682251 18.25625,18.25625 0 0 0 -6.68225,-24.938501 z m -0.79375,1.374815 a 16.668749,16.668749 0 0 1 6.10118,22.769936 16.668749,16.668749 0 0 1 -22.76993,6.101186 16.668749,16.668749 0 0 1 -6.10118,-22.769931 16.668749,16.668749 0 0 1 22.76993,-6.101191 z" /></g><g
       id="g136"
       transform="translate(106.36247)"><path
         id="path48-3"
         style="display:inline;fill:#ffffff;fill-opacity:0.3;stroke-width:3.175;paint-order:markers fill stroke"
         d="m 492.52186,32.202371 a 21.43125,21.43125 0 0 0 -7.84438,29.275627 21.43125,21.43125 0 0 0 29.27563,7.844387 21.43125,21.43125 0 0 0 7.84438,-29.275632 21.43125,21.43125 0 0 0 -29.27563,-7.844382 z m 0.79375,1.374816 a 19.84375,19.84375 0 0 1 27.10706,7.263316 19.84375,19.84375 0 0 1 -7.26331,27.107067 19.84375,19.84375 0 0 1 -27.10706,-7.263322 19.84375,19.84375 0 0 1 7.26331,-27.107061 z" /><path
         id="path49-3"
         style="display:inline;fill:#ffffff;fill-opacity:1;stroke-width:3.175;paint-order:markers fill stroke"
         d="m 494.10936,34.952002 a 18.25625,18.25625 0 0 0 -6.68225,24.938496 18.25625,18.25625 0 0 0 24.9385,6.682256 18.25625,18.25625 0 0 0 6.68225,-24.938501 18.25625,18.25625 0 0 0 -24.9385,-6.682251 z m 0.79375,1.374815 a 16.668749,16.668749 0 0 1 22.76993,6.101186 16.668749,16.668749 0 0 1 -6.10118,22.769936 16.668749,16.668749 0 0 1 -22.76993,-6.101191 16.668749,16.668749 0 0 1 6.10118,-22.769931 z" /><path
         d="m 499.35698,43.354092 v 14.81657 l 11.64158,-7.4083 z"
         id="path1-9"
         style="fill:#ffffff;stroke-width:0.264583" /></g><path
       id="path7-7"
       style="display:inline;fill:#ffffff;fill-opacity:0.3;stroke-width:3.175;paint-order:markers fill stroke"
       d="M 556.41874,70.643745 A 72.231247,72.231247 0 0 0 484.18749,142.875 72.231247,72.231247 0 0 0 556.41874,215.10625 72.231247,72.231247 0 0 0 628.64998,142.875 72.231247,72.231247 0 0 0 556.41874,70.643745 Z m 0,1.587498 A 70.643745,70.643745 0 0 1 627.06248,142.875 70.643745,70.643745 0 0 1 556.41874,213.51875 70.643745,70.643745 0 0 1 485.77499,142.875 70.643745,70.643745 0 0 1 556.41874,72.231243 Z" /><path
       id="path34-0"
       style="display:inline;fill:#ffffff;fill-opacity:0.3;stroke-width:3.175;paint-order:markers fill stroke"
       d="m 523.47811,85.820175 a 5.5562501,5.5562501 0 0 0 -2.03373,7.589972 5.5562501,5.5562501 0 0 0 7.58998,2.033727 5.5562501,5.5562501 0 0 0 2.03373,-7.589972 5.5562501,5.5562501 0 0 0 -7.58998,-2.033727 z m 0.79375,1.374813 a 3.96875,3.96875 0 0 1 5.42141,1.452663 3.96875,3.96875 0 0 1 -1.45266,5.42141 3.96875,3.96875 0 0 1 -5.42141,-1.452673 3.96875,3.96875 0 0 1 1.45266,-5.4214 z"
       inkscape:transform-center-x="30.162506"
       inkscape:transform-center-y="-52.242978" /><path
       id="path40-2"
       style="display:inline;fill:#ffffff;fill-opacity:0.3;stroke-width:3.175;paint-order:markers fill stroke"
       d="m 590.5101,199.04684 a 5.5562501,5.5562501 0 0 0 0,-7.85772 5.5562501,5.5562501 0 0 0 -7.85772,0 5.5562501,5.5562501 0 0 0 0,7.85772 5.5562501,5.5562501 0 0 0 7.85772,0 z m -1.12253,-1.12253 a 3.96875,3.96875 0 0 1 -5.61266,0 3.96875,3.96875 0 0 1 0,-5.61266 3.96875,3.96875 0 0 1 5.61266,1e-5 3.96875,3.96875 0 0 1 0,5.61265 z"
       inkscape:transform-center-x="-30.16249"
       inkscape:transform-center-y="52.242985" /><path
       id="path138"
       style="display:inline;fill:#ffffff;fill-opacity:0.3;stroke-width:3.175;paint-order:markers fill stroke"
       d="M 78.58125,70.643745 A 72.231247,72.231247 0 0 0 6.3499999,142.875 72.231247,72.231247 0 0 0 78.58125,215.10625 72.231247,72.231247 0 0 0 150.81249,142.875 72.231247,72.231247 0 0 0 78.58125,70.643745 Z m 0,1.587498 A 70.643745,70.643745 0 0 1 149.22499,142.875 70.643745,70.643745 0 0 1 78.58125,213.51875 70.643745,70.643745 0 0 1 7.9374999,142.875 70.643745,70.643745 0 0 1 78.58125,72.231243 Z" /><path
       id="path145"
       style="display:inline;fill:#ffffff;fill-opacity:0.3;stroke-width:3.175;paint-order:markers fill stroke"
       d="m 31.99617,96.289933 a 5.5562501,5.5562501 0 0 0 0,7.857717 5.5562501,5.5562501 0 0 0 7.85772,0 5.5562501,5.5562501 0 0 0 0,-7.857717 5.5562501,5.5562501 0 0 0 -7.85772,0 z m 1.12253,1.12253 a 3.96875,3.96875 0 0 1 5.61266,0 3.96875,3.96875 0 0 1 0,5.612657 3.96875,3.96875 0 0 1 -5.61266,-1e-5 3.96875,3.96875 0 0 1 0,-5.612647 z"
       inkscape:transform-center-x="42.656221"
       inkscape:transform-center-y="-42.656211" /><path
       id="path146"
       style="display:inline;fill:#ffffff;fill-opacity:0.3;stroke-width:3.175;paint-order:markers fill stroke"
       d="m 31.99618,189.46008 a 5.5562501,5.5562501 0 0 0 7.85772,0 5.5562501,5.5562501 0 0 0 0,-7.85772 5.5562501,5.5562501 0 0 0 -7.85772,0 5.5562501,5.5562501 0 0 0 0,7.85772 z m 1.12253,-1.12253 a 3.96875,3.96875 0 0 1 0,-5.61266 3.96875,3.96875 0 0 1 5.61266,0 3.96875,3.96875 0 0 1 -10e-6,5.61266 3.96875,3.96875 0 0 1 -5.61265,0 z"
       inkscape:transform-center-x="42.656211"
       inkscape:transform-center-y="42.65622" /><path
       id="path147"
       style="display:inline;fill:#ffffff;fill-opacity:0.3;stroke-width:3.175;paint-order:markers fill stroke"
       d="m 125.16633,189.46007 a 5.5562501,5.5562501 0 0 0 0,-7.85772 5.5562501,5.5562501 0 0 0 -7.85772,0 5.5562501,5.5562501 0 0 0 0,7.85772 5.5562501,5.5562501 0 0 0 7.85772,0 z m -1.12253,-1.12253 a 3.96875,3.96875 0 0 1 -5.61266,0 3.96875,3.96875 0 0 1 0,-5.61266 3.96875,3.96875 0 0 1 5.61266,10e-6 3.96875,3.96875 0 0 1 0,5.61265 z"
       inkscape:transform-center-x="-42.65622"
       inkscape:transform-center-y="42.65621" /><path
       id="path148"
       style="display:inline;fill:#ffffff;fill-opacity:0.3;stroke-width:3.175;paint-order:markers fill stroke"
       d="m 125.16632,96.289923 a 5.5562501,5.5562501 0 0 0 -7.85772,0 5.5562501,5.5562501 0 0 0 0,7.857717 5.5562501,5.5562501 0 0 0 7.85772,0 5.5562501,5.5562501 0 0 0 0,-7.857717 z m -1.12253,1.12253 a 3.96875,3.96875 0 0 1 0,5.612657 3.96875,3.96875 0 0 1 -5.61266,0 3.96875,3.96875 0 0 1 1e-5,-5.612657 3.96875,3.96875 0 0 1 5.61265,0 z"
       inkscape:transform-center-x="-42.65621"
       inkscape:transform-center-y="-42.656221" /><g
       id="g150"
       inkscape:transform-center-x="5.6717514e-06"
       inkscape:transform-center-y="-40.481256"><path
         d="m 68.923945,107.89268 h 19.31459 l -9.65728,-16.668752"
         id="path1-54"
         style="fill:#ffffff;stroke-width:0.264583" /><path
         id="path149"
         style="display:inline;fill:#ffffff;fill-opacity:1;stroke-width:3.175;paint-order:markers fill stroke"
         d="m 78.58124,76.993743 a 25.4,25.4 0 0 0 -25.39999,25.400007 25.4,25.4 0 0 0 25.39999,25.4 25.4,25.4 0 0 0 25.4,-25.4 25.4,25.4 0 0 0 -25.4,-25.400007 z m 0,1.58751 a 23.8125,23.8125 0 0 1 23.8125,23.812497 23.8125,23.8125 0 0 1 -23.8125,23.8125 23.8125,23.8125 0 0 1 -23.81249,-23.8125 23.8125,23.8125 0 0 1 23.81249,-23.812497 z" /></g><g
       id="g151"
       inkscape:transform-center-x="-40.481254"
       inkscape:transform-center-y="-7.8625e-06"
       transform="rotate(90,78.581251,142.875)"><path
         d="m 68.923945,107.89268 h 19.31459 l -9.65728,-16.668752"
         id="path150"
         style="fill:#ffffff;stroke-width:0.264583" /><path
         id="path151"
         style="display:inline;fill:#ffffff;fill-opacity:1;stroke-width:3.175;paint-order:markers fill stroke"
         d="m 78.58124,76.993743 a 25.4,25.4 0 0 0 -25.39999,25.400007 25.4,25.4 0 0 0 25.39999,25.4 25.4,25.4 0 0 0 25.4,-25.4 25.4,25.4 0 0 0 -25.4,-25.400007 z m 0,1.58751 a 23.8125,23.8125 0 0 1 23.8125,23.812497 23.8125,23.8125 0 0 1 -23.8125,23.8125 23.8125,23.8125 0 0 1 -23.81249,-23.8125 23.8125,23.8125 0 0 1 23.81249,-23.812497 z" /></g><g
       id="g153"
       inkscape:transform-center-x="-7.8625001e-06"
       inkscape:transform-center-y="40.481252"
       transform="rotate(180,78.581252,142.875)"><path
         d="m 68.923945,107.89268 h 19.31459 l -9.65728,-16.668752"
         id="path152"
         style="fill:#ffffff;stroke-width:0.264583" /><path
         id="path153"
         style="display:inline;fill:#ffffff;fill-opacity:1;stroke-width:3.175;paint-order:markers fill stroke"
         d="m 78.58124,76.993743 a 25.4,25.4 0 0 0 -25.39999,25.400007 25.4,25.4 0 0 0 25.39999,25.4 25.4,25.4 0 0 0 25.4,-25.4 25.4,25.4 0 0 0 -25.4,-25.400007 z m 0,1.58751 a 23.8125,23.8125 0 0 1 23.8125,23.812497 23.8125,23.8125 0 0 1 -23.8125,23.8125 23.8125,23.8125 0 0 1 -23.81249,-23.8125 23.8125,23.8125 0 0 1 23.81249,-23.812497 z" /></g><g
       id="g155"
       inkscape:transform-center-x="40.481251"
       inkscape:transform-center-y="6.8625001e-06"
       transform="rotate(-90,78.581254,142.875)"><path
         d="m 68.923945,107.89268 h 19.31459 l -9.65728,-16.668752"
         id="path154"
         style="fill:#ffffff;stroke-width:0.264583" /><path
         id="path155"
         style="display:inline;fill:#ffffff;fill-opacity:1;stroke-width:3.175;paint-order:markers fill stroke"
         d="m 78.58124,76.993743 a 25.4,25.4 0 0 0 -25.39999,25.400007 25.4,25.4 0 0 0 25.39999,25.4 25.4,25.4 0 0 0 25.4,-25.4 25.4,25.4 0 0 0 -25.4,-25.400007 z m 0,1.58751 a 23.8125,23.8125 0 0 1 23.8125,23.812497 23.8125,23.8125 0 0 1 -23.8125,23.8125 23.8125,23.8125 0 0 1 -23.81249,-23.8125 23.8125,23.8125 0 0 1 23.81249,-23.812497 z" /></g><g
       id="g12"><path
         id="circle6-6"
         style="display:inline;fill:#ffffff;fill-opacity:1;stroke:none;stroke-width:0.264583;paint-order:markers fill stroke"
         d="M 572.81298,99.039394 A 29.765625,29.765625 0 0 0 561.918,139.7 a 29.765625,29.765625 0 0 0 40.6606,10.89497 29.765625,29.765625 0 0 0 10.89498,-40.66059 29.765625,29.765625 0 0 0 -40.6606,-10.894986 z m 0.79375,1.374816 a 28.178125,28.178125 0 0 1 38.49203,10.31392 28.178125,28.178125 0 0 1 -10.31391,38.49202 28.178125,28.178125 0 0 1 -38.49203,-10.3139 28.178125,28.178125 0 0 1 10.31391,-38.49204 z"
         inkscape:transform-center-x="-31.277042"
         inkscape:transform-center-y="-18.057808" /><text
         xml:space="preserve"
         style="font-style:normal;font-variant:normal;font-weight:bold;font-stretch:normal;font-size:25.4px;line-height:20px;font-family:Roboto;-inkscape-font-specification:'Roboto, Bold';font-variant-ligatures:none;font-variant-caps:normal;font-variant-numeric:normal;font-variant-east-asian:normal;text-align:center;letter-spacing:0px;word-spacing:0px;text-anchor:middle;fill:#ffffff;fill-opacity:1;stroke:none;stroke-width:0.264583;paint-order:markers fill stroke"
         x="587.68958"
         y="133.84608"
         id="text8"><tspan
           sodipodi:role="line"
           id="tspan8"
           style="font-style:normal;font-variant:normal;font-weight:bold;font-stretch:normal;font-size:25.4px;font-family:Roboto;-inkscape-font-specification:'Roboto, Bold';font-variant-ligatures:none;font-variant-caps:normal;font-variant-numeric:normal;font-variant-east-asian:normal;stroke-width:0.264583"
           x="587.68958"
           y="133.84608">A</tspan></text></g><g
       id="g13"><path
         id="path8-9"
         style="display:inline;fill:#ffffff;fill-opacity:1;stroke:none;stroke-width:0.264583;paint-order:markers fill stroke"
         d="m 510.2589,135.15501 a 29.765625,29.765625 0 0 0 -10.89498,40.66061 29.765625,29.765625 0 0 0 40.6606,10.89496 29.765625,29.765625 0 0 0 10.89498,-40.66059 29.765625,29.765625 0 0 0 -40.6606,-10.89498 z m 0.79375,1.37481 a 28.178125,28.178125 0 0 1 38.49203,10.31392 28.178125,28.178125 0 0 1 -10.31391,38.49203 28.178125,28.178125 0 0 1 -38.49203,-10.3139 28.178125,28.178125 0 0 1 10.31391,-38.49205 z"
         inkscape:transform-center-x="31.27704"
         inkscape:transform-center-y="18.057807" /><text
         xml:space="preserve"
         style="font-style:normal;font-variant:normal;font-weight:bold;font-stretch:normal;font-size:25.4px;line-height:20px;font-family:Roboto;-inkscape-font-specification:'Roboto, Bold';font-variant-ligatures:none;font-variant-caps:normal;font-variant-numeric:normal;font-variant-east-asian:normal;text-align:center;letter-spacing:0px;word-spacing:0px;text-anchor:middle;fill:#ffffff;fill-opacity:1;stroke:none;stroke-width:0.264583;paint-order:markers fill stroke"
         x="524.92468"
         y="169.9617"
         id="text9"><tspan
           sodipodi:role="line"
           id="tspan9"
           style="font-style:normal;font-variant:normal;font-weight:bold;font-stretch:normal;font-size:25.4px;font-family:Roboto;-inkscape-font-specification:'Roboto, Bold';font-variant-ligatures:none;font-variant-caps:normal;font-variant-numeric:normal;font-variant-east-asian:normal;stroke-width:0.264583"
           x="524.92468"
           y="169.9617">B</tspan></text></g></g></svg>
