<?xml version="1.0" encoding="UTF-8" standalone="no"?>
<!-- Created with Inkscape (http://www.inkscape.org/) -->

<svg
   width="1080"
   height="2400"
   viewBox="0 0 285.74999 635"
   version="1.1"
   id="svg1"
   xml:space="preserve"
   sodipodi:docname="nes-portrait.svg"
   inkscape:version="1.3.2 (091e20ef0f, 2023-11-25, custom)"
   inkscape:export-filename="psx-analog-portrait.png"
   inkscape:export-xdpi="96"
   inkscape:export-ydpi="96"
   xmlns:inkscape="http://www.inkscape.org/namespaces/inkscape"
   xmlns:sodipodi="http://sodipodi.sourceforge.net/DTD/sodipodi-0.dtd"
   xmlns="http://www.w3.org/2000/svg"
   xmlns:svg="http://www.w3.org/2000/svg"><sodipodi:namedview
     id="namedview1"
     pagecolor="#000000"
     bordercolor="#000000"
     borderopacity="0.25"
     inkscape:showpageshadow="2"
     inkscape:pageopacity="0.0"
     inkscape:pagecheckerboard="0"
     inkscape:deskcolor="#d1d1d1"
     inkscape:document-units="px"
     showguides="true"
     inkscape:zoom="0.47965408"
     inkscape:cx="432.60343"
     inkscape:cy="1350.9736"
     inkscape:window-width="959"
     inkscape:window-height="1017"
     inkscape:window-x="0"
     inkscape:window-y="0"
     inkscape:window-maximized="0"
     inkscape:current-layer="layer5"
     inkscape:export-bgcolor="#ffffff00"><sodipodi:guide
       position="71.437499,177.8"
       orientation="0,-1"
       id="guide3"
       inkscape:locked="false" /><sodipodi:guide
       position="71.437522,177.80001"
       orientation="1,0"
       id="guide4"
       inkscape:locked="false" /><sodipodi:guide
       position="214.31252,177.8"
       orientation="1,0"
       id="guide9"
       inkscape:locked="false" /></sodipodi:namedview><defs
     id="defs1"><inkscape:path-effect
       effect="offset"
       id="path-effect74"
       is_visible="true"
       lpeversion="1.2"
       linejoin_type="miter"
       unit="px"
       offset="-18"
       miter_limit="0"
       attempt_force_join="true"
       update_on_knot_move="true" /><inkscape:path-effect
       effect="offset"
       id="path-effect73"
       is_visible="true"
       lpeversion="1.2"
       linejoin_type="bevel"
       unit="px"
       offset="-12"
       miter_limit="0"
       attempt_force_join="false"
       update_on_knot_move="true" /><inkscape:path-effect
       effect="offset"
       id="path-effect246"
       is_visible="true"
       lpeversion="1.2"
       linejoin_type="round"
       unit="px"
       offset="-24"
       miter_limit="4"
       attempt_force_join="true"
       update_on_knot_move="true" /><inkscape:path-effect
       effect="offset"
       id="path-effect237"
       is_visible="true"
       lpeversion="1.2"
       linejoin_type="miter"
       unit="px"
       offset="48"
       miter_limit="4"
       attempt_force_join="false"
       update_on_knot_move="true" /><inkscape:path-effect
       effect="offset"
       id="path-effect235"
       is_visible="true"
       lpeversion="1.2"
       linejoin_type="miter"
       unit="px"
       offset="-6"
       miter_limit="4"
       attempt_force_join="false"
       update_on_knot_move="true" /></defs><g
     inkscape:label="layout"
     inkscape:groupmode="layer"
     id="layer1"
     style="display:inline;opacity:1"
     sodipodi:insensitive="true"><rect
       style="fill:#c6afe9;fill-opacity:0.985355;stroke-width:1.27;stroke-linecap:round;paint-order:markers fill stroke"
       id="rect1"
       width="285.75"
       height="34.924999"
       x="1.8858692e-21"
       y="600.07501" /><rect
       style="fill:#c6afe9;fill-opacity:1;stroke-width:1.27;stroke-linecap:round;paint-order:markers fill stroke"
       id="rect2"
       width="285.75"
       height="28.574999"
       x="-4.9999999e-06"
       y="-1.1111111e-05" /><rect
       style="fill:#aa87de;fill-opacity:1;stroke-width:1.27;stroke-linecap:round;paint-order:markers fill stroke"
       id="rect3"
       width="285.75"
       height="285.75003"
       x="0"
       y="28.574986" /><rect
       style="fill:#aa87de;fill-opacity:1;stroke-width:1.27;stroke-linecap:round;paint-order:markers fill stroke"
       id="rect4"
       width="285.75"
       height="285.75003"
       x="0"
       y="314.32498" /><rect
       style="fill:#8d5fd3;fill-opacity:1;stroke-width:1.27;stroke-linecap:round;paint-order:markers fill stroke"
       id="rect5"
       width="285.75"
       height="190.5"
       x="0"
       y="76.199997" /><path
       id="path282"
       style="display:inline;fill:#c87137;fill-opacity:1;stroke:none;stroke-width:1.27;stroke-linecap:round;paint-order:markers fill stroke"
       d="m 71.4375,392.11249 a 65.087502,65.087502 0 0 0 -65.0875,65.0875 65.087502,65.087502 0 0 0 65.0875,65.0875 65.087502,65.087502 0 0 0 65.0875,-65.0875 65.087502,65.087502 0 0 0 -65.0875,-65.0875 z m 0,1.5875 a 63.5,63.5 0 0 1 63.5,63.5 63.5,63.5 0 0 1 -63.5,63.5 63.5,63.5 0 0 1 -63.5,-63.5 63.5,63.5 0 0 1 63.5,-63.5 z" /><circle
       style="fill:#c87137;fill-opacity:1;stroke:none;stroke-width:1.27;stroke-linecap:round;paint-order:markers fill stroke"
       id="circle282"
       cx="71.437523"
       cy="457.19998"
       r="58.737499" /><path
       id="path283"
       style="fill:#5500d4;fill-opacity:1;stroke:none;stroke-width:1.27;stroke-linecap:round;paint-order:markers fill stroke"
       d="m 71.4375,398.46249 a 22.225,22.225 0 0 0 -22.225,22.225 22.225,22.225 0 0 0 22.225,22.225 22.225,22.225 0 0 0 22.225,-22.225 22.225,22.225 0 0 0 -22.225,-22.225 z m 0,1.5875 a 20.637499,20.637499 0 0 1 20.6375,20.6375 20.637499,20.637499 0 0 1 -20.6375,20.6375 20.637499,20.637499 0 0 1 -20.6375,-20.6375 20.637499,20.637499 0 0 1 20.6375,-20.6375 z" /><path
       id="path284"
       style="fill:#5500d4;fill-opacity:1;stroke:none;stroke-width:1.27;stroke-linecap:round;paint-order:markers fill stroke"
       d="m 71.43752,471.48748 a 22.225,22.225 0 0 0 -22.225,22.225 22.225,22.225 0 0 0 22.225,22.225 22.225,22.225 0 0 0 22.225,-22.225 22.225,22.225 0 0 0 -22.225,-22.225 z m 0,1.5875 a 20.637499,20.637499 0 0 1 20.6375,20.6375 20.637499,20.637499 0 0 1 -20.6375,20.6375 20.637499,20.637499 0 0 1 -20.6375,-20.6375 20.637499,20.637499 0 0 1 20.6375,-20.6375 z" /><path
       id="path285"
       style="fill:#5500d4;fill-opacity:1;stroke:none;stroke-width:1.27;stroke-linecap:round;paint-order:markers fill stroke"
       d="m 107.95002,434.97498 a 22.225,22.225 0 0 0 -22.225,22.225 22.225,22.225 0 0 0 22.225,22.225 22.225,22.225 0 0 0 22.225,-22.225 22.225,22.225 0 0 0 -22.225,-22.225 z m 0,1.5875 a 20.637499,20.637499 0 0 1 20.6375,20.6375 20.637499,20.637499 0 0 1 -20.6375,20.6375 20.637499,20.637499 0 0 1 -20.6375,-20.6375 20.637499,20.637499 0 0 1 20.6375,-20.6375 z" /><path
       id="path286"
       style="fill:#5500d4;fill-opacity:1;stroke:none;stroke-width:1.27;stroke-linecap:round;paint-order:markers fill stroke"
       d="m 34.92502,434.97498 a 22.225,22.225 0 0 0 -22.225,22.225 22.225,22.225 0 0 0 22.225,22.225 22.225,22.225 0 0 0 22.225,-22.225 22.225,22.225 0 0 0 -22.225,-22.225 z m 0,1.5875 a 20.637499,20.637499 0 0 1 20.6375,20.6375 20.637499,20.637499 0 0 1 -20.6375,20.6375 20.637499,20.637499 0 0 1 -20.6375,-20.6375 20.637499,20.637499 0 0 1 20.6375,-20.6375 z" /><path
       id="path287"
       style="display:inline;fill:#5500d4;fill-opacity:1;stroke:none;stroke-width:0;stroke-linecap:round;stroke-dasharray:none;stroke-opacity:1;paint-order:stroke fill markers"
       d="m 109.6036,423.7964 a 4.7624993,4.7624993 0 0 0 4.76251,-4.7625 4.7624993,4.7624993 0 0 0 -4.76251,-4.76251 4.7624993,4.7624993 0 0 0 -4.7625,4.76251 4.7624993,4.7624993 0 0 0 4.7625,4.7625 z m 0,-1.58751 a 3.1749997,3.1749997 0 0 1 -3.17499,-3.17499 3.1749997,3.1749997 0 0 1 3.17499,-3.175 3.1749997,3.1749997 0 0 1 3.175,3.175 3.1749997,3.1749997 0 0 1 -3.175,3.17499 z"
       inkscape:transform-center-y="-38.166086"
       inkscape:transform-center-x="-38.166086" /><path
       id="path288"
       style="display:inline;fill:#5500d4;fill-opacity:1;stroke:none;stroke-width:0;stroke-linecap:round;stroke-dasharray:none;stroke-opacity:1;paint-order:stroke fill markers"
       d="m 104.8411,495.36606 a 4.7624993,4.7624993 0 0 0 4.7625,4.76251 4.7624993,4.7624993 0 0 0 4.76251,-4.76251 4.7624993,4.7624993 0 0 0 -4.76251,-4.7625 4.7624993,4.7624993 0 0 0 -4.7625,4.7625 z m 1.58751,0 a 3.1749997,3.1749997 0 0 1 3.17499,-3.17499 3.1749997,3.1749997 0 0 1 3.175,3.17499 3.1749997,3.1749997 0 0 1 -3.175,3.175 3.1749997,3.1749997 0 0 1 -3.17499,-3.175 z"
       inkscape:transform-center-x="-38.166086"
       inkscape:transform-center-y="38.166086" /><path
       id="path289"
       style="display:inline;fill:#5500d4;fill-opacity:1;stroke:none;stroke-width:0;stroke-linecap:round;stroke-dasharray:none;stroke-opacity:1;paint-order:stroke fill markers"
       d="m 33.27144,490.60356 a 4.7624993,4.7624993 0 0 0 -4.76251,4.7625 4.7624993,4.7624993 0 0 0 4.76251,4.76251 4.7624993,4.7624993 0 0 0 4.7625,-4.76251 4.7624993,4.7624993 0 0 0 -4.7625,-4.7625 z m 0,1.58751 a 3.1749997,3.1749997 0 0 1 3.17499,3.17499 3.1749997,3.1749997 0 0 1 -3.17499,3.175 3.1749997,3.1749997 0 0 1 -3.175,-3.175 3.1749997,3.1749997 0 0 1 3.175,-3.17499 z"
       inkscape:transform-center-y="38.166086"
       inkscape:transform-center-x="38.166086" /><path
       id="path290"
       style="display:inline;fill:#5500d4;fill-opacity:1;stroke:none;stroke-width:0;stroke-linecap:round;stroke-dasharray:none;stroke-opacity:1;paint-order:stroke fill markers"
       d="m 38.03394,419.0339 a 4.7624993,4.7624993 0 0 0 -4.7625,-4.76251 4.7624993,4.7624993 0 0 0 -4.76251,4.76251 4.7624993,4.7624993 0 0 0 4.76251,4.7625 4.7624993,4.7624993 0 0 0 4.7625,-4.7625 z m -1.58751,0 a 3.1749997,3.1749997 0 0 1 -3.17499,3.17499 3.1749997,3.1749997 0 0 1 -3.175,-3.17499 3.1749997,3.1749997 0 0 1 3.175,-3.175 3.1749997,3.1749997 0 0 1 3.17499,3.175 z"
       inkscape:transform-center-x="38.166086"
       inkscape:transform-center-y="-38.166086" /><circle
       style="display:inline;fill:#c87137;fill-opacity:1;stroke:none;stroke-width:1.27;stroke-linecap:round;paint-order:markers fill stroke"
       id="circle282-5"
       cx="214.3125"
       cy="457.19998"
       r="58.737499" /><path
       id="path288-3"
       style="display:inline;fill:#5500d4;fill-opacity:1;stroke:none;stroke-width:0;stroke-linecap:round;stroke-dasharray:none;stroke-opacity:1;paint-order:stroke fill markers"
       d="m 236.69976,502.71107 a 4.7624993,4.7624993 0 0 0 3.3676,5.83286 4.7624993,4.7624993 0 0 0 5.83286,-3.3676 4.7624993,4.7624993 0 0 0 -3.36761,-5.83285 4.7624993,4.7624993 0 0 0 -5.83285,3.36759 z m 1.53342,0.41088 a 3.1749997,3.1749997 0 0 1 3.88855,-2.24505 3.1749997,3.1749997 0 0 1 2.24507,3.88855 3.1749997,3.1749997 0 0 1 -3.88857,2.24507 3.1749997,3.1749997 0 0 1 -2.24505,-3.88857 z"
       inkscape:transform-center-x="-26.987499"
       inkscape:transform-center-y="46.743717" /><path
       id="path290-5"
       style="display:inline;fill:#5500d4;fill-opacity:1;stroke:none;stroke-width:0;stroke-linecap:round;stroke-dasharray:none;stroke-opacity:1;paint-order:stroke fill markers"
       d="m 191.92522,411.6889 a 4.7624993,4.7624993 0 0 0 -3.3676,-5.83285 4.7624993,4.7624993 0 0 0 -5.83286,3.3676 4.7624993,4.7624993 0 0 0 3.36761,5.83285 4.7624993,4.7624993 0 0 0 5.83285,-3.3676 z m -1.53342,-0.41087 a 3.1749997,3.1749997 0 0 1 -3.88855,2.24505 3.1749997,3.1749997 0 0 1 -2.24507,-3.88855 3.1749997,3.1749997 0 0 1 3.88857,-2.24507 3.1749997,3.1749997 0 0 1 2.24505,3.88857 z"
       inkscape:transform-center-x="26.9875"
       inkscape:transform-center-y="-46.743717" /><g
       id="g28"
       transform="translate(-43.795228,257.17502)"><path
         id="path27"
         style="fill:#ffff00;fill-opacity:0.999817;stroke:none;stroke-width:0.264583;stroke-linecap:butt;stroke-dasharray:none;paint-order:markers fill stroke"
         d="m 66.814008,314.32499 a 14.287499,14.287499 0 0 0 -14.287499,14.2875 14.287499,14.287499 0 0 0 14.287499,14.2875 14.287499,14.287499 0 0 0 14.2875,-14.2875 14.287499,14.287499 0 0 0 -14.2875,-14.2875 z m 0,1.5875 a 12.7,12.7 0 0 1 12.7,12.7 12.7,12.7 0 0 1 -12.7,12.7 12.7,12.7 0 0 1 -12.699999,-12.7 12.7,12.7 0 0 1 12.699999,-12.7 z" /><path
         id="path28"
         style="fill:#ffff00;fill-opacity:0.999817;stroke:none;stroke-width:0.264583;stroke-linecap:butt;stroke-dasharray:none;paint-order:markers fill stroke"
         d="m 66.814008,317.49999 a 11.1125,11.1125 0 0 0 -11.112499,11.1125 11.1125,11.1125 0 0 0 11.112499,11.1125 11.1125,11.1125 0 0 0 11.1125,-11.1125 11.1125,11.1125 0 0 0 -11.1125,-11.1125 z m 0,1.5875 a 9.5249996,9.5249996 0 0 1 9.525,9.525 9.5249996,9.5249996 0 0 1 -9.525,9.525 9.5249996,9.5249996 0 0 1 -9.524999,-9.525 9.5249996,9.5249996 0 0 1 9.524999,-9.525 z" /></g><g
       id="g30"
       transform="translate(36.108926,257.17502)"><path
         id="path29"
         style="fill:#ffff00;fill-opacity:0.999817;stroke:none;stroke-width:0.264583;stroke-linecap:butt;stroke-dasharray:none;paint-order:markers fill stroke"
         d="m 66.814008,314.32499 a 14.287499,14.287499 0 0 0 -14.287499,14.2875 14.287499,14.287499 0 0 0 14.287499,14.2875 14.287499,14.287499 0 0 0 14.2875,-14.2875 14.287499,14.287499 0 0 0 -14.2875,-14.2875 z m 0,1.5875 a 12.7,12.7 0 0 1 12.7,12.7 12.7,12.7 0 0 1 -12.7,12.7 12.7,12.7 0 0 1 -12.699999,-12.7 12.7,12.7 0 0 1 12.699999,-12.7 z" /><path
         id="path30"
         style="fill:#ffff00;fill-opacity:0.999817;stroke:none;stroke-width:0.264583;stroke-linecap:butt;stroke-dasharray:none;paint-order:markers fill stroke"
         d="m 66.814008,317.49999 a 11.1125,11.1125 0 0 0 -11.112499,11.1125 11.1125,11.1125 0 0 0 11.112499,11.1125 11.1125,11.1125 0 0 0 11.1125,-11.1125 11.1125,11.1125 0 0 0 -11.1125,-11.1125 z m 0,1.5875 a 9.5249996,9.5249996 0 0 1 9.525,9.525 9.5249996,9.5249996 0 0 1 -9.525,9.525 9.5249996,9.5249996 0 0 1 -9.524999,-9.525 9.5249996,9.5249996 0 0 1 9.524999,-9.525 z" /></g><path
       id="path54"
       style="display:inline;fill:#c87137;fill-opacity:1;stroke:none;stroke-width:1.27;stroke-linecap:round;paint-order:markers fill stroke"
       d="m 214.31252,392.11249 a 65.087502,65.087502 0 0 1 65.0875,65.0875 65.087502,65.087502 0 0 1 -65.0875,65.0875 65.087502,65.087502 0 0 1 -65.0875,-65.0875 65.087502,65.087502 0 0 1 65.0875,-65.0875 z m 0,1.5875 a 63.5,63.5 0 0 0 -63.5,63.5 63.5,63.5 0 0 0 63.5,63.5 63.5,63.5 0 0 0 63.5,-63.5 63.5,63.5 0 0 0 -63.5,-63.5 z" /><g
       id="g68"
       transform="matrix(-1,0,0,1,329.54525,257.17502)"><path
         id="path67"
         style="fill:#ffff00;fill-opacity:0.999817;stroke:none;stroke-width:0.264583;stroke-linecap:butt;stroke-dasharray:none;paint-order:markers fill stroke"
         d="m 66.814008,314.32499 a 14.287499,14.287499 0 0 0 -14.287499,14.2875 14.287499,14.287499 0 0 0 14.287499,14.2875 14.287499,14.287499 0 0 0 14.2875,-14.2875 14.287499,14.287499 0 0 0 -14.2875,-14.2875 z m 0,1.5875 a 12.7,12.7 0 0 1 12.7,12.7 12.7,12.7 0 0 1 -12.7,12.7 12.7,12.7 0 0 1 -12.699999,-12.7 12.7,12.7 0 0 1 12.699999,-12.7 z" /><path
         id="path68"
         style="fill:#ffff00;fill-opacity:0.999817;stroke:none;stroke-width:0.264583;stroke-linecap:butt;stroke-dasharray:none;paint-order:markers fill stroke"
         d="m 66.814008,317.49999 a 11.1125,11.1125 0 0 0 -11.112499,11.1125 11.1125,11.1125 0 0 0 11.112499,11.1125 11.1125,11.1125 0 0 0 11.1125,-11.1125 11.1125,11.1125 0 0 0 -11.1125,-11.1125 z m 0,1.5875 a 9.5249996,9.5249996 0 0 1 9.525,9.525 9.5249996,9.5249996 0 0 1 -9.525,9.525 9.5249996,9.5249996 0 0 1 -9.524999,-9.525 9.5249996,9.5249996 0 0 1 9.524999,-9.525 z" /></g><g
       id="g70"
       transform="matrix(-1,0,0,1,249.6411,257.17502)"><path
         id="path69"
         style="fill:#ffff00;fill-opacity:0.999817;stroke:none;stroke-width:0.264583;stroke-linecap:butt;stroke-dasharray:none;paint-order:markers fill stroke"
         d="m 66.814008,314.32499 a 14.287499,14.287499 0 0 0 -14.287499,14.2875 14.287499,14.287499 0 0 0 14.287499,14.2875 14.287499,14.287499 0 0 0 14.2875,-14.2875 14.287499,14.287499 0 0 0 -14.2875,-14.2875 z m 0,1.5875 a 12.7,12.7 0 0 1 12.7,12.7 12.7,12.7 0 0 1 -12.7,12.7 12.7,12.7 0 0 1 -12.699999,-12.7 12.7,12.7 0 0 1 12.699999,-12.7 z" /><path
         id="path70"
         style="fill:#ffff00;fill-opacity:0.999817;stroke:none;stroke-width:0.264583;stroke-linecap:butt;stroke-dasharray:none;paint-order:markers fill stroke"
         d="m 66.814008,317.49999 a 11.1125,11.1125 0 0 0 -11.112499,11.1125 11.1125,11.1125 0 0 0 11.112499,11.1125 11.1125,11.1125 0 0 0 11.1125,-11.1125 11.1125,11.1125 0 0 0 -11.1125,-11.1125 z m 0,1.5875 a 9.5249996,9.5249996 0 0 1 9.525,9.525 9.5249996,9.5249996 0 0 1 -9.525,9.525 9.5249996,9.5249996 0 0 1 -9.524999,-9.525 9.5249996,9.5249996 0 0 1 9.524999,-9.525 z" /></g><g
       id="g5"
       transform="rotate(-15,320.57739,141.83759)"
       style="display:inline;fill:#ccff00"
       inkscape:transform-center-x="48.418742"
       inkscape:transform-center-y="-83.86375"><path
         id="path4"
         style="opacity:1;fill:#ccff00;fill-opacity:1;stroke:none;stroke-width:0;stroke-linecap:round;stroke-dasharray:none;stroke-opacity:1;paint-order:stroke fill markers"
         d="m -26.758415,269.38428 a 19.049997,19.049997 0 0 0 -19.049998,19.05 19.049997,19.049997 0 0 0 19.049998,19.05 19.049997,19.049997 0 0 0 19.0499979,-19.05 19.049997,19.049997 0 0 0 -19.0499979,-19.05 z m 0,1.5875 a 17.462498,17.462498 0 0 1 17.4624981,17.4625 17.462498,17.462498 0 0 1 -17.4624981,17.4625 17.462498,17.462498 0 0 1 -17.462498,-17.4625 17.462498,17.462498 0 0 1 17.462498,-17.4625 z" /><path
         id="path5"
         style="display:inline;opacity:1;fill:#ccff00;fill-opacity:1;stroke:none;stroke-width:0;stroke-linecap:round;stroke-dasharray:none;stroke-opacity:1;paint-order:stroke fill markers"
         d="m -26.758415,272.55928 a 15.874998,15.874998 0 0 0 -15.874998,15.875 15.874998,15.874998 0 0 0 15.874998,15.875 15.874998,15.874998 0 0 0 15.874998,-15.875 15.874998,15.874998 0 0 0 -15.874998,-15.875 z m 0,1.5875 a 14.287498,14.287498 0 0 1 14.287498,14.2875 14.287498,14.287498 0 0 1 -14.287498,14.2875 14.287498,14.287498 0 0 1 -14.287499,-14.2875 14.287498,14.287498 0 0 1 14.287499,-14.2875 z" /></g><g
       id="g11"
       transform="matrix(-0.96592583,-0.25881904,-0.25881904,0.96592583,311.53688,87.804554)"
       style="display:inline;fill:#ccff00"
       inkscape:transform-center-x="-48.418784"
       inkscape:transform-center-y="-83.863728"><path
         id="path9"
         style="opacity:1;fill:#ccff00;fill-opacity:1;stroke:none;stroke-width:0;stroke-linecap:round;stroke-dasharray:none;stroke-opacity:1;paint-order:stroke fill markers"
         d="m -26.758415,269.38428 a 19.049997,19.049997 0 0 0 -19.049998,19.05 19.049997,19.049997 0 0 0 19.049998,19.05 19.049997,19.049997 0 0 0 19.0499979,-19.05 19.049997,19.049997 0 0 0 -19.0499979,-19.05 z m 0,1.5875 a 17.462498,17.462498 0 0 1 17.4624981,17.4625 17.462498,17.462498 0 0 1 -17.4624981,17.4625 17.462498,17.462498 0 0 1 -17.462498,-17.4625 17.462498,17.462498 0 0 1 17.462498,-17.4625 z" /><path
         id="path11"
         style="display:inline;opacity:1;fill:#ccff00;fill-opacity:1;stroke:none;stroke-width:0;stroke-linecap:round;stroke-dasharray:none;stroke-opacity:1;paint-order:stroke fill markers"
         d="m -26.758415,272.55928 a 15.874998,15.874998 0 0 0 -15.874998,15.875 15.874998,15.874998 0 0 0 15.874998,15.875 15.874998,15.874998 0 0 0 15.874998,-15.875 15.874998,15.874998 0 0 0 -15.874998,-15.875 z m 0,1.5875 a 14.287498,14.287498 0 0 1 14.287498,14.2875 14.287498,14.287498 0 0 1 -14.287498,14.2875 14.287498,14.287498 0 0 1 -14.287499,-14.2875 14.287498,14.287498 0 0 1 14.287499,-14.2875 z" /></g><path
       id="path3"
       style="fill:#5500d4;fill-opacity:1;stroke-width:3.175;paint-order:markers fill stroke"
       inkscape:transform-center-x="26.808893"
       inkscape:transform-center-y="15.478089"
       d="m 211.56285,458.78752 a 27.78125,27.78125 0 0 0 -37.9499,-10.16865 27.78125,27.78125 0 0 0 -10.16864,37.9499 27.78125,27.78125 0 0 0 37.94989,10.16864 27.78125,27.78125 0 0 0 10.16865,-37.94989 z m -1.37482,0.79375 a 26.19375,26.19375 0 0 1 -9.58757,35.78133 26.19375,26.19375 0 0 1 -35.78133,-9.58758 26.19375,26.19375 0 0 1 9.58757,-35.78133 26.19375,26.19375 0 0 1 35.78133,9.58758 z" /><path
       id="circle6"
       style="fill:#5500d4;fill-opacity:1;stroke-width:3.175;paint-order:markers fill stroke"
       inkscape:transform-center-x="-26.808914"
       inkscape:transform-center-y="-15.478095"
       d="m 265.18064,427.83127 a 27.78125,27.78125 0 0 0 -37.94989,-10.16865 27.78125,27.78125 0 0 0 -10.16864,37.9499 27.78125,27.78125 0 0 0 37.94989,10.16864 27.78125,27.78125 0 0 0 10.16864,-37.94989 z m -1.37481,0.79375 a 26.19375,26.19375 0 0 1 -9.58757,35.78133 26.19375,26.19375 0 0 1 -35.78134,-9.58758 26.19375,26.19375 0 0 1 9.58758,-35.78133 26.19375,26.19375 0 0 1 35.78133,9.58758 z" /></g><g
     inkscape:groupmode="layer"
     id="layer2"
     inkscape:label="backlit"
     inkscape:highlight-color="#8736a9"
     style="display:none;opacity:1"
     sodipodi:insensitive="true"><circle
       style="fill:#71c837;fill-opacity:0.998008;stroke-width:0.264583;paint-order:markers fill stroke"
       id="path2"
       cx="23.01878"
       cy="585.78754"
       r="11.1125" /><circle
       style="fill:#71c837;fill-opacity:0.998008;stroke-width:0.264583;paint-order:markers fill stroke"
       id="circle2"
       cx="102.92293"
       cy="585.78748"
       r="11.1125" /><circle
       style="fill:#71c837;fill-opacity:0.998008;stroke-width:0.264583;paint-order:markers fill stroke"
       id="circle3"
       cx="182.82709"
       cy="585.78748"
       r="11.1125" /><circle
       style="fill:#71c837;fill-opacity:0.998008;stroke-width:0.264583;paint-order:markers fill stroke"
       id="circle4"
       cx="262.73123"
       cy="585.78754"
       r="11.1125" /><circle
       style="fill:#71c837;fill-opacity:0.998008;stroke-width:0.264583;paint-order:markers fill stroke"
       id="circle7"
       cx="23.018782"
       cy="373.33624"
       r="15.875" /><circle
       style="fill:#71c837;fill-opacity:0.998008;stroke-width:0.264583;paint-order:markers fill stroke"
       id="circle8"
       cx="262.73132"
       cy="373.33624"
       r="15.875" /><circle
       style="fill:#71c837;fill-opacity:0.998008;stroke-width:0.264584;paint-order:markers fill stroke"
       id="path10"
       cx="33.271435"
       cy="419.03391"
       r="4.7624998" /><circle
       style="fill:#71c837;fill-opacity:0.998008;stroke-width:0.264584;paint-order:markers fill stroke"
       id="circle11"
       cx="109.60361"
       cy="419.03391"
       r="4.7624998" /><circle
       style="fill:#71c837;fill-opacity:0.998008;stroke-width:0.264584;paint-order:markers fill stroke"
       id="circle12"
       cx="33.271435"
       cy="495.36606"
       r="4.7624998" /><circle
       style="fill:#71c837;fill-opacity:0.998008;stroke-width:0.264584;paint-order:markers fill stroke"
       id="circle13"
       cx="109.60361"
       cy="495.36606"
       r="4.7624998" /><circle
       style="fill:#71c837;fill-opacity:0.998008;stroke-width:0.264583;paint-order:markers fill stroke"
       id="path13"
       cx="71.4375"
       cy="420.6875"
       r="22.225" /><circle
       style="fill:#71c837;fill-opacity:0.998008;stroke-width:0.264583;paint-order:markers fill stroke"
       id="circle14"
       cx="34.925018"
       cy="457.19998"
       r="22.225" /><circle
       style="fill:#71c837;fill-opacity:0.998008;stroke-width:0.264583;paint-order:markers fill stroke"
       id="circle15"
       cx="71.437523"
       cy="493.71249"
       r="22.225" /><circle
       style="fill:#71c837;fill-opacity:0.998008;stroke-width:0.264583;paint-order:markers fill stroke"
       id="circle16"
       cx="107.95002"
       cy="457.19998"
       r="22.225" /><circle
       style="fill:#71c837;fill-opacity:1;stroke:none;stroke-width:3.175;paint-order:markers fill stroke"
       id="path25"
       cx="187.50357"
       cy="472.67813"
       r="27.78125" /><circle
       style="fill:#71c837;fill-opacity:1;stroke:none;stroke-width:3.175;paint-order:markers fill stroke"
       id="circle25"
       cx="241.12137"
       cy="441.72189"
       r="27.78125" /></g><g
     inkscape:groupmode="layer"
     id="layer5"
     inkscape:label="buttons"
     style="display:none;opacity:1"
     sodipodi:insensitive="true"><title
       id="title1">stop</title><title
       id="title1-7">fast-forward</title><title
       id="title1-8">play</title><title
       id="title1-1">open-in-app</title><title
       id="title1-9">content-save</title><title
       id="title1-5">menu</title><title
       id="title1-6">triangle-outline</title><title
       id="title1-2">square</title><title
       id="title1-07">square-outline</title><title
       id="title1-4">circle-outline</title><title
       id="title1-20">close</title><title
       id="title1-64">window-close</title><title
       id="title1-0">content-save-outline</title><title
       id="title1-15">triangle</title><g
       id="g25"
       transform="translate(-16.139595,258.76252)"><path
         id="path29-0"
         style="fill:#ffffff;fill-opacity:0.3;stroke:none;stroke-width:0.264583;stroke-linecap:butt;stroke-dasharray:none;paint-order:markers fill stroke"
         d="m 119.06253,312.73749 a 14.287499,14.287499 0 0 0 -14.2875,14.2875 14.287499,14.287499 0 0 0 14.2875,14.2875 14.287499,14.287499 0 0 0 14.2875,-14.2875 14.287499,14.287499 0 0 0 -14.2875,-14.2875 z m 0,1.5875 a 12.7,12.7 0 0 1 12.7,12.7 12.7,12.7 0 0 1 -12.7,12.7 12.7,12.7 0 0 1 -12.7,-12.7 12.7,12.7 0 0 1 12.7,-12.7 z" /><path
         id="path30-9"
         style="fill:#ffffff;fill-opacity:0.999817;stroke:none;stroke-width:0.264583;stroke-linecap:butt;stroke-dasharray:none;paint-order:markers fill stroke"
         d="m 119.06253,315.91249 a 11.1125,11.1125 0 0 0 -11.1125,11.1125 11.1125,11.1125 0 0 0 11.1125,11.1125 11.1125,11.1125 0 0 0 11.1125,-11.1125 11.1125,11.1125 0 0 0 -11.1125,-11.1125 z m 0,1.5875 a 9.5249996,9.5249996 0 0 1 9.525,9.525 9.5249996,9.5249996 0 0 1 -9.525,9.525 9.5249996,9.5249996 0 0 1 -9.525,-9.525 9.5249996,9.5249996 0 0 1 9.525,-9.525 z" /><path
         d="m 119.06252,325.96666 -2.11666,2.11667 h 1.58751 v 3.17499 h 1.05834 v -3.17499 h 1.58749 m 1.5875,-5.29167 h -7.40834 c -0.58739,0 -1.05833,0.47624 -1.05833,1.05831 v 6.35002 a 1.0583347,1.0583347 0 0 0 1.05833,1.05833 h 2.11667 v -1.05833 h -2.11667 v -5.29167 h 7.40834 v 5.29167 h -2.11668 v 1.05833 h 2.11668 a 1.0583347,1.0583347 0 0 0 1.05832,-1.05833 v -6.35002 a 1.0583347,1.0583347 0 0 0 -1.05832,-1.05831 z"
         id="path35"
         style="fill:#ffffff;stroke-width:0.264583" /></g><g
       id="g26"
       transform="translate(16.139601,258.76252)"><path
         id="path31-7"
         style="fill:#ffffff;fill-opacity:0.3;stroke:none;stroke-width:0.264583;stroke-linecap:butt;stroke-dasharray:none;paint-order:markers fill stroke"
         d="m 166.68749,312.73749 a 14.287499,14.287499 0 0 0 -14.2875,14.2875 14.287499,14.287499 0 0 0 14.2875,14.2875 14.287499,14.287499 0 0 0 14.2875,-14.2875 14.287499,14.287499 0 0 0 -14.2875,-14.2875 z m 0,1.5875 a 12.7,12.7 0 0 1 12.7,12.7 12.7,12.7 0 0 1 -12.7,12.7 12.7,12.7 0 0 1 -12.7,-12.7 12.7,12.7 0 0 1 12.7,-12.7 z" /><path
         id="path32-7"
         style="fill:#ffffff;fill-opacity:0.999817;stroke:none;stroke-width:0.264583;stroke-linecap:butt;stroke-dasharray:none;paint-order:markers fill stroke"
         d="m 166.68749,315.91249 a 11.1125,11.1125 0 0 0 -11.1125,11.1125 11.1125,11.1125 0 0 0 11.1125,11.1125 11.1125,11.1125 0 0 0 11.1125,-11.1125 11.1125,11.1125 0 0 0 -11.1125,-11.1125 z m 0,1.5875 a 9.5249996,9.5249996 0 0 1 9.525,9.525 9.5249996,9.5249996 0 0 1 -9.525,9.525 9.5249996,9.5249996 0 0 1 -9.525,-9.525 9.5249996,9.5249996 0 0 1 9.525,-9.525 z" /><path
         d="m 168.275,325.4375 h -5.29167 v -2.11667 h 5.29167 m -1.58751,7.40832 a 1.5875003,1.5875003 0 0 1 -1.58749,-1.58749 1.5875003,1.5875003 0 0 1 1.58749,-1.58751 1.5875003,1.5875003 0 0 1 1.58751,1.58751 1.5875003,1.5875003 0 0 1 -1.58751,1.58749 m 2.64585,-8.46666 h -6.35001 c -0.58738,0 -1.05834,0.47627 -1.05834,1.05834 v 7.40832 a 1.0583334,1.0583334 0 0 0 1.05834,1.05834 h 7.40832 a 1.0583334,1.0583334 0 0 0 1.05834,-1.05834 v -6.35001 z"
         id="path36"
         style="fill:#ffffff;stroke-width:0.264583" /></g><g
       id="g27"
       transform="translate(0.7937565,258.76252)"><path
         id="path33-1"
         style="fill:#ffffff;fill-opacity:0.3;stroke:none;stroke-width:0.264583;stroke-linecap:butt;stroke-dasharray:none;paint-order:markers fill stroke"
         d="m 261.93749,312.73749 a 14.287499,14.287499 0 0 0 -14.2875,14.2875 14.287499,14.287499 0 0 0 14.2875,14.2875 14.287499,14.287499 0 0 0 14.2875,-14.2875 14.287499,14.287499 0 0 0 -14.2875,-14.2875 z m 0,1.5875 a 12.7,12.7 0 0 1 12.7,12.7 12.7,12.7 0 0 1 -12.7,12.7 12.7,12.7 0 0 1 -12.7,-12.7 12.7,12.7 0 0 1 12.7,-12.7 z" /><path
         id="path34-5"
         style="fill:#ffffff;fill-opacity:0.999817;stroke:none;stroke-width:0.264583;stroke-linecap:butt;stroke-dasharray:none;paint-order:markers fill stroke"
         d="m 261.93749,315.91249 a 11.1125,11.1125 0 0 0 -11.1125,11.1125 11.1125,11.1125 0 0 0 11.1125,11.1125 11.1125,11.1125 0 0 0 11.1125,-11.1125 11.1125,11.1125 0 0 0 -11.1125,-11.1125 z m 0,1.5875 a 9.5249996,9.5249996 0 0 1 9.525,9.525 9.5249996,9.5249996 0 0 1 -9.525,9.525 9.5249996,9.5249996 0 0 1 -9.525,-9.525 9.5249996,9.5249996 0 0 1 9.525,-9.525 z" /><path
         d="m 257.17499,323.85 h 9.52499 v 1.05834 h -9.52499 V 323.85 m 0,2.64583 h 9.52499 v 1.05832 h -9.52499 v -1.05832 m 0,2.64581 h 9.52499 v 1.05834 h -9.52499 z"
         id="path37"
         style="fill:#ffffff;stroke-width:0.264583" /></g><g
       id="g24"
       transform="translate(-0.793745,258.76252)"><path
         id="path27-9"
         style="fill:#ffffff;fill-opacity:0.3;stroke:none;stroke-width:0.264583;stroke-linecap:butt;stroke-dasharray:none;paint-order:markers fill stroke"
         d="m 23.812525,312.73749 a 14.287499,14.287499 0 0 0 -14.287499,14.2875 14.287499,14.287499 0 0 0 14.287499,14.2875 14.287499,14.287499 0 0 0 14.2875,-14.2875 14.287499,14.287499 0 0 0 -14.2875,-14.2875 z m 0,1.5875 a 12.7,12.7 0 0 1 12.7,12.7 12.7,12.7 0 0 1 -12.7,12.7 12.7,12.7 0 0 1 -12.699999,-12.7 12.7,12.7 0 0 1 12.699999,-12.7 z" /><path
         id="path28-4"
         style="fill:#ffffff;fill-opacity:1;stroke:none;stroke-width:0.264583;stroke-linecap:butt;stroke-dasharray:none;paint-order:markers fill stroke"
         d="m 23.812525,315.91249 a 11.1125,11.1125 0 0 0 -11.112499,11.1125 11.1125,11.1125 0 0 0 11.112499,11.1125 11.1125,11.1125 0 0 0 11.1125,-11.1125 11.1125,11.1125 0 0 0 -11.1125,-11.1125 z m 0,1.5875 a 9.5249996,9.5249996 0 0 1 9.525,9.525 9.5249996,9.5249996 0 0 1 -9.525,9.525 9.5249996,9.5249996 0 0 1 -9.524999,-9.525 9.5249996,9.5249996 0 0 1 9.524999,-9.525 z" /><path
         d="m 24.719789,323.75884 v 6.5323 l 4.627045,-3.26615 m -9.526269,3.26615 4.627046,-3.26615 -4.627046,-3.26615 z"
         id="path38"
         style="fill:#ffffff;stroke-width:0.264583" /></g><g
       id="g33"
       transform="translate(-96.043731,0.2126749)"><path
         d="m 124.61882,378.67987 h -11.11258 v -11.11259 h 11.11258 z"
         id="path1"
         style="fill:#ffffff;stroke-width:0.264583" /><path
         id="path295-5"
         style="fill:#ffffff;fill-opacity:0.3;stroke:none;stroke-width:0;stroke-linecap:round;stroke-dasharray:none;stroke-opacity:1;paint-order:stroke fill markers"
         d="m 132.53292,359.6532 a 19.049997,19.049997 0 0 0 -26.94077,0 19.049997,19.049997 0 0 0 0,26.94076 19.049997,19.049997 0 0 0 26.94076,0 19.049997,19.049997 0 0 0 1e-5,-26.94076 z m -1.12254,1.12253 a 17.462498,17.462498 0 0 1 0,24.6957 17.462498,17.462498 0 0 1 -24.6957,0 17.462498,17.462498 0 0 1 0,-24.6957 17.462498,17.462498 0 0 1 24.6957,0 z" /><path
         id="path296-3"
         style="display:inline;fill:#ffffff;fill-opacity:1;stroke:none;stroke-width:0;stroke-linecap:round;stroke-dasharray:none;stroke-opacity:1;paint-order:stroke fill markers"
         d="m 130.28785,361.89826 a 15.874998,15.874998 0 0 0 -22.45064,0 15.874998,15.874998 0 0 0 0,22.45064 15.874998,15.874998 0 0 0 22.45064,0 15.874998,15.874998 0 0 0 0,-22.45064 z m -1.12253,1.12253 a 14.287498,14.287498 0 0 1 0,20.20558 14.287498,14.287498 0 0 1 -20.20558,0 14.287498,14.287498 0 0 1 0,-20.20558 14.287498,14.287498 0 0 1 20.20558,0 z" /></g><g
       id="g32"
       transform="translate(96.043867,0.21265175)"><path
         id="path306-8"
         style="fill:#ffffff;fill-opacity:0.3;stroke:none;stroke-width:0;stroke-linecap:round;stroke-dasharray:none;stroke-opacity:1;paint-order:stroke fill markers"
         d="m 161.75699,354.72269 a 19.049997,19.049997 0 0 0 -13.47038,23.33139 19.049997,19.049997 0 0 0 23.33139,13.47038 19.049997,19.049997 0 0 0 13.47038,-23.33139 19.049997,19.049997 0 0 0 -23.33139,-13.47038 z m 0.41088,1.5334 a 17.462498,17.462498 0 0 1 21.3871,12.34786 17.462498,17.462498 0 0 1 -12.34785,21.3871 17.462498,17.462498 0 0 1 -21.3871,-12.34785 17.462498,17.462498 0 0 1 12.34785,-21.38711 z" /><path
         id="path307-3"
         style="display:inline;fill:#ffffff;fill-opacity:1;stroke:none;stroke-width:0;stroke-linecap:round;stroke-dasharray:none;stroke-opacity:1;paint-order:stroke fill markers"
         d="m 162.57874,357.7895 a 15.874998,15.874998 0 0 0 -11.22532,19.44283 15.874998,15.874998 0 0 0 19.44283,11.22532 15.874998,15.874998 0 0 0 11.22531,-19.44283 15.874998,15.874998 0 0 0 -19.44282,-11.22532 z m 0.41088,1.53341 a 14.287498,14.287498 0 0 1 17.49854,10.10279 14.287498,14.287498 0 0 1 -10.10279,17.49854 14.287498,14.287498 0 0 1 -17.49854,-10.10279 14.287498,14.287498 0 0 1 10.10279,-17.49854 z" /><path
         d="m 163.292,366.64128 v 12.96459 l 10.18646,-6.48231 z"
         id="path1-9"
         style="fill:#ffffff;stroke-width:0.264583" /></g><path
       id="path282-0"
       style="display:inline;fill:#ffffff;fill-opacity:0.3;stroke:none;stroke-width:1.27;stroke-linecap:round;paint-order:markers fill stroke"
       d="m 71.4375,392.11248 a 65.087502,65.087502 0 0 0 -65.0875001,65.0875 65.087502,65.087502 0 0 0 65.0875001,65.0875 65.087502,65.087502 0 0 0 65.0875,-65.0875 65.087502,65.087502 0 0 0 -65.0875,-65.0875 z m 0,1.5875 a 63.5,63.5 0 0 1 63.5,63.5 63.5,63.5 0 0 1 -63.5,63.5 63.5,63.5 0 0 1 -63.5000001,-63.5 63.5,63.5 0 0 1 63.5000001,-63.5 z" /><g
       id="g36"><path
         d="m 62.706255,425.71456 h 17.46249 l -8.73123,-15.08123"
         id="path1-54"
         style="fill:#ffffff;stroke-width:0.264583" /><path
         id="path283-8"
         style="display:inline;fill:#ffffff;fill-opacity:1;stroke:none;stroke-width:1.27;stroke-linecap:round;paint-order:markers fill stroke"
         d="m 71.4375,398.46248 a 22.225,22.225 0 0 0 -22.225,22.225 22.225,22.225 0 0 0 22.225,22.225 22.225,22.225 0 0 0 22.225,-22.225 22.225,22.225 0 0 0 -22.225,-22.225 z m 0,1.5875 a 20.637499,20.637499 0 0 1 20.6375,20.6375 20.637499,20.637499 0 0 1 -20.6375,20.6375 20.637499,20.637499 0 0 1 -20.6375,-20.6375 20.637499,20.637499 0 0 1 20.6375,-20.6375 z" /></g><path
       id="path287-7"
       style="display:inline;fill:#ffffff;fill-opacity:0.3;stroke:none;stroke-width:0;stroke-linecap:round;stroke-dasharray:none;stroke-opacity:1;paint-order:stroke fill markers"
       d="m 109.6036,423.79639 a 4.7624993,4.7624993 0 0 0 4.76251,-4.7625 4.7624993,4.7624993 0 0 0 -4.76251,-4.76251 4.7624993,4.7624993 0 0 0 -4.7625,4.76251 4.7624993,4.7624993 0 0 0 4.7625,4.7625 z m 0,-1.58751 a 3.1749997,3.1749997 0 0 1 -3.17499,-3.17499 3.1749997,3.1749997 0 0 1 3.17499,-3.175 3.1749997,3.1749997 0 0 1 3.175,3.175 3.1749997,3.1749997 0 0 1 -3.175,3.17499 z"
       inkscape:transform-center-y="-38.166086"
       inkscape:transform-center-x="-38.166086" /><path
       id="path288-7"
       style="display:inline;fill:#ffffff;fill-opacity:0.3;stroke:none;stroke-width:0;stroke-linecap:round;stroke-dasharray:none;stroke-opacity:1;paint-order:stroke fill markers"
       d="m 104.8411,495.36605 a 4.7624993,4.7624993 0 0 0 4.7625,4.76251 4.7624993,4.7624993 0 0 0 4.76251,-4.76251 4.7624993,4.7624993 0 0 0 -4.76251,-4.7625 4.7624993,4.7624993 0 0 0 -4.7625,4.7625 z m 1.58751,0 a 3.1749997,3.1749997 0 0 1 3.17499,-3.17499 3.1749997,3.1749997 0 0 1 3.175,3.17499 3.1749997,3.1749997 0 0 1 -3.175,3.175 3.1749997,3.1749997 0 0 1 -3.17499,-3.175 z"
       inkscape:transform-center-x="-38.166086"
       inkscape:transform-center-y="38.166086" /><path
       id="path289-6"
       style="display:inline;fill:#ffffff;fill-opacity:0.3;stroke:none;stroke-width:0;stroke-linecap:round;stroke-dasharray:none;stroke-opacity:1;paint-order:stroke fill markers"
       d="m 33.27144,490.60355 a 4.7624993,4.7624993 0 0 0 -4.76251,4.7625 4.7624993,4.7624993 0 0 0 4.76251,4.76251 4.7624993,4.7624993 0 0 0 4.7625,-4.76251 4.7624993,4.7624993 0 0 0 -4.7625,-4.7625 z m 0,1.58751 a 3.1749997,3.1749997 0 0 1 3.17499,3.17499 3.1749997,3.1749997 0 0 1 -3.17499,3.175 3.1749997,3.1749997 0 0 1 -3.175,-3.175 3.1749997,3.1749997 0 0 1 3.175,-3.17499 z"
       inkscape:transform-center-y="38.166086"
       inkscape:transform-center-x="38.166086" /><path
       id="path290-4"
       style="display:inline;fill:#ffffff;fill-opacity:0.3;stroke:none;stroke-width:0;stroke-linecap:round;stroke-dasharray:none;stroke-opacity:1;paint-order:stroke fill markers"
       d="m 38.03394,419.03389 a 4.7624993,4.7624993 0 0 0 -4.7625,-4.76251 4.7624993,4.7624993 0 0 0 -4.76251,4.76251 4.7624993,4.7624993 0 0 0 4.76251,4.7625 4.7624993,4.7624993 0 0 0 4.7625,-4.7625 z m -1.58751,0 a 3.1749997,3.1749997 0 0 1 -3.17499,3.17499 3.1749997,3.1749997 0 0 1 -3.175,-3.17499 3.1749997,3.1749997 0 0 1 3.175,-3.175 3.1749997,3.1749997 0 0 1 3.17499,3.175 z"
       inkscape:transform-center-x="38.166086"
       inkscape:transform-center-y="-38.166086" /><path
       id="path297-3"
       style="display:inline;fill:#ffffff;fill-opacity:0.3;stroke:none;stroke-width:1.27;stroke-linecap:round;paint-order:markers fill stroke"
       d="m 214.3125,392.11248 a 65.087502,65.087502 0 0 0 -65.0875,65.0875 65.087502,65.087502 0 0 0 65.0875,65.0875 65.087502,65.087502 0 0 0 65.0875,-65.0875 65.087502,65.087502 0 0 0 -65.0875,-65.0875 z m 0,1.5875 a 63.5,63.5 0 0 1 63.5,63.5 63.5,63.5 0 0 1 -63.5,63.5 63.5,63.5 0 0 1 -63.5,-63.5 63.5,63.5 0 0 1 63.5,-63.5 z" /><path
       id="path303-4"
       style="display:inline;fill:#ffffff;fill-opacity:0.3;stroke:none;stroke-width:0;stroke-linecap:round;stroke-dasharray:none;stroke-opacity:1;paint-order:stroke fill markers"
       d="m 236.53748,503.9437 a 4.7624993,4.7624993 0 0 0 4.7625,4.76251 4.7624993,4.7624993 0 0 0 4.76251,-4.76251 4.7624993,4.7624993 0 0 0 -4.76251,-4.7625 4.7624993,4.7624993 0 0 0 -4.7625,4.7625 z m 1.58751,0 a 3.1749997,3.1749997 0 0 1 3.17499,-3.17499 3.1749997,3.1749997 0 0 1 3.175,3.17499 3.1749997,3.1749997 0 0 1 -3.175,3.175 3.1749997,3.1749997 0 0 1 -3.17499,-3.175 z"
       inkscape:transform-center-x="-38.166086"
       inkscape:transform-center-y="38.166086" /><path
       id="path305-5"
       style="display:inline;fill:#ffffff;fill-opacity:0.3;stroke:none;stroke-width:0;stroke-linecap:round;stroke-dasharray:none;stroke-opacity:1;paint-order:stroke fill markers"
       d="m 192.0875,410.45628 a 4.7624993,4.7624993 0 0 0 -4.7625,-4.76251 4.7624993,4.7624993 0 0 0 -4.76251,4.76251 4.7624993,4.7624993 0 0 0 4.76251,4.7625 4.7624993,4.7624993 0 0 0 4.7625,-4.7625 z m -1.58751,0 a 3.1749997,3.1749997 0 0 1 -3.17499,3.17499 3.1749997,3.1749997 0 0 1 -3.175,-3.17499 3.1749997,3.1749997 0 0 1 3.175,-3.175 3.1749997,3.1749997 0 0 1 3.17499,3.175 z"
       inkscape:transform-center-x="38.166086"
       inkscape:transform-center-y="-38.166086" /><g
       id="g38"><path
         d="m 102.92294,448.46873 v 17.46249 l 15.08123,-8.73123"
         id="path44"
         style="display:inline;fill:#ffffff;stroke-width:0.264583" /><path
         id="path45"
         style="display:inline;fill:#ffffff;fill-opacity:1;stroke:none;stroke-width:1.27;stroke-linecap:round;paint-order:markers fill stroke"
         d="m 130.17502,457.19997 a 22.225,22.225 0 0 0 -22.225,-22.225 22.225,22.225 0 0 0 -22.224998,22.225 22.225,22.225 0 0 0 22.224998,22.225 22.225,22.225 0 0 0 22.225,-22.225 z m -1.5875,0 a 20.637499,20.637499 0 0 1 -20.6375,20.6375 20.637499,20.637499 0 0 1 -20.637498,-20.6375 20.637499,20.637499 0 0 1 20.637498,-20.6375 20.637499,20.637499 0 0 1 20.6375,20.6375 z" /></g><g
       id="g39"><path
         id="path284-8"
         style="display:inline;fill:#ffffff;fill-opacity:1;stroke:none;stroke-width:1.27;stroke-linecap:round;paint-order:markers fill stroke"
         d="m 71.43752,471.48747 a 22.225,22.225 0 0 0 -22.225,22.225 22.225,22.225 0 0 0 22.225,22.225 22.225,22.225 0 0 0 22.225,-22.225 22.225,22.225 0 0 0 -22.225,-22.225 z m 0,1.5875 a 20.637499,20.637499 0 0 1 20.6375,20.6375 20.637499,20.637499 0 0 1 -20.6375,20.6375 20.637499,20.637499 0 0 1 -20.6375,-20.6375 20.637499,20.637499 0 0 1 20.6375,-20.6375 z" /><path
         d="M 80.16876,488.68539 H 62.70627 l 8.73123,15.08123"
         id="path44-3"
         style="display:inline;fill:#ffffff;stroke-width:0.264583" /></g><g
       id="g37"><path
         id="path286-9"
         style="display:inline;fill:#ffffff;fill-opacity:1;stroke:none;stroke-width:1.27;stroke-linecap:round;paint-order:markers fill stroke"
         d="m 34.92502,434.97497 a 22.225,22.225 0 0 0 -22.225,22.225 22.225,22.225 0 0 0 22.225,22.225 22.225,22.225 0 0 0 22.225,-22.225 22.225,22.225 0 0 0 -22.225,-22.225 z m 0,1.5875 a 20.637499,20.637499 0 0 1 20.6375,20.6375 20.637499,20.637499 0 0 1 -20.6375,20.6375 20.637499,20.637499 0 0 1 -20.6375,-20.6375 20.637499,20.637499 0 0 1 20.6375,-20.6375 z" /><path
         d="m 39.9521,448.46873 v 17.46249 l -15.08123,-8.73123"
         id="path44-1"
         style="display:inline;fill:#ffffff;stroke-width:0.264583" /></g><g
       id="g29"><text
         xml:space="preserve"
         style="font-style:normal;font-variant:normal;font-weight:bold;font-stretch:normal;font-size:23.2833px;line-height:20px;font-family:Roboto;-inkscape-font-specification:'Roboto, Bold';font-variant-ligatures:none;font-variant-caps:normal;font-variant-numeric:normal;font-variant-east-asian:normal;text-align:center;letter-spacing:0px;word-spacing:0px;text-anchor:middle;fill:#ffffff;fill-opacity:1;stroke:none;stroke-width:3.175;stroke-dasharray:none;stroke-opacity:1;paint-order:markers fill stroke"
         x="187.30463"
         y="480.95462"
         id="text82"><tspan
           sodipodi:role="line"
           id="tspan82"
           style="font-style:normal;font-variant:normal;font-weight:bold;font-stretch:normal;font-size:23.2833px;font-family:Roboto;-inkscape-font-specification:'Roboto, Bold';font-variant-ligatures:none;font-variant-caps:normal;font-variant-numeric:normal;font-variant-east-asian:normal;fill:#ffffff;stroke-width:3.175"
           x="187.30463"
           y="480.95462">B</tspan></text><path
         id="path3-1"
         style="display:inline;fill:#ffffff;fill-opacity:1;stroke-width:3.175;paint-order:markers fill stroke"
         inkscape:transform-center-x="26.808893"
         inkscape:transform-center-y="15.478089"
         d="m 211.56285,458.78752 a 27.78125,27.78125 0 0 0 -37.9499,-10.16865 27.78125,27.78125 0 0 0 -10.16864,37.9499 27.78125,27.78125 0 0 0 37.94989,10.16864 27.78125,27.78125 0 0 0 10.16865,-37.94989 z m -1.37482,0.79375 a 26.19375,26.19375 0 0 1 -9.58757,35.78133 26.19375,26.19375 0 0 1 -35.78133,-9.58758 26.19375,26.19375 0 0 1 9.58757,-35.78133 26.19375,26.19375 0 0 1 35.78133,9.58758 z" /></g><g
       id="g31"><text
         xml:space="preserve"
         style="font-style:normal;font-variant:normal;font-weight:bold;font-stretch:normal;font-size:23.2833px;line-height:20px;font-family:Roboto;-inkscape-font-specification:'Roboto, Bold';font-variant-ligatures:none;font-variant-caps:normal;font-variant-numeric:normal;font-variant-east-asian:normal;text-align:center;letter-spacing:0px;word-spacing:0px;text-anchor:middle;fill:#ffffff;fill-opacity:1;stroke:none;stroke-width:3.175;stroke-dasharray:none;stroke-opacity:1;paint-order:markers fill stroke"
         x="241.11569"
         y="449.99838"
         id="text81"><tspan
           sodipodi:role="line"
           id="tspan81"
           style="font-style:normal;font-variant:normal;font-weight:bold;font-stretch:normal;font-size:23.2833px;font-family:Roboto;-inkscape-font-specification:'Roboto, Bold';font-variant-ligatures:none;font-variant-caps:normal;font-variant-numeric:normal;font-variant-east-asian:normal;fill:#ffffff;stroke-width:3.175"
           x="241.11569"
           y="449.99838">A</tspan></text><path
         id="circle6-2"
         style="display:inline;fill:#ffffff;fill-opacity:1;stroke-width:3.175;paint-order:markers fill stroke"
         inkscape:transform-center-x="-26.808914"
         inkscape:transform-center-y="-15.478095"
         d="m 265.18064,427.83127 a 27.78125,27.78125 0 0 0 -37.94989,-10.16865 27.78125,27.78125 0 0 0 -10.16864,37.9499 27.78125,27.78125 0 0 0 37.94989,10.16864 27.78125,27.78125 0 0 0 10.16864,-37.94989 z m -1.37481,0.79375 a 26.19375,26.19375 0 0 1 -9.58757,35.78133 26.19375,26.19375 0 0 1 -35.78134,-9.58758 26.19375,26.19375 0 0 1 9.58758,-35.78133 26.19375,26.19375 0 0 1 35.78133,9.58758 z" /></g></g></svg>
