<?xml version="1.0" encoding="UTF-8" standalone="no"?>
<!-- Created with Inkscape (http://www.inkscape.org/) -->

<svg
   width="2400"
   height="1080"
   viewBox="0 0 634.99998 285.75"
   version="1.1"
   id="svg1"
   xml:space="preserve"
   sodipodi:docname="psx-landscape.svg"
   inkscape:version="1.3.2 (091e20ef0f, 2023-11-25, custom)"
   inkscape:export-filename="psx-analog-landscape.png"
   inkscape:export-xdpi="96"
   inkscape:export-ydpi="96"
   xmlns:inkscape="http://www.inkscape.org/namespaces/inkscape"
   xmlns:sodipodi="http://sodipodi.sourceforge.net/DTD/sodipodi-0.dtd"
   xmlns="http://www.w3.org/2000/svg"
   xmlns:svg="http://www.w3.org/2000/svg"><sodipodi:namedview
     id="namedview1"
     pagecolor="#000000"
     bordercolor="#000000"
     borderopacity="0.25"
     inkscape:showpageshadow="2"
     inkscape:pageopacity="0.0"
     inkscape:pagecheckerboard="0"
     inkscape:deskcolor="#d1d1d1"
     inkscape:document-units="px"
     showguides="true"
     inkscape:zoom="0.18958333"
     inkscape:cx="1197.3627"
     inkscape:cy="538.02199"
     inkscape:window-width="1920"
     inkscape:window-height="1017"
     inkscape:window-x="0"
     inkscape:window-y="0"
     inkscape:window-maximized="1"
     inkscape:current-layer="layer5"
     inkscape:export-bgcolor="#ffffff00" /><defs
     id="defs1"><inkscape:path-effect
       effect="offset"
       id="path-effect246"
       is_visible="true"
       lpeversion="1.2"
       linejoin_type="round"
       unit="px"
       offset="-24"
       miter_limit="4"
       attempt_force_join="true"
       update_on_knot_move="true" /><inkscape:path-effect
       effect="offset"
       id="path-effect237"
       is_visible="true"
       lpeversion="1.2"
       linejoin_type="miter"
       unit="px"
       offset="48"
       miter_limit="4"
       attempt_force_join="false"
       update_on_knot_move="true" /><inkscape:path-effect
       effect="offset"
       id="path-effect235"
       is_visible="true"
       lpeversion="1.2"
       linejoin_type="miter"
       unit="px"
       offset="-6"
       miter_limit="4"
       attempt_force_join="false"
       update_on_knot_move="true" /></defs><g
     inkscape:label="layout"
     inkscape:groupmode="layer"
     id="layer1"
     style="display:inline;opacity:1"
     sodipodi:insensitive="true"><rect
       style="fill:#aa87de;fill-opacity:1;stroke-width:1.27;stroke-linecap:round;paint-order:markers fill stroke"
       id="rect3"
       width="635"
       height="285.75003"
       x="0"
       y="-3.501758e-05" /><rect
       style="fill:#8d5fd3;fill-opacity:1;stroke-width:1.27;stroke-linecap:round;paint-order:markers fill stroke"
       id="rect5"
       width="428.625"
       height="285.75"
       x="103.18749"
       y="-2.2499999e-06" /><path
       id="path7"
       style="fill:#c87137;fill-opacity:1;stroke-width:3.175;paint-order:markers fill stroke"
       d="M 556.41874,70.643745 A 72.231247,72.231247 0 0 0 484.18749,142.875 72.231247,72.231247 0 0 0 556.41874,215.10625 72.231247,72.231247 0 0 0 628.64998,142.875 72.231247,72.231247 0 0 0 556.41874,70.643745 Z m 0,1.587498 A 70.643745,70.643745 0 0 1 627.06248,142.875 70.643745,70.643745 0 0 1 556.41874,213.51875 70.643745,70.643745 0 0 1 485.77499,142.875 70.643745,70.643745 0 0 1 556.41874,72.231243 Z" /><circle
       style="fill:#c87137;fill-opacity:1;stroke-width:3.175;paint-order:markers fill stroke"
       id="path25"
       cx="556.41876"
       cy="142.87498"
       r="65.881248" /><path
       id="circle26"
       style="fill:#5500d4;fill-opacity:1;stroke-width:3.175;paint-order:markers fill stroke"
       d="m 556.41873,76.993743 a 25.4,25.4 0 0 0 -25.39999,25.400007 25.4,25.4 0 0 0 25.39999,25.4 25.4,25.4 0 0 0 25.4,-25.4 25.4,25.4 0 0 0 -25.4,-25.400007 z m 0,1.58751 a 23.8125,23.8125 0 0 1 23.8125,23.812497 23.8125,23.8125 0 0 1 -23.8125,23.8125 23.8125,23.8125 0 0 1 -23.81249,-23.8125 23.8125,23.8125 0 0 1 23.81249,-23.812497 z" /><path
       id="path31"
       style="fill:#5500d4;fill-opacity:1;stroke-width:3.175;paint-order:markers fill stroke"
       d="m 556.41873,157.95625 a 25.4,25.4 0 0 0 -25.39999,25.4 25.4,25.4 0 0 0 25.39999,25.4 25.4,25.4 0 0 0 25.4,-25.4 25.4,25.4 0 0 0 -25.4,-25.4 z m 0,1.5875 a 23.8125,23.8125 0 0 1 23.8125,23.8125 23.8125,23.8125 0 0 1 -23.8125,23.8125 23.8125,23.8125 0 0 1 -23.81249,-23.8125 23.8125,23.8125 0 0 1 23.81249,-23.8125 z" /><path
       id="path32"
       style="fill:#5500d4;fill-opacity:1;stroke-width:3.175;paint-order:markers fill stroke"
       d="m 596.89999,117.475 a 25.4,25.4 0 0 0 -25.39999,25.4 25.4,25.4 0 0 0 25.39999,25.4 25.4,25.4 0 0 0 25.4,-25.4 25.4,25.4 0 0 0 -25.4,-25.4 z m 0,1.5875 a 23.8125,23.8125 0 0 1 23.8125,23.8125 23.8125,23.8125 0 0 1 -23.8125,23.8125 23.8125,23.8125 0 0 1 -23.81249,-23.8125 23.8125,23.8125 0 0 1 23.81249,-23.8125 z" /><path
       id="path33"
       style="fill:#5500d4;fill-opacity:1;stroke-width:3.175;paint-order:markers fill stroke"
       d="m 515.93748,117.475 a 25.4,25.4 0 0 0 -25.39999,25.4 25.4,25.4 0 0 0 25.39999,25.4 25.4,25.4 0 0 0 25.4,-25.4 25.4,25.4 0 0 0 -25.4,-25.4 z m 0,1.5875 a 23.8125,23.8125 0 0 1 23.8125,23.8125 23.8125,23.8125 0 0 1 -23.8125,23.8125 23.8125,23.8125 0 0 1 -23.81249,-23.8125 23.8125,23.8125 0 0 1 23.81249,-23.8125 z" /><path
       id="path34"
       style="fill:#5500d4;fill-opacity:1;stroke-width:3.175;paint-order:markers fill stroke"
       d="m 509.83366,96.289933 a 5.5562501,5.5562501 0 0 0 0,7.857717 5.5562501,5.5562501 0 0 0 7.85772,0 5.5562501,5.5562501 0 0 0 0,-7.857717 5.5562501,5.5562501 0 0 0 -7.85772,0 z m 1.12253,1.12253 a 3.96875,3.96875 0 0 1 5.61266,0 3.96875,3.96875 0 0 1 0,5.612657 3.96875,3.96875 0 0 1 -5.61266,-1e-5 3.96875,3.96875 0 0 1 0,-5.612647 z"
       inkscape:transform-center-x="42.656221"
       inkscape:transform-center-y="-42.656211" /><path
       id="path39"
       style="fill:#5500d4;fill-opacity:1;stroke-width:3.175;paint-order:markers fill stroke"
       d="m 509.83367,189.46008 a 5.5562501,5.5562501 0 0 0 7.85772,0 5.5562501,5.5562501 0 0 0 0,-7.85772 5.5562501,5.5562501 0 0 0 -7.85772,0 5.5562501,5.5562501 0 0 0 0,7.85772 z m 1.12253,-1.12253 a 3.96875,3.96875 0 0 1 0,-5.61266 3.96875,3.96875 0 0 1 5.61266,0 3.96875,3.96875 0 0 1 -10e-6,5.61266 3.96875,3.96875 0 0 1 -5.61265,0 z"
       inkscape:transform-center-x="42.656211"
       inkscape:transform-center-y="42.65622" /><path
       id="path40"
       style="fill:#5500d4;fill-opacity:1;stroke-width:3.175;paint-order:markers fill stroke"
       d="m 603.00382,189.46007 a 5.5562501,5.5562501 0 0 0 0,-7.85772 5.5562501,5.5562501 0 0 0 -7.85772,0 5.5562501,5.5562501 0 0 0 0,7.85772 5.5562501,5.5562501 0 0 0 7.85772,0 z m -1.12253,-1.12253 a 3.96875,3.96875 0 0 1 -5.61266,0 3.96875,3.96875 0 0 1 0,-5.61266 3.96875,3.96875 0 0 1 5.61266,10e-6 3.96875,3.96875 0 0 1 0,5.61265 z"
       inkscape:transform-center-x="-42.65622"
       inkscape:transform-center-y="42.65621" /><path
       id="path41"
       style="fill:#5500d4;fill-opacity:1;stroke-width:3.175;paint-order:markers fill stroke"
       d="m 603.00381,96.289923 a 5.5562501,5.5562501 0 0 0 -7.85772,0 5.5562501,5.5562501 0 0 0 0,7.857717 5.5562501,5.5562501 0 0 0 7.85772,0 5.5562501,5.5562501 0 0 0 0,-7.857717 z m -1.12253,1.12253 a 3.96875,3.96875 0 0 1 0,5.612657 3.96875,3.96875 0 0 1 -5.61266,0 3.96875,3.96875 0 0 1 10e-6,-5.612657 3.96875,3.96875 0 0 1 5.61265,0 z"
       inkscape:transform-center-x="-42.65621"
       inkscape:transform-center-y="-42.656221" /><path
       id="path43"
       style="fill:#ccff00;fill-opacity:1;stroke-width:3.175;paint-order:markers fill stroke"
       d="M 556.41873,15.08125 A 21.43125,21.43125 0 0 0 534.98749,36.5125 21.43125,21.43125 0 0 0 556.41873,57.94375 21.43125,21.43125 0 0 0 577.84998,36.5125 21.43125,21.43125 0 0 0 556.41873,15.08125 Z m 0,1.5875 A 19.84375,19.84375 0 0 1 576.26248,36.5125 19.84375,19.84375 0 0 1 556.41873,56.35625 19.84375,19.84375 0 0 1 536.57499,36.5125 19.84375,19.84375 0 0 1 556.41873,16.66875 Z" /><path
       id="circle43"
       style="display:inline;fill:#ccff00;fill-opacity:1;stroke-width:3.175;paint-order:markers fill stroke"
       d="M 556.41873,18.25625 A 18.25625,18.25625 0 0 0 538.16249,36.5125 18.25625,18.25625 0 0 0 556.41873,54.76875 18.25625,18.25625 0 0 0 574.67498,36.5125 18.25625,18.25625 0 0 0 556.41873,18.25625 Z m 0,1.5875 A 16.668749,16.668749 0 0 1 573.08748,36.5125 16.668749,16.668749 0 0 1 556.41873,53.18125 16.668749,16.668749 0 0 1 539.74999,36.5125 16.668749,16.668749 0 0 1 556.41873,19.84375 Z" /><path
       id="path46"
       style="fill:#ccff00;fill-opacity:1;stroke-width:3.175;paint-order:markers fill stroke"
       d="m 620.31561,32.202361 a 21.43125,21.43125 0 0 0 -29.27563,7.844387 21.43125,21.43125 0 0 0 7.84438,29.275627 21.43125,21.43125 0 0 0 29.27563,-7.844382 21.43125,21.43125 0 0 0 -7.84438,-29.275632 z m -0.79375,1.374816 a 19.84375,19.84375 0 0 1 7.26331,27.107066 19.84375,19.84375 0 0 1 -27.10706,7.263317 19.84375,19.84375 0 0 1 -7.26331,-27.107062 19.84375,19.84375 0 0 1 27.10706,-7.263321 z" /><path
       id="path47"
       style="display:inline;fill:#ccff00;fill-opacity:1;stroke-width:3.175;paint-order:markers fill stroke"
       d="m 618.72811,34.951992 a 18.25625,18.25625 0 0 0 -24.9385,6.682256 18.25625,18.25625 0 0 0 6.68225,24.938496 18.25625,18.25625 0 0 0 24.9385,-6.682251 18.25625,18.25625 0 0 0 -6.68225,-24.938501 z m -0.79375,1.374815 a 16.668749,16.668749 0 0 1 6.10118,22.769936 16.668749,16.668749 0 0 1 -22.76993,6.101186 16.668749,16.668749 0 0 1 -6.10118,-22.769931 16.668749,16.668749 0 0 1 22.76993,-6.101191 z" /><path
       id="path48"
       style="fill:#ccff00;fill-opacity:1;stroke-width:3.175;paint-order:markers fill stroke"
       d="m 492.52186,32.202371 a 21.43125,21.43125 0 0 0 -7.84438,29.275627 21.43125,21.43125 0 0 0 29.27563,7.844387 21.43125,21.43125 0 0 0 7.84438,-29.275632 21.43125,21.43125 0 0 0 -29.27563,-7.844382 z m 0.79375,1.374816 a 19.84375,19.84375 0 0 1 27.10706,7.263316 19.84375,19.84375 0 0 1 -7.26331,27.107067 19.84375,19.84375 0 0 1 -27.10706,-7.263322 19.84375,19.84375 0 0 1 7.26331,-27.107061 z" /><path
       id="path49"
       style="display:inline;fill:#ccff00;fill-opacity:1;stroke-width:3.175;paint-order:markers fill stroke"
       d="m 494.10936,34.952002 a 18.25625,18.25625 0 0 0 -6.68225,24.938496 18.25625,18.25625 0 0 0 24.9385,6.682256 18.25625,18.25625 0 0 0 6.68225,-24.938501 18.25625,18.25625 0 0 0 -24.9385,-6.682251 z m 0.79375,1.374815 a 16.668749,16.668749 0 0 1 22.76993,6.101186 16.668749,16.668749 0 0 1 -6.10118,22.769936 16.668749,16.668749 0 0 1 -22.76993,-6.101191 16.668749,16.668749 0 0 1 6.10118,-22.769931 z" /><path
       id="path64"
       style="fill:#c87137;fill-opacity:1;stroke-width:3.175;paint-order:markers fill stroke"
       d="M 78.58125,70.643745 A 72.231247,72.231247 0 0 0 6.35,142.875 72.231247,72.231247 0 0 0 78.58125,215.10625 72.231247,72.231247 0 0 0 150.81249,142.875 72.231247,72.231247 0 0 0 78.58125,70.643745 Z m 0,1.587498 A 70.643745,70.643745 0 0 1 149.22499,142.875 70.643745,70.643745 0 0 1 78.58125,213.51875 70.643745,70.643745 0 0 1 7.9375,142.875 70.643745,70.643745 0 0 1 78.58125,72.231243 Z" /><circle
       style="fill:#c87137;fill-opacity:1;stroke-width:3.175;paint-order:markers fill stroke"
       id="circle64"
       cx="78.581253"
       cy="142.87498"
       r="65.881248" /><path
       id="path65"
       style="fill:#5500d4;fill-opacity:1;stroke-width:3.175;paint-order:markers fill stroke"
       d="m 78.58124,76.993743 a 25.4,25.4 0 0 0 -25.39999,25.400007 25.4,25.4 0 0 0 25.39999,25.4 25.4,25.4 0 0 0 25.4,-25.4 25.4,25.4 0 0 0 -25.4,-25.400007 z m 0,1.58751 a 23.8125,23.8125 0 0 1 23.8125,23.812497 23.8125,23.8125 0 0 1 -23.8125,23.8125 23.8125,23.8125 0 0 1 -23.81249,-23.8125 23.8125,23.8125 0 0 1 23.81249,-23.812497 z" /><path
       id="path66"
       style="fill:#5500d4;fill-opacity:1;stroke-width:3.175;paint-order:markers fill stroke"
       d="m 78.58124,157.95625 a 25.4,25.4 0 0 0 -25.39999,25.4 25.4,25.4 0 0 0 25.39999,25.4 25.4,25.4 0 0 0 25.4,-25.4 25.4,25.4 0 0 0 -25.4,-25.4 z m 0,1.5875 a 23.8125,23.8125 0 0 1 23.8125,23.8125 23.8125,23.8125 0 0 1 -23.8125,23.8125 23.8125,23.8125 0 0 1 -23.81249,-23.8125 23.8125,23.8125 0 0 1 23.81249,-23.8125 z" /><path
       id="path71"
       style="fill:#5500d4;fill-opacity:1;stroke-width:3.175;paint-order:markers fill stroke"
       d="m 119.0625,117.475 a 25.4,25.4 0 0 0 -25.39999,25.4 25.4,25.4 0 0 0 25.39999,25.4 25.4,25.4 0 0 0 25.4,-25.4 25.4,25.4 0 0 0 -25.4,-25.4 z m 0,1.5875 A 23.8125,23.8125 0 0 1 142.875,142.875 23.8125,23.8125 0 0 1 119.0625,166.6875 23.8125,23.8125 0 0 1 95.25001,142.875 23.8125,23.8125 0 0 1 119.0625,119.0625 Z" /><path
       id="path72"
       style="fill:#5500d4;fill-opacity:1;stroke-width:3.175;paint-order:markers fill stroke"
       d="m 38.09999,117.475 a 25.4,25.4 0 0 0 -25.39999,25.4 25.4,25.4 0 0 0 25.39999,25.4 25.4,25.4 0 0 0 25.4,-25.4 25.4,25.4 0 0 0 -25.4,-25.4 z m 0,1.5875 A 23.8125,23.8125 0 0 1 61.91249,142.875 23.8125,23.8125 0 0 1 38.09999,166.6875 23.8125,23.8125 0 0 1 14.2875,142.875 23.8125,23.8125 0 0 1 38.09999,119.0625 Z" /><path
       id="path73"
       style="fill:#5500d4;fill-opacity:1;stroke-width:3.175;paint-order:markers fill stroke"
       d="m 31.99617,96.289933 a 5.5562501,5.5562501 0 0 0 0,7.857717 5.5562501,5.5562501 0 0 0 7.85772,0 5.5562501,5.5562501 0 0 0 0,-7.857717 5.5562501,5.5562501 0 0 0 -7.85772,0 z m 1.12253,1.12253 a 3.96875,3.96875 0 0 1 5.61266,0 3.96875,3.96875 0 0 1 0,5.612657 3.96875,3.96875 0 0 1 -5.61266,-1e-5 3.96875,3.96875 0 0 1 0,-5.612647 z"
       inkscape:transform-center-x="42.656221"
       inkscape:transform-center-y="-42.656211" /><path
       id="path74"
       style="fill:#5500d4;fill-opacity:1;stroke-width:3.175;paint-order:markers fill stroke"
       d="m 31.99618,189.46008 a 5.5562501,5.5562501 0 0 0 7.85772,0 5.5562501,5.5562501 0 0 0 0,-7.85772 5.5562501,5.5562501 0 0 0 -7.85772,0 5.5562501,5.5562501 0 0 0 0,7.85772 z m 1.12253,-1.12253 a 3.96875,3.96875 0 0 1 0,-5.61266 3.96875,3.96875 0 0 1 5.61266,0 3.96875,3.96875 0 0 1 -10e-6,5.61266 3.96875,3.96875 0 0 1 -5.61265,0 z"
       inkscape:transform-center-x="42.656211"
       inkscape:transform-center-y="42.65622" /><path
       id="path75"
       style="fill:#5500d4;fill-opacity:1;stroke-width:3.175;paint-order:markers fill stroke"
       d="m 125.16633,189.46007 a 5.5562501,5.5562501 0 0 0 0,-7.85772 5.5562501,5.5562501 0 0 0 -7.85772,0 5.5562501,5.5562501 0 0 0 0,7.85772 5.5562501,5.5562501 0 0 0 7.85772,0 z m -1.12253,-1.12253 a 3.96875,3.96875 0 0 1 -5.61266,0 3.96875,3.96875 0 0 1 0,-5.61266 3.96875,3.96875 0 0 1 5.61266,10e-6 3.96875,3.96875 0 0 1 0,5.61265 z"
       inkscape:transform-center-x="-42.65622"
       inkscape:transform-center-y="42.65621" /><path
       id="path76"
       style="fill:#5500d4;fill-opacity:1;stroke-width:3.175;paint-order:markers fill stroke"
       d="m 125.16632,96.289923 a 5.5562501,5.5562501 0 0 0 -7.85772,0 5.5562501,5.5562501 0 0 0 0,7.857717 5.5562501,5.5562501 0 0 0 7.85772,0 5.5562501,5.5562501 0 0 0 0,-7.857717 z m -1.12253,1.12253 a 3.96875,3.96875 0 0 1 0,5.612657 3.96875,3.96875 0 0 1 -5.61266,0 3.96875,3.96875 0 0 1 1e-5,-5.612657 3.96875,3.96875 0 0 1 5.61265,0 z"
       inkscape:transform-center-x="-42.65621"
       inkscape:transform-center-y="-42.656221" /><path
       id="path77"
       style="fill:#ccff00;fill-opacity:1;stroke-width:3.175;paint-order:markers fill stroke"
       d="M 78.58124,15.08125 A 21.43125,21.43125 0 0 0 57.15,36.5125 21.43125,21.43125 0 0 0 78.58124,57.94375 21.43125,21.43125 0 0 0 100.01249,36.5125 21.43125,21.43125 0 0 0 78.58124,15.08125 Z m 0,1.5875 A 19.84375,19.84375 0 0 1 98.42499,36.5125 19.84375,19.84375 0 0 1 78.58124,56.35625 19.84375,19.84375 0 0 1 58.7375,36.5125 19.84375,19.84375 0 0 1 78.58124,16.66875 Z" /><path
       id="path78"
       style="display:inline;fill:#ccff00;fill-opacity:1;stroke-width:3.175;paint-order:markers fill stroke"
       d="M 78.58124,18.25625 A 18.25625,18.25625 0 0 0 60.325,36.5125 18.25625,18.25625 0 0 0 78.58124,54.76875 18.25625,18.25625 0 0 0 96.83749,36.5125 18.25625,18.25625 0 0 0 78.58124,18.25625 Z m 0,1.5875 A 16.668749,16.668749 0 0 1 95.24999,36.5125 16.668749,16.668749 0 0 1 78.58124,53.18125 16.668749,16.668749 0 0 1 61.9125,36.5125 16.668749,16.668749 0 0 1 78.58124,19.84375 Z" /><path
       id="path79"
       style="fill:#ccff00;fill-opacity:1;stroke-width:3.175;paint-order:markers fill stroke"
       d="m 142.47812,32.202361 a 21.43125,21.43125 0 0 0 -29.27563,7.844387 21.43125,21.43125 0 0 0 7.84438,29.275627 21.43125,21.43125 0 0 0 29.27563,-7.844382 21.43125,21.43125 0 0 0 -7.84438,-29.275632 z m -0.79375,1.374816 a 19.84375,19.84375 0 0 1 7.26331,27.107066 19.84375,19.84375 0 0 1 -27.10706,7.263317 19.84375,19.84375 0 0 1 -7.26331,-27.107062 19.84375,19.84375 0 0 1 27.10706,-7.263321 z" /><path
       id="path80"
       style="display:inline;fill:#ccff00;fill-opacity:1;stroke-width:3.175;paint-order:markers fill stroke"
       d="m 140.89062,34.951992 a 18.25625,18.25625 0 0 0 -24.9385,6.682256 18.25625,18.25625 0 0 0 6.68225,24.938496 18.25625,18.25625 0 0 0 24.9385,-6.682251 18.25625,18.25625 0 0 0 -6.68225,-24.938501 z m -0.79375,1.374815 a 16.668749,16.668749 0 0 1 6.10118,22.769936 16.668749,16.668749 0 0 1 -22.76993,6.101186 16.668749,16.668749 0 0 1 -6.10118,-22.769931 16.668749,16.668749 0 0 1 22.76993,-6.101191 z" /><path
       id="path81"
       style="fill:#ccff00;fill-opacity:1;stroke-width:3.175;paint-order:markers fill stroke"
       d="M 14.68437,32.202371 A 21.43125,21.43125 0 0 0 6.83999,61.477998 21.43125,21.43125 0 0 0 36.11562,69.322385 21.43125,21.43125 0 0 0 43.96,40.046753 21.43125,21.43125 0 0 0 14.68437,32.202371 Z m 0.79375,1.374816 A 19.84375,19.84375 0 0 1 42.58518,40.840503 19.84375,19.84375 0 0 1 35.32187,67.94757 19.84375,19.84375 0 0 1 8.21481,60.684248 19.84375,19.84375 0 0 1 15.47812,33.577187 Z" /><path
       id="path82"
       style="display:inline;fill:#ccff00;fill-opacity:1;stroke-width:3.175;paint-order:markers fill stroke"
       d="m 16.27187,34.952002 a 18.25625,18.25625 0 0 0 -6.68225,24.938496 18.25625,18.25625 0 0 0 24.9385,6.682256 18.25625,18.25625 0 0 0 6.68225,-24.938501 18.25625,18.25625 0 0 0 -24.9385,-6.682251 z m 0.79375,1.374815 a 16.668749,16.668749 0 0 1 22.76993,6.101186 16.668749,16.668749 0 0 1 -6.10118,22.769936 16.668749,16.668749 0 0 1 -22.76993,-6.101191 16.668749,16.668749 0 0 1 6.10118,-22.769931 z" /><g
       id="g113"
       style="fill:#ffff00;fill-opacity:1"
       transform="translate(-271.47438,123.88236)"><path
         id="path112"
         style="fill:#ffff00;fill-opacity:1;stroke-width:3.175;paint-order:markers fill stroke"
         d="m 293.69938,123.76764 a 15.875,15.875 0 0 0 -15.875,15.875 15.875,15.875 0 0 0 15.875,15.875 15.875,15.875 0 0 0 15.875,-15.875 15.875,15.875 0 0 0 -15.875,-15.875 z m 0,1.5875 a 14.287499,14.287499 0 0 1 14.2875,14.2875 14.287499,14.287499 0 0 1 -14.2875,14.2875 14.287499,14.287499 0 0 1 -14.2875,-14.2875 14.287499,14.287499 0 0 1 14.2875,-14.2875 z" /><path
         id="circle112"
         style="display:inline;fill:#ffff00;fill-opacity:1;stroke-width:3.175;paint-order:markers fill stroke"
         d="m 293.69938,126.94264 a 12.7,12.7 0 0 0 -12.7,12.7 12.7,12.7 0 0 0 12.7,12.7 12.7,12.7 0 0 0 12.7,-12.7 12.7,12.7 0 0 0 -12.7,-12.7 z m 0,1.5875 a 11.1125,11.1125 0 0 1 11.1125,11.1125 11.1125,11.1125 0 0 1 -11.1125,11.1125 11.1125,11.1125 0 0 1 -11.1125,-11.1125 11.1125,11.1125 0 0 1 11.1125,-11.1125 z" /></g><g
       id="g114"
       style="fill:#ffff00;fill-opacity:1"
       transform="translate(319.07561,123.88236)"><path
         id="path113"
         style="fill:#ffff00;fill-opacity:1;stroke-width:3.175;paint-order:markers fill stroke"
         d="m 293.69938,123.76764 a 15.875,15.875 0 0 0 -15.875,15.875 15.875,15.875 0 0 0 15.875,15.875 15.875,15.875 0 0 0 15.875,-15.875 15.875,15.875 0 0 0 -15.875,-15.875 z m 0,1.5875 a 14.287499,14.287499 0 0 1 14.2875,14.2875 14.287499,14.287499 0 0 1 -14.2875,14.2875 14.287499,14.287499 0 0 1 -14.2875,-14.2875 14.287499,14.287499 0 0 1 14.2875,-14.2875 z" /><path
         id="path114"
         style="display:inline;fill:#ffff00;fill-opacity:1;stroke-width:3.175;paint-order:markers fill stroke"
         d="m 293.69938,126.94264 a 12.7,12.7 0 0 0 -12.7,12.7 12.7,12.7 0 0 0 12.7,12.7 12.7,12.7 0 0 0 12.7,-12.7 12.7,12.7 0 0 0 -12.7,-12.7 z m 0,1.5875 a 11.1125,11.1125 0 0 1 11.1125,11.1125 11.1125,11.1125 0 0 1 -11.1125,11.1125 11.1125,11.1125 0 0 1 -11.1125,-11.1125 11.1125,11.1125 0 0 1 11.1125,-11.1125 z" /></g><g
       id="g116"
       style="fill:#ffff00;fill-opacity:1"
       transform="translate(-74.624383,-117.41764)"><path
         id="path115"
         style="fill:#ffff00;fill-opacity:1;stroke-width:3.175;paint-order:markers fill stroke"
         d="m 293.69938,123.76764 a 15.875,15.875 0 0 0 -15.875,15.875 15.875,15.875 0 0 0 15.875,15.875 15.875,15.875 0 0 0 15.875,-15.875 15.875,15.875 0 0 0 -15.875,-15.875 z m 0,1.5875 a 14.287499,14.287499 0 0 1 14.2875,14.2875 14.287499,14.287499 0 0 1 -14.2875,14.2875 14.287499,14.287499 0 0 1 -14.2875,-14.2875 14.287499,14.287499 0 0 1 14.2875,-14.2875 z" /><path
         id="path116"
         style="display:inline;fill:#ffff00;fill-opacity:1;stroke-width:3.175;paint-order:markers fill stroke"
         d="m 293.69938,126.94264 a 12.7,12.7 0 0 0 -12.7,12.7 12.7,12.7 0 0 0 12.7,12.7 12.7,12.7 0 0 0 12.7,-12.7 12.7,12.7 0 0 0 -12.7,-12.7 z m 0,1.5875 a 11.1125,11.1125 0 0 1 11.1125,11.1125 11.1125,11.1125 0 0 1 -11.1125,11.1125 11.1125,11.1125 0 0 1 -11.1125,-11.1125 11.1125,11.1125 0 0 1 11.1125,-11.1125 z" /></g><g
       id="g118"
       style="fill:#ffff00;fill-opacity:1"
       transform="translate(122.22561,-117.41764)"><path
         id="path117"
         style="fill:#ffff00;fill-opacity:1;stroke-width:3.175;paint-order:markers fill stroke"
         d="m 293.69938,123.76764 a 15.875,15.875 0 0 0 -15.875,15.875 15.875,15.875 0 0 0 15.875,15.875 15.875,15.875 0 0 0 15.875,-15.875 15.875,15.875 0 0 0 -15.875,-15.875 z m 0,1.5875 a 14.287499,14.287499 0 0 1 14.2875,14.2875 14.287499,14.287499 0 0 1 -14.2875,14.2875 14.287499,14.287499 0 0 1 -14.2875,-14.2875 14.287499,14.287499 0 0 1 14.2875,-14.2875 z" /><path
         id="path118"
         style="display:inline;fill:#ffff00;fill-opacity:1;stroke-width:3.175;paint-order:markers fill stroke"
         d="m 293.69938,126.94264 a 12.7,12.7 0 0 0 -12.7,12.7 12.7,12.7 0 0 0 12.7,12.7 12.7,12.7 0 0 0 12.7,-12.7 12.7,12.7 0 0 0 -12.7,-12.7 z m 0,1.5875 a 11.1125,11.1125 0 0 1 11.1125,11.1125 11.1125,11.1125 0 0 1 -11.1125,11.1125 11.1125,11.1125 0 0 1 -11.1125,-11.1125 11.1125,11.1125 0 0 1 11.1125,-11.1125 z" /></g></g><g
     inkscape:groupmode="layer"
     id="layer2"
     inkscape:label="backlit"
     inkscape:highlight-color="#8736a9"
     style="display:none;opacity:1"
     sodipodi:insensitive="true"><circle
       style="fill:#71c837;fill-opacity:0.998008;stroke-width:0.264583;paint-order:markers fill stroke"
       id="path2"
       cx="22.225"
       cy="263.52499"
       r="12.7" /><circle
       style="fill:#71c837;fill-opacity:0.998008;stroke-width:0.264583;paint-order:markers fill stroke"
       id="circle2"
       cx="219.075"
       cy="22.225"
       r="12.7" /><circle
       style="fill:#71c837;fill-opacity:0.998008;stroke-width:0.264583;paint-order:markers fill stroke"
       id="circle3"
       cx="415.92499"
       cy="22.225"
       r="12.7" /><circle
       style="fill:#71c837;fill-opacity:0.998008;stroke-width:0.264583;paint-order:markers fill stroke"
       id="circle4"
       cx="612.77496"
       cy="263.52499"
       r="12.7" /><circle
       style="fill:#71c837;fill-opacity:1;stroke-width:3.175;paint-order:markers fill stroke"
       id="path87"
       cx="25.399996"
       cy="50.762371"
       r="18.256248" /><circle
       style="fill:#71c837;fill-opacity:1;stroke-width:3.175;paint-order:markers fill stroke"
       id="circle87"
       cx="78.581245"
       cy="36.512493"
       r="18.256248" /><circle
       style="fill:#71c837;fill-opacity:1;stroke-width:3.175;paint-order:markers fill stroke"
       id="circle88"
       cx="131.7625"
       cy="50.762363"
       r="18.256248" /><circle
       style="fill:#71c837;fill-opacity:1;stroke-width:3.175;paint-order:markers fill stroke"
       id="circle89"
       cx="503.23749"
       cy="50.762371"
       r="18.256248" /><circle
       style="fill:#71c837;fill-opacity:1;stroke-width:3.175;paint-order:markers fill stroke"
       id="circle90"
       cx="556.41876"
       cy="36.512493"
       r="18.256248" /><circle
       style="fill:#71c837;fill-opacity:1;stroke-width:3.175;paint-order:markers fill stroke"
       id="circle91"
       cx="609.59998"
       cy="50.762363"
       r="18.256248" /><circle
       style="fill:#71c837;fill-opacity:1;stroke-width:3.17499;paint-order:markers fill stroke"
       id="circle92"
       cx="35.92503"
       cy="100.21879"
       r="5.5562501" /><circle
       style="fill:#71c837;fill-opacity:1;stroke-width:3.17499;paint-order:markers fill stroke"
       id="circle93"
       cx="121.23746"
       cy="100.21877"
       r="5.5562501" /><circle
       style="fill:#71c837;fill-opacity:1;stroke-width:3.17499;paint-order:markers fill stroke"
       id="circle94"
       cx="121.23747"
       cy="185.5312"
       r="5.5562501" /><circle
       style="fill:#71c837;fill-opacity:1;stroke-width:3.17499;paint-order:markers fill stroke"
       id="circle95"
       cx="35.925045"
       cy="185.53122"
       r="5.5562501" /><circle
       style="fill:#71c837;fill-opacity:1;stroke-width:3.17499;paint-order:markers fill stroke"
       id="circle96"
       cx="78.581245"
       cy="102.39373"
       r="25.4" /><circle
       style="fill:#71c837;fill-opacity:1;stroke-width:3.17499;paint-order:markers fill stroke"
       id="circle97"
       cx="78.581245"
       cy="183.35625"
       r="25.4" /><circle
       style="fill:#71c837;fill-opacity:1;stroke-width:3.17499;paint-order:markers fill stroke"
       id="circle98"
       cx="38.099995"
       cy="142.875"
       r="25.4" /><circle
       style="fill:#71c837;fill-opacity:1;stroke-width:3.17499;paint-order:markers fill stroke"
       id="circle99"
       cx="119.06251"
       cy="142.875"
       r="25.4" /><circle
       style="fill:#71c837;fill-opacity:1;stroke-width:3.17499;paint-order:markers fill stroke"
       id="circle100"
       cx="513.76251"
       cy="100.2188"
       r="5.5562501" /><circle
       style="fill:#71c837;fill-opacity:1;stroke-width:3.17499;paint-order:markers fill stroke"
       id="circle101"
       cx="599.07495"
       cy="100.21878"
       r="5.5562501" /><circle
       style="fill:#71c837;fill-opacity:1;stroke-width:3.17499;paint-order:markers fill stroke"
       id="circle102"
       cx="599.07489"
       cy="185.5312"
       r="5.5562501" /><circle
       style="fill:#71c837;fill-opacity:1;stroke-width:3.17499;paint-order:markers fill stroke"
       id="circle103"
       cx="513.76251"
       cy="185.53122"
       r="5.5562501" /><circle
       style="fill:#71c837;fill-opacity:1;stroke-width:3.17499;paint-order:markers fill stroke"
       id="circle104"
       cx="556.41876"
       cy="102.39374"
       r="25.4" /><circle
       style="fill:#71c837;fill-opacity:1;stroke-width:3.17499;paint-order:markers fill stroke"
       id="circle105"
       cx="556.41876"
       cy="183.35625"
       r="25.4" /><circle
       style="fill:#71c837;fill-opacity:1;stroke-width:3.17499;paint-order:markers fill stroke"
       id="circle106"
       cx="515.9375"
       cy="142.875"
       r="25.4" /><circle
       style="fill:#71c837;fill-opacity:1;stroke-width:3.17499;paint-order:markers fill stroke"
       id="circle107"
       cx="596.90002"
       cy="142.875"
       r="25.4" /></g><g
     inkscape:groupmode="layer"
     id="layer5"
     inkscape:label="buttons"
     style="display:none;opacity:1"
     sodipodi:insensitive="true"><title
       id="title1">stop</title><title
       id="title1-7">fast-forward</title><title
       id="title1-8">play</title><title
       id="title1-1">open-in-app</title><title
       id="title1-9">content-save</title><title
       id="title1-5">menu</title><title
       id="title1-6">triangle-outline</title><title
       id="title1-2">square</title><title
       id="title1-07">square-outline</title><title
       id="title1-4">circle-outline</title><title
       id="title1-20">close</title><title
       id="title1-64">window-close</title><title
       id="title1-0">content-save-outline</title><title
       id="title1-15">triangle</title><g
       id="g125"><path
         d="m 607.21874,259.82084 h 11.1125 v 1.23474 h -11.1125 v -1.23474 m 0,3.0868 h 11.1125 v 1.23472 h -11.1125 v -1.23472 m 0,3.08679 h 11.1125 v 1.23473 h -11.1125 z"
         id="path37"
         style="fill:#ffffff;stroke:none;stroke-width:0.264582" /><path
         id="path113-3"
         style="fill:#ffffff;fill-opacity:0.3;stroke:none;stroke-width:3.175;paint-order:markers fill stroke"
         d="m 612.77499,247.65 a 15.875,15.875 0 0 0 -15.875,15.875 15.875,15.875 0 0 0 15.875,15.875 15.875,15.875 0 0 0 15.875,-15.875 15.875,15.875 0 0 0 -15.875,-15.875 z m 0,1.5875 a 14.287499,14.287499 0 0 1 14.2875,14.2875 14.287499,14.287499 0 0 1 -14.2875,14.2875 14.287499,14.287499 0 0 1 -14.2875,-14.2875 14.287499,14.287499 0 0 1 14.2875,-14.2875 z" /><path
         id="path114-9"
         style="display:inline;fill:#ffffff;fill-opacity:1;stroke:none;stroke-width:3.175;paint-order:markers fill stroke"
         d="m 612.77499,250.825 a 12.7,12.7 0 0 0 -12.7,12.7 12.7,12.7 0 0 0 12.7,12.7 12.7,12.7 0 0 0 12.7,-12.7 12.7,12.7 0 0 0 -12.7,-12.7 z m 0,1.5875 a 11.1125,11.1125 0 0 1 11.1125,11.1125 11.1125,11.1125 0 0 1 -11.1125,11.1125 11.1125,11.1125 0 0 1 -11.1125,-11.1125 11.1125,11.1125 0 0 1 11.1125,-11.1125 z" /></g><g
       id="g123"
       transform="translate(0,-241.3)"><path
         d="m 219.07499,262.29028 -2.46944,2.46945 h 1.8521 v 3.70416 h 1.23473 v -3.70416 h 1.85207 m 1.85209,-6.17362 h -8.64308 c -0.68528,0 -1.23471,0.55561 -1.23471,1.23469 v 7.40837 a 1.2347251,1.2347251 0 0 0 1.23471,1.23472 h 2.46946 v -1.23472 h -2.46946 v -6.17362 h 8.64308 v 6.17362 h -2.46947 v 1.23472 h 2.46947 a 1.2347251,1.2347251 0 0 0 1.23471,-1.23472 v -7.40837 a 1.2347251,1.2347251 0 0 0 -1.23471,-1.23469 z"
         id="path35"
         style="fill:#ffffff;stroke:none;stroke-width:0.264583" /><path
         id="path115-8"
         style="fill:#ffffff;fill-opacity:0.3;stroke:none;stroke-width:3.175;paint-order:markers fill stroke"
         d="M 219.075,247.65 A 15.875,15.875 0 0 0 203.2,263.525 15.875,15.875 0 0 0 219.075,279.4 15.875,15.875 0 0 0 234.95,263.525 15.875,15.875 0 0 0 219.075,247.65 Z m 0,1.5875 a 14.287499,14.287499 0 0 1 14.2875,14.2875 14.287499,14.287499 0 0 1 -14.2875,14.2875 14.287499,14.287499 0 0 1 -14.2875,-14.2875 14.287499,14.287499 0 0 1 14.2875,-14.2875 z" /><path
         id="path116-1"
         style="display:inline;fill:#ffffff;fill-opacity:1;stroke:none;stroke-width:3.175;paint-order:markers fill stroke"
         d="m 219.075,250.825 a 12.7,12.7 0 0 0 -12.7,12.7 12.7,12.7 0 0 0 12.7,12.7 12.7,12.7 0 0 0 12.7,-12.7 12.7,12.7 0 0 0 -12.7,-12.7 z m 0,1.5875 a 11.1125,11.1125 0 0 1 11.1125,11.1125 11.1125,11.1125 0 0 1 -11.1125,11.1125 11.1125,11.1125 0 0 1 -11.1125,-11.1125 11.1125,11.1125 0 0 1 11.1125,-11.1125 z" /></g><g
       id="g124"
       transform="translate(0,-241.3)"><path
         d="m 417.77708,261.67293 h -6.1736 v -2.46945 h 6.1736 m -1.85209,8.64304 a 1.8520824,1.8520824 0 0 1 -1.85207,-1.85208 1.8520824,1.8520824 0 0 1 1.85207,-1.85209 1.8520824,1.8520824 0 0 1 1.85209,1.85209 1.8520824,1.8520824 0 0 1 -1.85209,1.85208 m 3.08682,-9.87777 h -7.40833 c -0.68529,0 -1.23474,0.55565 -1.23474,1.23473 v 8.64304 a 1.2347215,1.2347215 0 0 0 1.23474,1.23472 h 8.64302 a 1.2347215,1.2347215 0 0 0 1.23474,-1.23472 v -7.40835 z"
         id="path36"
         style="fill:#ffffff;stroke:none;stroke-width:0.264583" /><path
         id="path117-9"
         style="fill:#ffffff;fill-opacity:0.3;stroke:none;stroke-width:3.175;paint-order:markers fill stroke"
         d="m 415.92499,247.65 a 15.875,15.875 0 0 0 -15.875,15.875 15.875,15.875 0 0 0 15.875,15.875 15.875,15.875 0 0 0 15.875,-15.875 15.875,15.875 0 0 0 -15.875,-15.875 z m 0,1.5875 a 14.287499,14.287499 0 0 1 14.2875,14.2875 14.287499,14.287499 0 0 1 -14.2875,14.2875 14.287499,14.287499 0 0 1 -14.2875,-14.2875 14.287499,14.287499 0 0 1 14.2875,-14.2875 z" /><path
         id="path118-3"
         style="display:inline;fill:#ffffff;fill-opacity:1;stroke:none;stroke-width:3.175;paint-order:markers fill stroke"
         d="m 415.92499,250.825 a 12.7,12.7 0 0 0 -12.7,12.7 12.7,12.7 0 0 0 12.7,12.7 12.7,12.7 0 0 0 12.7,-12.7 12.7,12.7 0 0 0 -12.7,-12.7 z m 0,1.5875 a 11.1125,11.1125 0 0 1 11.1125,11.1125 11.1125,11.1125 0 0 1 -11.1125,11.1125 11.1125,11.1125 0 0 1 -11.1125,-11.1125 11.1125,11.1125 0 0 1 11.1125,-11.1125 z" /></g><g
       id="g122"><path
         id="path112-6"
         style="fill:#ffffff;fill-opacity:0.3;stroke:none;stroke-width:3.175;paint-order:markers fill stroke"
         d="M 22.225,247.65 A 15.875,15.875 0 0 0 6.35,263.525 15.875,15.875 0 0 0 22.225,279.4 15.875,15.875 0 0 0 38.1,263.525 15.875,15.875 0 0 0 22.225,247.65 Z m 0,1.5875 A 14.287499,14.287499 0 0 1 36.5125,263.525 14.287499,14.287499 0 0 1 22.225,277.8125 14.287499,14.287499 0 0 1 7.9375,263.525 14.287499,14.287499 0 0 1 22.225,249.2375 Z" /><path
         id="circle112-5"
         style="display:inline;fill:#ffffff;fill-opacity:1;stroke:none;stroke-width:3.175;paint-order:markers fill stroke"
         d="m 22.225,250.825 a 12.7,12.7 0 0 0 -12.7,12.7 12.7,12.7 0 0 0 12.7,12.7 12.7,12.7 0 0 0 12.7,-12.7 12.7,12.7 0 0 0 -12.7,-12.7 z m 0,1.5875 A 11.1125,11.1125 0 0 1 33.3375,263.525 11.1125,11.1125 0 0 1 22.225,274.6375 11.1125,11.1125 0 0 1 11.1125,263.525 11.1125,11.1125 0 0 1 22.225,252.4125 Z" /><path
         d="m 23.283335,259.715 v 7.62001 l 5.397499,-3.81 m -11.112499,3.81 5.397501,-3.81 -5.397501,-3.81 z"
         id="path38"
         style="fill:#ffffff;stroke:none;stroke-width:0.264583" /></g><g
       id="g135"><text
         xml:space="preserve"
         style="font-style:normal;font-variant:normal;font-weight:bold;font-stretch:normal;font-size:16.9333px;line-height:19.4255px;font-family:Roboto;-inkscape-font-specification:'Roboto, Bold';font-variant-ligatures:none;font-variant-caps:normal;font-variant-numeric:normal;font-variant-east-asian:normal;text-align:center;letter-spacing:0px;word-spacing:0px;text-anchor:middle;display:inline;fill:#ffffff;fill-opacity:0.957675;stroke:none;stroke-width:0.264583;stroke-linecap:round;stroke-dasharray:none;stroke-opacity:1;paint-order:stroke fill markers"
         x="557.42743"
         y="42.540028"
         id="text278-36"><tspan
           sodipodi:role="line"
           id="tspan278-5"
           style="font-style:normal;font-variant:normal;font-weight:bold;font-stretch:normal;font-size:16.9333px;font-family:Roboto;-inkscape-font-specification:'Roboto, Bold';font-variant-ligatures:none;font-variant-caps:normal;font-variant-numeric:normal;font-variant-east-asian:normal;fill:#ffffff;fill-opacity:0.957675;stroke-width:0.264583"
           x="557.42743"
           y="42.540028">R1</tspan></text><path
         id="path43-8"
         style="display:inline;fill:#ffffff;fill-opacity:0.3;stroke-width:3.175;paint-order:markers fill stroke"
         d="M 556.41873,15.08125 A 21.43125,21.43125 0 0 0 534.98749,36.5125 21.43125,21.43125 0 0 0 556.41873,57.94375 21.43125,21.43125 0 0 0 577.84998,36.5125 21.43125,21.43125 0 0 0 556.41873,15.08125 Z m 0,1.5875 A 19.84375,19.84375 0 0 1 576.26248,36.5125 19.84375,19.84375 0 0 1 556.41873,56.35625 19.84375,19.84375 0 0 1 536.57499,36.5125 19.84375,19.84375 0 0 1 556.41873,16.66875 Z" /><path
         id="circle43-9"
         style="display:inline;fill:#ffffff;fill-opacity:1;stroke-width:3.175;paint-order:markers fill stroke"
         d="M 556.41873,18.25625 A 18.25625,18.25625 0 0 0 538.16249,36.5125 18.25625,18.25625 0 0 0 556.41873,54.76875 18.25625,18.25625 0 0 0 574.67498,36.5125 18.25625,18.25625 0 0 0 556.41873,18.25625 Z m 0,1.5875 A 16.668749,16.668749 0 0 1 573.08748,36.5125 16.668749,16.668749 0 0 1 556.41873,53.18125 16.668749,16.668749 0 0 1 539.74999,36.5125 16.668749,16.668749 0 0 1 556.41873,19.84375 Z" /></g><g
       id="g134"><text
         xml:space="preserve"
         style="font-style:normal;font-variant:normal;font-weight:bold;font-stretch:normal;font-size:16.9333px;line-height:19.4255px;font-family:Roboto;-inkscape-font-specification:'Roboto, Bold';font-variant-ligatures:none;font-variant-caps:normal;font-variant-numeric:normal;font-variant-east-asian:normal;text-align:center;letter-spacing:0px;word-spacing:0px;text-anchor:middle;display:inline;fill:#ffffff;fill-opacity:0.957675;stroke:none;stroke-width:0.264583;stroke-linecap:round;stroke-dasharray:none;stroke-opacity:1;paint-order:stroke fill markers"
         x="609.38501"
         y="56.864311"
         id="text280-6"><tspan
           sodipodi:role="line"
           id="tspan280-7"
           style="font-style:normal;font-variant:normal;font-weight:bold;font-stretch:normal;font-size:16.9333px;font-family:Roboto;-inkscape-font-specification:'Roboto, Bold';font-variant-ligatures:none;font-variant-caps:normal;font-variant-numeric:normal;font-variant-east-asian:normal;fill:#ffffff;fill-opacity:0.957675;stroke-width:0.264583"
           x="609.38501"
           y="56.864311">R2</tspan></text><path
         id="path46-6"
         style="display:inline;fill:#ffffff;fill-opacity:0.3;stroke-width:3.175;paint-order:markers fill stroke"
         d="m 620.31561,32.202361 a 21.43125,21.43125 0 0 0 -29.27563,7.844387 21.43125,21.43125 0 0 0 7.84438,29.275627 21.43125,21.43125 0 0 0 29.27563,-7.844382 21.43125,21.43125 0 0 0 -7.84438,-29.275632 z m -0.79375,1.374816 a 19.84375,19.84375 0 0 1 7.26331,27.107066 19.84375,19.84375 0 0 1 -27.10706,7.263317 19.84375,19.84375 0 0 1 -7.26331,-27.107062 19.84375,19.84375 0 0 1 27.10706,-7.263321 z" /><path
         id="path47-4"
         style="display:inline;fill:#ffffff;fill-opacity:1;stroke-width:3.175;paint-order:markers fill stroke"
         d="m 618.72811,34.951992 a 18.25625,18.25625 0 0 0 -24.9385,6.682256 18.25625,18.25625 0 0 0 6.68225,24.938496 18.25625,18.25625 0 0 0 24.9385,-6.682251 18.25625,18.25625 0 0 0 -6.68225,-24.938501 z m -0.79375,1.374815 a 16.668749,16.668749 0 0 1 6.10118,22.769936 16.668749,16.668749 0 0 1 -22.76993,6.101186 16.668749,16.668749 0 0 1 -6.10118,-22.769931 16.668749,16.668749 0 0 1 22.76993,-6.101191 z" /></g><g
       id="g137"><text
         xml:space="preserve"
         style="font-style:normal;font-variant:normal;font-weight:bold;font-stretch:normal;font-size:16.9333px;line-height:18.6667px;font-family:Roboto;-inkscape-font-specification:'Roboto, Bold';font-variant-ligatures:none;font-variant-caps:normal;font-variant-numeric:normal;font-variant-east-asian:normal;text-align:center;letter-spacing:0px;word-spacing:0px;text-anchor:middle;display:inline;fill:#ffffff;fill-opacity:0.957675;stroke:none;stroke-width:0.264583;stroke-linecap:round;stroke-dasharray:none;stroke-opacity:1;paint-order:stroke fill markers"
         x="79.589966"
         y="42.540028"
         id="text273-6"><tspan
           sodipodi:role="line"
           id="tspan273-39"
           style="font-style:normal;font-variant:normal;font-weight:bold;font-stretch:normal;font-size:16.9333px;line-height:18.6667px;font-family:Roboto;-inkscape-font-specification:'Roboto, Bold';font-variant-ligatures:none;font-variant-caps:normal;font-variant-numeric:normal;font-variant-east-asian:normal;fill:#ffffff;fill-opacity:0.957675;stroke-width:0.264583"
           x="79.589966"
           y="42.540028">L1</tspan></text><path
         id="path77-3"
         style="display:inline;fill:#ffffff;fill-opacity:0.3;stroke-width:3.175;paint-order:markers fill stroke"
         d="M 78.58124,15.08125 A 21.43125,21.43125 0 0 0 57.15,36.5125 21.43125,21.43125 0 0 0 78.58124,57.94375 21.43125,21.43125 0 0 0 100.01249,36.5125 21.43125,21.43125 0 0 0 78.58124,15.08125 Z m 0,1.5875 A 19.84375,19.84375 0 0 1 98.42499,36.5125 19.84375,19.84375 0 0 1 78.58124,56.35625 19.84375,19.84375 0 0 1 58.7375,36.5125 19.84375,19.84375 0 0 1 78.58124,16.66875 Z" /><path
         id="path78-8"
         style="display:inline;fill:#ffffff;fill-opacity:1;stroke-width:3.175;paint-order:markers fill stroke"
         d="M 78.58124,18.25625 A 18.25625,18.25625 0 0 0 60.325,36.5125 18.25625,18.25625 0 0 0 78.58124,54.76875 18.25625,18.25625 0 0 0 96.83749,36.5125 18.25625,18.25625 0 0 0 78.58124,18.25625 Z m 0,1.5875 A 16.668749,16.668749 0 0 1 95.24999,36.5125 16.668749,16.668749 0 0 1 78.58124,53.18125 16.668749,16.668749 0 0 1 61.9125,36.5125 16.668749,16.668749 0 0 1 78.58124,19.84375 Z" /></g><g
       id="g138"><path
         d="m 138.1125,57.112374 h -12.7 v -12.70001 h 12.7 z"
         id="path1"
         style="fill:#ffffff;stroke-width:0.264583" /><path
         id="path79-6"
         style="display:inline;fill:#ffffff;fill-opacity:0.3;stroke-width:3.175;paint-order:markers fill stroke"
         d="m 142.47812,32.202361 a 21.43125,21.43125 0 0 0 -29.27563,7.844387 21.43125,21.43125 0 0 0 7.84438,29.275627 21.43125,21.43125 0 0 0 29.27563,-7.844382 21.43125,21.43125 0 0 0 -7.84438,-29.275632 z m -0.79375,1.374816 a 19.84375,19.84375 0 0 1 7.26331,27.107066 19.84375,19.84375 0 0 1 -27.10706,7.263317 19.84375,19.84375 0 0 1 -7.26331,-27.107062 19.84375,19.84375 0 0 1 27.10706,-7.263321 z" /><path
         id="path80-0"
         style="display:inline;fill:#ffffff;fill-opacity:1;stroke-width:3.175;paint-order:markers fill stroke"
         d="m 140.89062,34.951992 a 18.25625,18.25625 0 0 0 -24.9385,6.682256 18.25625,18.25625 0 0 0 6.68225,24.938496 18.25625,18.25625 0 0 0 24.9385,-6.682251 18.25625,18.25625 0 0 0 -6.68225,-24.938501 z m -0.79375,1.374815 a 16.668749,16.668749 0 0 1 6.10118,22.769936 16.668749,16.668749 0 0 1 -22.76993,6.101186 16.668749,16.668749 0 0 1 -6.10118,-22.769931 16.668749,16.668749 0 0 1 22.76993,-6.101191 z" /></g><g
       id="g121"><text
         xml:space="preserve"
         style="font-style:normal;font-variant:normal;font-weight:bold;font-stretch:normal;font-size:16.9333px;line-height:18.6667px;font-family:Roboto;-inkscape-font-specification:'Roboto, Bold';font-variant-ligatures:none;font-variant-caps:normal;font-variant-numeric:normal;font-variant-east-asian:normal;text-align:center;letter-spacing:0px;word-spacing:0px;text-anchor:middle;display:inline;fill:#ffffff;fill-opacity:0.957675;stroke:none;stroke-width:0.264583;stroke-linecap:round;stroke-dasharray:none;stroke-opacity:1;paint-order:stroke fill markers"
         x="25.185022"
         y="56.864319"
         id="text271-4"><tspan
           sodipodi:role="line"
           id="tspan271-8"
           style="font-style:normal;font-variant:normal;font-weight:bold;font-stretch:normal;font-size:16.9333px;line-height:18.6667px;font-family:Roboto;-inkscape-font-specification:'Roboto, Bold';font-variant-ligatures:none;font-variant-caps:normal;font-variant-numeric:normal;font-variant-east-asian:normal;fill:#ffffff;fill-opacity:0.957675;stroke-width:0.264583"
           x="25.185022"
           y="56.864319">L2</tspan></text><path
         id="path81-4"
         style="display:inline;fill:#ffffff;fill-opacity:0.3;stroke-width:3.175;paint-order:markers fill stroke"
         d="M 14.68437,32.202371 A 21.43125,21.43125 0 0 0 6.83999,61.477998 21.43125,21.43125 0 0 0 36.11562,69.322385 21.43125,21.43125 0 0 0 43.96,40.046753 21.43125,21.43125 0 0 0 14.68437,32.202371 Z m 0.79375,1.374816 A 19.84375,19.84375 0 0 1 42.58518,40.840503 19.84375,19.84375 0 0 1 35.32187,67.94757 19.84375,19.84375 0 0 1 8.21481,60.684248 19.84375,19.84375 0 0 1 15.47812,33.577187 Z" /><path
         id="path82-8"
         style="display:inline;fill:#ffffff;fill-opacity:1;stroke-width:3.175;paint-order:markers fill stroke"
         d="m 16.27187,34.952002 a 18.25625,18.25625 0 0 0 -6.68225,24.938496 18.25625,18.25625 0 0 0 24.9385,6.682256 18.25625,18.25625 0 0 0 6.68225,-24.938501 18.25625,18.25625 0 0 0 -24.9385,-6.682251 z m 0.79375,1.374815 a 16.668749,16.668749 0 0 1 22.76993,6.101186 16.668749,16.668749 0 0 1 -6.10118,22.769936 16.668749,16.668749 0 0 1 -22.76993,-6.101191 16.668749,16.668749 0 0 1 6.10118,-22.769931 z" /></g><g
       id="g136"><path
         id="path48-3"
         style="display:inline;fill:#ffffff;fill-opacity:0.3;stroke-width:3.175;paint-order:markers fill stroke"
         d="m 492.52186,32.202371 a 21.43125,21.43125 0 0 0 -7.84438,29.275627 21.43125,21.43125 0 0 0 29.27563,7.844387 21.43125,21.43125 0 0 0 7.84438,-29.275632 21.43125,21.43125 0 0 0 -29.27563,-7.844382 z m 0.79375,1.374816 a 19.84375,19.84375 0 0 1 27.10706,7.263316 19.84375,19.84375 0 0 1 -7.26331,27.107067 19.84375,19.84375 0 0 1 -27.10706,-7.263322 19.84375,19.84375 0 0 1 7.26331,-27.107061 z" /><path
         id="path49-3"
         style="display:inline;fill:#ffffff;fill-opacity:1;stroke-width:3.175;paint-order:markers fill stroke"
         d="m 494.10936,34.952002 a 18.25625,18.25625 0 0 0 -6.68225,24.938496 18.25625,18.25625 0 0 0 24.9385,6.682256 18.25625,18.25625 0 0 0 6.68225,-24.938501 18.25625,18.25625 0 0 0 -24.9385,-6.682251 z m 0.79375,1.374815 a 16.668749,16.668749 0 0 1 22.76993,6.101186 16.668749,16.668749 0 0 1 -6.10118,22.769936 16.668749,16.668749 0 0 1 -22.76993,-6.101191 16.668749,16.668749 0 0 1 6.10118,-22.769931 z" /><path
         d="m 499.35698,43.354092 v 14.81657 l 11.64158,-7.4083 z"
         id="path1-9"
         style="fill:#ffffff;stroke-width:0.264583" /></g><path
       id="path7-7"
       style="display:inline;fill:#ffffff;fill-opacity:0.3;stroke-width:3.175;paint-order:markers fill stroke"
       d="M 556.41874,70.643745 A 72.231247,72.231247 0 0 0 484.18749,142.875 72.231247,72.231247 0 0 0 556.41874,215.10625 72.231247,72.231247 0 0 0 628.64998,142.875 72.231247,72.231247 0 0 0 556.41874,70.643745 Z m 0,1.587498 A 70.643745,70.643745 0 0 1 627.06248,142.875 70.643745,70.643745 0 0 1 556.41874,213.51875 70.643745,70.643745 0 0 1 485.77499,142.875 70.643745,70.643745 0 0 1 556.41874,72.231243 Z" /><g
       id="g132"><path
         d="m 564.35623,177.0176 -1.59883,-1.59883 -6.33864,6.33865 -6.33866,-6.33865 -1.59887,1.59883 6.33866,6.33865 -6.33866,6.33866 1.59887,1.59882 6.33866,-6.33866 6.33864,6.33866 1.59883,-1.59882 -6.33865,-6.33866 z"
         id="path1-68"
         style="fill:#ffffff;stroke-width:0.264583" /><path
         id="path31-3"
         style="display:inline;fill:#ffffff;fill-opacity:1;stroke-width:3.175;paint-order:markers fill stroke"
         d="m 556.41873,157.95625 a 25.4,25.4 0 0 0 -25.39999,25.4 25.4,25.4 0 0 0 25.39999,25.4 25.4,25.4 0 0 0 25.4,-25.4 25.4,25.4 0 0 0 -25.4,-25.4 z m 0,1.5875 a 23.8125,23.8125 0 0 1 23.8125,23.8125 23.8125,23.8125 0 0 1 -23.8125,23.8125 23.8125,23.8125 0 0 1 -23.81249,-23.8125 23.8125,23.8125 0 0 1 23.81249,-23.8125 z" /></g><g
       id="g131"><path
         d="m 596.89999,149.96585 a 7.0908433,7.0908433 0 0 1 -7.09086,-7.09086 7.0908433,7.0908433 0 0 1 7.09086,-7.09085 7.0908433,7.0908433 0 0 1 7.09086,7.09085 7.0908433,7.0908433 0 0 1 -7.09086,7.09086 m 0,-15.9544 a 8.8635542,8.8635542 0 0 0 -8.86354,8.86354 8.8635542,8.8635542 0 0 0 8.86354,8.86355 8.8635542,8.8635542 0 0 0 8.86354,-8.86355 8.8635542,8.8635542 0 0 0 -8.86354,-8.86354 z"
         id="path1-3"
         style="fill:#ffffff;stroke-width:0.264583" /><path
         id="path32-0"
         style="display:inline;fill:#ffffff;fill-opacity:1;stroke-width:3.175;paint-order:markers fill stroke"
         d="m 596.89999,117.475 a 25.4,25.4 0 0 0 -25.39999,25.4 25.4,25.4 0 0 0 25.39999,25.4 25.4,25.4 0 0 0 25.4,-25.4 25.4,25.4 0 0 0 -25.4,-25.4 z m 0,1.5875 a 23.8125,23.8125 0 0 1 23.8125,23.8125 23.8125,23.8125 0 0 1 -23.8125,23.8125 23.8125,23.8125 0 0 1 -23.81249,-23.8125 23.8125,23.8125 0 0 1 23.81249,-23.8125 z" /></g><g
       id="g133"><path
         d="m 507.99998,134.9375 h 15.875 v 15.875 h -15.875 v -15.875 m 1.76387,1.7639 v 12.34724 h 12.34724 V 136.7014 Z"
         id="path1-8"
         style="fill:#ffffff;stroke-width:0.264583" /><path
         id="path33-3"
         style="display:inline;fill:#ffffff;fill-opacity:1;stroke-width:3.175;paint-order:markers fill stroke"
         d="m 515.93748,117.475 a 25.4,25.4 0 0 0 -25.39999,25.4 25.4,25.4 0 0 0 25.39999,25.4 25.4,25.4 0 0 0 25.4,-25.4 25.4,25.4 0 0 0 -25.4,-25.4 z m 0,1.5875 a 23.8125,23.8125 0 0 1 23.8125,23.8125 23.8125,23.8125 0 0 1 -23.8125,23.8125 23.8125,23.8125 0 0 1 -23.81249,-23.8125 23.8125,23.8125 0 0 1 23.81249,-23.8125 z" /></g><path
       id="path34-0"
       style="display:inline;fill:#ffffff;fill-opacity:0.3;stroke-width:3.175;paint-order:markers fill stroke"
       d="m 509.83366,96.289933 a 5.5562501,5.5562501 0 0 0 0,7.857717 5.5562501,5.5562501 0 0 0 7.85772,0 5.5562501,5.5562501 0 0 0 0,-7.857717 5.5562501,5.5562501 0 0 0 -7.85772,0 z m 1.12253,1.12253 a 3.96875,3.96875 0 0 1 5.61266,0 3.96875,3.96875 0 0 1 0,5.612657 3.96875,3.96875 0 0 1 -5.61266,-1e-5 3.96875,3.96875 0 0 1 0,-5.612647 z"
       inkscape:transform-center-x="42.656221"
       inkscape:transform-center-y="-42.656211" /><path
       id="path39-9"
       style="display:inline;fill:#ffffff;fill-opacity:0.3;stroke-width:3.175;paint-order:markers fill stroke"
       d="m 509.83367,189.46008 a 5.5562501,5.5562501 0 0 0 7.85772,0 5.5562501,5.5562501 0 0 0 0,-7.85772 5.5562501,5.5562501 0 0 0 -7.85772,0 5.5562501,5.5562501 0 0 0 0,7.85772 z m 1.12253,-1.12253 a 3.96875,3.96875 0 0 1 0,-5.61266 3.96875,3.96875 0 0 1 5.61266,0 3.96875,3.96875 0 0 1 -10e-6,5.61266 3.96875,3.96875 0 0 1 -5.61265,0 z"
       inkscape:transform-center-x="42.656211"
       inkscape:transform-center-y="42.65622" /><path
       id="path40-2"
       style="display:inline;fill:#ffffff;fill-opacity:0.3;stroke-width:3.175;paint-order:markers fill stroke"
       d="m 603.00382,189.46007 a 5.5562501,5.5562501 0 0 0 0,-7.85772 5.5562501,5.5562501 0 0 0 -7.85772,0 5.5562501,5.5562501 0 0 0 0,7.85772 5.5562501,5.5562501 0 0 0 7.85772,0 z m -1.12253,-1.12253 a 3.96875,3.96875 0 0 1 -5.61266,0 3.96875,3.96875 0 0 1 0,-5.61266 3.96875,3.96875 0 0 1 5.61266,10e-6 3.96875,3.96875 0 0 1 0,5.61265 z"
       inkscape:transform-center-x="-42.65622"
       inkscape:transform-center-y="42.65621" /><path
       id="path41-5"
       style="display:inline;fill:#ffffff;fill-opacity:0.3;stroke-width:3.175;paint-order:markers fill stroke"
       d="m 603.00381,96.289923 a 5.5562501,5.5562501 0 0 0 -7.85772,0 5.5562501,5.5562501 0 0 0 0,7.857717 5.5562501,5.5562501 0 0 0 7.85772,0 5.5562501,5.5562501 0 0 0 0,-7.857717 z m -1.12253,1.12253 a 3.96875,3.96875 0 0 1 0,5.612657 3.96875,3.96875 0 0 1 -5.61266,0 3.96875,3.96875 0 0 1 10e-6,-5.612657 3.96875,3.96875 0 0 1 5.61265,0 z"
       inkscape:transform-center-x="-42.65621"
       inkscape:transform-center-y="-42.656221" /><g
       id="g130"><path
         id="circle26-4"
         style="display:inline;fill:#ffffff;fill-opacity:1;stroke-width:3.175;paint-order:markers fill stroke"
         d="m 556.41873,76.993743 a 25.4,25.4 0 0 0 -25.39999,25.400007 25.4,25.4 0 0 0 25.39999,25.4 25.4,25.4 0 0 0 25.4,-25.4 25.4,25.4 0 0 0 -25.4,-25.400007 z m 0,1.58751 a 23.8125,23.8125 0 0 1 23.8125,23.812497 23.8125,23.8125 0 0 1 -23.8125,23.8125 23.8125,23.8125 0 0 1 -23.81249,-23.8125 23.8125,23.8125 0 0 1 23.81249,-23.812497 z" /><path
         d="m 556.41872,91.223927 -9.65728,16.668753 h 19.31458 m -9.6573,-13.159548 6.61084,11.404978 h -13.22167"
         id="path42"
         style="fill:#ffffff;stroke-width:0.264583" /></g><path
       id="path138"
       style="display:inline;fill:#ffffff;fill-opacity:0.3;stroke-width:3.175;paint-order:markers fill stroke"
       d="M 78.58125,70.643745 A 72.231247,72.231247 0 0 0 6.3499999,142.875 72.231247,72.231247 0 0 0 78.58125,215.10625 72.231247,72.231247 0 0 0 150.81249,142.875 72.231247,72.231247 0 0 0 78.58125,70.643745 Z m 0,1.587498 A 70.643745,70.643745 0 0 1 149.22499,142.875 70.643745,70.643745 0 0 1 78.58125,213.51875 70.643745,70.643745 0 0 1 7.9374999,142.875 70.643745,70.643745 0 0 1 78.58125,72.231243 Z" /><path
       id="path145"
       style="display:inline;fill:#ffffff;fill-opacity:0.3;stroke-width:3.175;paint-order:markers fill stroke"
       d="m 31.99617,96.289933 a 5.5562501,5.5562501 0 0 0 0,7.857717 5.5562501,5.5562501 0 0 0 7.85772,0 5.5562501,5.5562501 0 0 0 0,-7.857717 5.5562501,5.5562501 0 0 0 -7.85772,0 z m 1.12253,1.12253 a 3.96875,3.96875 0 0 1 5.61266,0 3.96875,3.96875 0 0 1 0,5.612657 3.96875,3.96875 0 0 1 -5.61266,-1e-5 3.96875,3.96875 0 0 1 0,-5.612647 z"
       inkscape:transform-center-x="42.656221"
       inkscape:transform-center-y="-42.656211" /><path
       id="path146"
       style="display:inline;fill:#ffffff;fill-opacity:0.3;stroke-width:3.175;paint-order:markers fill stroke"
       d="m 31.99618,189.46008 a 5.5562501,5.5562501 0 0 0 7.85772,0 5.5562501,5.5562501 0 0 0 0,-7.85772 5.5562501,5.5562501 0 0 0 -7.85772,0 5.5562501,5.5562501 0 0 0 0,7.85772 z m 1.12253,-1.12253 a 3.96875,3.96875 0 0 1 0,-5.61266 3.96875,3.96875 0 0 1 5.61266,0 3.96875,3.96875 0 0 1 -10e-6,5.61266 3.96875,3.96875 0 0 1 -5.61265,0 z"
       inkscape:transform-center-x="42.656211"
       inkscape:transform-center-y="42.65622" /><path
       id="path147"
       style="display:inline;fill:#ffffff;fill-opacity:0.3;stroke-width:3.175;paint-order:markers fill stroke"
       d="m 125.16633,189.46007 a 5.5562501,5.5562501 0 0 0 0,-7.85772 5.5562501,5.5562501 0 0 0 -7.85772,0 5.5562501,5.5562501 0 0 0 0,7.85772 5.5562501,5.5562501 0 0 0 7.85772,0 z m -1.12253,-1.12253 a 3.96875,3.96875 0 0 1 -5.61266,0 3.96875,3.96875 0 0 1 0,-5.61266 3.96875,3.96875 0 0 1 5.61266,10e-6 3.96875,3.96875 0 0 1 0,5.61265 z"
       inkscape:transform-center-x="-42.65622"
       inkscape:transform-center-y="42.65621" /><path
       id="path148"
       style="display:inline;fill:#ffffff;fill-opacity:0.3;stroke-width:3.175;paint-order:markers fill stroke"
       d="m 125.16632,96.289923 a 5.5562501,5.5562501 0 0 0 -7.85772,0 5.5562501,5.5562501 0 0 0 0,7.857717 5.5562501,5.5562501 0 0 0 7.85772,0 5.5562501,5.5562501 0 0 0 0,-7.857717 z m -1.12253,1.12253 a 3.96875,3.96875 0 0 1 0,5.612657 3.96875,3.96875 0 0 1 -5.61266,0 3.96875,3.96875 0 0 1 1e-5,-5.612657 3.96875,3.96875 0 0 1 5.61265,0 z"
       inkscape:transform-center-x="-42.65621"
       inkscape:transform-center-y="-42.656221" /><g
       id="g150"
       inkscape:transform-center-x="5.6717514e-06"
       inkscape:transform-center-y="-40.481256"><path
         d="m 68.923945,107.89268 h 19.31459 l -9.65728,-16.668752"
         id="path1-54"
         style="fill:#ffffff;stroke-width:0.264583" /><path
         id="path149"
         style="display:inline;fill:#ffffff;fill-opacity:1;stroke-width:3.175;paint-order:markers fill stroke"
         d="m 78.58124,76.993743 a 25.4,25.4 0 0 0 -25.39999,25.400007 25.4,25.4 0 0 0 25.39999,25.4 25.4,25.4 0 0 0 25.4,-25.4 25.4,25.4 0 0 0 -25.4,-25.400007 z m 0,1.58751 a 23.8125,23.8125 0 0 1 23.8125,23.812497 23.8125,23.8125 0 0 1 -23.8125,23.8125 23.8125,23.8125 0 0 1 -23.81249,-23.8125 23.8125,23.8125 0 0 1 23.81249,-23.812497 z" /></g><g
       id="g151"
       inkscape:transform-center-x="-40.481254"
       inkscape:transform-center-y="-7.8625e-06"
       transform="rotate(90,78.581251,142.875)"><path
         d="m 68.923945,107.89268 h 19.31459 l -9.65728,-16.668752"
         id="path150"
         style="fill:#ffffff;stroke-width:0.264583" /><path
         id="path151"
         style="display:inline;fill:#ffffff;fill-opacity:1;stroke-width:3.175;paint-order:markers fill stroke"
         d="m 78.58124,76.993743 a 25.4,25.4 0 0 0 -25.39999,25.400007 25.4,25.4 0 0 0 25.39999,25.4 25.4,25.4 0 0 0 25.4,-25.4 25.4,25.4 0 0 0 -25.4,-25.400007 z m 0,1.58751 a 23.8125,23.8125 0 0 1 23.8125,23.812497 23.8125,23.8125 0 0 1 -23.8125,23.8125 23.8125,23.8125 0 0 1 -23.81249,-23.8125 23.8125,23.8125 0 0 1 23.81249,-23.812497 z" /></g><g
       id="g153"
       inkscape:transform-center-x="-7.8625001e-06"
       inkscape:transform-center-y="40.481252"
       transform="rotate(180,78.581252,142.875)"><path
         d="m 68.923945,107.89268 h 19.31459 l -9.65728,-16.668752"
         id="path152"
         style="fill:#ffffff;stroke-width:0.264583" /><path
         id="path153"
         style="display:inline;fill:#ffffff;fill-opacity:1;stroke-width:3.175;paint-order:markers fill stroke"
         d="m 78.58124,76.993743 a 25.4,25.4 0 0 0 -25.39999,25.400007 25.4,25.4 0 0 0 25.39999,25.4 25.4,25.4 0 0 0 25.4,-25.4 25.4,25.4 0 0 0 -25.4,-25.400007 z m 0,1.58751 a 23.8125,23.8125 0 0 1 23.8125,23.812497 23.8125,23.8125 0 0 1 -23.8125,23.8125 23.8125,23.8125 0 0 1 -23.81249,-23.8125 23.8125,23.8125 0 0 1 23.81249,-23.812497 z" /></g><g
       id="g155"
       inkscape:transform-center-x="40.481251"
       inkscape:transform-center-y="6.8625001e-06"
       transform="rotate(-90,78.581254,142.875)"><path
         d="m 68.923945,107.89268 h 19.31459 l -9.65728,-16.668752"
         id="path154"
         style="fill:#ffffff;stroke-width:0.264583" /><path
         id="path155"
         style="display:inline;fill:#ffffff;fill-opacity:1;stroke-width:3.175;paint-order:markers fill stroke"
         d="m 78.58124,76.993743 a 25.4,25.4 0 0 0 -25.39999,25.400007 25.4,25.4 0 0 0 25.39999,25.4 25.4,25.4 0 0 0 25.4,-25.4 25.4,25.4 0 0 0 -25.4,-25.400007 z m 0,1.58751 a 23.8125,23.8125 0 0 1 23.8125,23.812497 23.8125,23.8125 0 0 1 -23.8125,23.8125 23.8125,23.8125 0 0 1 -23.81249,-23.8125 23.8125,23.8125 0 0 1 23.81249,-23.812497 z" /></g></g></svg>
