<?xml version="1.0" encoding="UTF-8" standalone="no"?>
<!-- Created with Inkscape (http://www.inkscape.org/) -->

<svg
   width="2400"
   height="1080"
   viewBox="0 0 634.99998 285.75"
   version="1.1"
   id="svg1"
   xml:space="preserve"
   sodipodi:docname="psx-analog-landscape.svg"
   inkscape:version="1.3.2 (091e20ef0f, 2023-11-25, custom)"
   inkscape:export-filename="psx-analog-landscape.png"
   inkscape:export-xdpi="96"
   inkscape:export-ydpi="96"
   xmlns:inkscape="http://www.inkscape.org/namespaces/inkscape"
   xmlns:sodipodi="http://sodipodi.sourceforge.net/DTD/sodipodi-0.dtd"
   xmlns="http://www.w3.org/2000/svg"
   xmlns:svg="http://www.w3.org/2000/svg"><sodipodi:namedview
     id="namedview1"
     pagecolor="#000000"
     bordercolor="#000000"
     borderopacity="0.25"
     inkscape:showpageshadow="2"
     inkscape:pageopacity="0.0"
     inkscape:pagecheckerboard="0"
     inkscape:deskcolor="#d1d1d1"
     inkscape:document-units="px"
     showguides="true"
     inkscape:zoom="0.260625"
     inkscape:cx="932.3741"
     inkscape:cy="1216.307"
     inkscape:window-width="1920"
     inkscape:window-height="1017"
     inkscape:window-x="0"
     inkscape:window-y="0"
     inkscape:window-maximized="1"
     inkscape:current-layer="layer2"
     inkscape:export-bgcolor="#000000ff"><sodipodi:guide
       position="71.437499,159.44765"
       orientation="1,0"
       id="guide1"
       inkscape:locked="false" /><sodipodi:guide
       position="71.437498,159.44765"
       orientation="0,-1"
       id="guide2"
       inkscape:locked="false" /><sodipodi:guide
       position="563.56251,159.44765"
       orientation="1,0"
       id="guide9"
       inkscape:locked="false" /></sodipodi:namedview><defs
     id="defs1"><inkscape:path-effect
       effect="offset"
       id="path-effect246"
       is_visible="true"
       lpeversion="1.2"
       linejoin_type="round"
       unit="px"
       offset="-24"
       miter_limit="4"
       attempt_force_join="true"
       update_on_knot_move="true" /><inkscape:path-effect
       effect="offset"
       id="path-effect237"
       is_visible="true"
       lpeversion="1.2"
       linejoin_type="miter"
       unit="px"
       offset="48"
       miter_limit="4"
       attempt_force_join="false"
       update_on_knot_move="true" /><inkscape:path-effect
       effect="offset"
       id="path-effect235"
       is_visible="true"
       lpeversion="1.2"
       linejoin_type="miter"
       unit="px"
       offset="-6"
       miter_limit="4"
       attempt_force_join="false"
       update_on_knot_move="true" /></defs><g
     inkscape:label="layout"
     inkscape:groupmode="layer"
     id="layer1"
     style="display:inline;opacity:1"
     sodipodi:insensitive="true"><rect
       style="fill:#aa87de;fill-opacity:1;stroke-width:1.27;stroke-linecap:round;paint-order:markers fill stroke"
       id="rect3"
       width="635"
       height="285.75003"
       x="0"
       y="-3.501758e-05" /><rect
       style="fill:#8d5fd3;fill-opacity:1;stroke-width:1.27;stroke-linecap:round;paint-order:markers fill stroke"
       id="rect5"
       width="428.625"
       height="285.75"
       x="103.18749"
       y="-2.2499999e-06" /><path
       id="path282"
       style="display:inline;fill:#c87137;fill-opacity:1;stroke:none;stroke-width:1.27;stroke-linecap:round;paint-order:markers fill stroke"
       d="M 71.4375,61.214846 A 65.087502,65.087502 0 0 0 6.35,126.30235 65.087502,65.087502 0 0 0 71.4375,191.38985 65.087502,65.087502 0 0 0 136.525,126.30235 65.087502,65.087502 0 0 0 71.4375,61.214846 Z m 0,1.5875 a 63.5,63.5 0 0 1 63.5,63.500004 63.5,63.5 0 0 1 -63.5,63.5 63.5,63.5 0 0 1 -63.5,-63.5 63.5,63.5 0 0 1 63.5,-63.500004 z" /><circle
       style="fill:#c87137;fill-opacity:1;stroke:none;stroke-width:1.27;stroke-linecap:round;paint-order:markers fill stroke"
       id="circle282"
       cx="71.437523"
       cy="126.30234"
       r="58.737499" /><path
       id="path283"
       style="fill:#5500d4;fill-opacity:1;stroke:none;stroke-width:1.27;stroke-linecap:round;paint-order:markers fill stroke"
       d="m 71.4375,67.564846 a 22.225,22.225 0 0 0 -22.225,22.225001 22.225,22.225 0 0 0 22.225,22.225003 22.225,22.225 0 0 0 22.225,-22.225003 22.225,22.225 0 0 0 -22.225,-22.225001 z m 0,1.5875 A 20.637499,20.637499 0 0 1 92.075,89.789847 20.637499,20.637499 0 0 1 71.4375,110.42735 20.637499,20.637499 0 0 1 50.8,89.789847 20.637499,20.637499 0 0 1 71.4375,69.152346 Z" /><path
       id="path284"
       style="fill:#5500d4;fill-opacity:1;stroke:none;stroke-width:1.27;stroke-linecap:round;paint-order:markers fill stroke"
       d="m 71.43752,140.58984 a 22.225,22.225 0 0 0 -22.225,22.225 22.225,22.225 0 0 0 22.225,22.225 22.225,22.225 0 0 0 22.225,-22.225 22.225,22.225 0 0 0 -22.225,-22.225 z m 0,1.5875 a 20.637499,20.637499 0 0 1 20.6375,20.6375 20.637499,20.637499 0 0 1 -20.6375,20.6375 20.637499,20.637499 0 0 1 -20.6375,-20.6375 20.637499,20.637499 0 0 1 20.6375,-20.6375 z" /><path
       id="path285"
       style="fill:#5500d4;fill-opacity:1;stroke:none;stroke-width:1.27;stroke-linecap:round;paint-order:markers fill stroke"
       d="m 107.95002,104.07734 a 22.225,22.225 0 0 0 -22.225,22.225 22.225,22.225 0 0 0 22.225,22.225 22.225,22.225 0 0 0 22.225,-22.225 22.225,22.225 0 0 0 -22.225,-22.225 z m 0,1.5875 a 20.637499,20.637499 0 0 1 20.6375,20.6375 20.637499,20.637499 0 0 1 -20.6375,20.6375 20.637499,20.637499 0 0 1 -20.6375,-20.6375 20.637499,20.637499 0 0 1 20.6375,-20.6375 z" /><path
       id="path286"
       style="fill:#5500d4;fill-opacity:1;stroke:none;stroke-width:1.27;stroke-linecap:round;paint-order:markers fill stroke"
       d="m 34.92502,104.07734 a 22.225,22.225 0 0 0 -22.225,22.225 22.225,22.225 0 0 0 22.225,22.225 22.225,22.225 0 0 0 22.225,-22.225 22.225,22.225 0 0 0 -22.225,-22.225 z m 0,1.5875 a 20.637499,20.637499 0 0 1 20.6375,20.6375 20.637499,20.637499 0 0 1 -20.6375,20.6375 20.637499,20.637499 0 0 1 -20.6375,-20.6375 20.637499,20.637499 0 0 1 20.6375,-20.6375 z" /><path
       id="path287"
       style="display:inline;fill:#5500d4;fill-opacity:1;stroke:none;stroke-width:0;stroke-linecap:round;stroke-dasharray:none;stroke-opacity:1;paint-order:stroke fill markers"
       d="m 109.6036,92.898757 a 4.7624993,4.7624993 0 0 0 4.76251,-4.762501 4.7624993,4.7624993 0 0 0 -4.76251,-4.76251 4.7624993,4.7624993 0 0 0 -4.7625,4.76251 4.7624993,4.7624993 0 0 0 4.7625,4.762501 z m 0,-1.58751 a 3.1749997,3.1749997 0 0 1 -3.17499,-3.174991 3.1749997,3.1749997 0 0 1 3.17499,-3.175 3.1749997,3.1749997 0 0 1 3.175,3.175 3.1749997,3.1749997 0 0 1 -3.175,3.174991 z"
       inkscape:transform-center-y="-38.166086"
       inkscape:transform-center-x="-38.166086" /><path
       id="path288"
       style="display:inline;fill:#5500d4;fill-opacity:1;stroke:none;stroke-width:0;stroke-linecap:round;stroke-dasharray:none;stroke-opacity:1;paint-order:stroke fill markers"
       d="m 104.8411,164.46842 a 4.7624993,4.7624993 0 0 0 4.7625,4.76251 4.7624993,4.7624993 0 0 0 4.76251,-4.76251 4.7624993,4.7624993 0 0 0 -4.76251,-4.7625 4.7624993,4.7624993 0 0 0 -4.7625,4.7625 z m 1.58751,0 a 3.1749997,3.1749997 0 0 1 3.17499,-3.17499 3.1749997,3.1749997 0 0 1 3.175,3.17499 3.1749997,3.1749997 0 0 1 -3.175,3.175 3.1749997,3.1749997 0 0 1 -3.17499,-3.175 z"
       inkscape:transform-center-x="-38.166086"
       inkscape:transform-center-y="38.166086" /><path
       id="path289"
       style="display:inline;fill:#5500d4;fill-opacity:1;stroke:none;stroke-width:0;stroke-linecap:round;stroke-dasharray:none;stroke-opacity:1;paint-order:stroke fill markers"
       d="m 33.27144,159.70592 a 4.7624993,4.7624993 0 0 0 -4.76251,4.7625 4.7624993,4.7624993 0 0 0 4.76251,4.76251 4.7624993,4.7624993 0 0 0 4.7625,-4.76251 4.7624993,4.7624993 0 0 0 -4.7625,-4.7625 z m 0,1.58751 a 3.1749997,3.1749997 0 0 1 3.17499,3.17499 3.1749997,3.1749997 0 0 1 -3.17499,3.175 3.1749997,3.1749997 0 0 1 -3.175,-3.175 3.1749997,3.1749997 0 0 1 3.175,-3.17499 z"
       inkscape:transform-center-y="38.166086"
       inkscape:transform-center-x="38.166086" /><path
       id="path290"
       style="display:inline;fill:#5500d4;fill-opacity:1;stroke:none;stroke-width:0;stroke-linecap:round;stroke-dasharray:none;stroke-opacity:1;paint-order:stroke fill markers"
       d="m 38.03394,88.136256 a 4.7624993,4.7624993 0 0 0 -4.7625,-4.76251 4.7624993,4.7624993 0 0 0 -4.76251,4.76251 4.7624993,4.7624993 0 0 0 4.76251,4.762501 4.7624993,4.7624993 0 0 0 4.7625,-4.762501 z m -1.58751,0 a 3.1749997,3.1749997 0 0 1 -3.17499,3.174991 3.1749997,3.1749997 0 0 1 -3.175,-3.174991 3.1749997,3.1749997 0 0 1 3.175,-3.175 3.1749997,3.1749997 0 0 1 3.17499,3.175 z"
       inkscape:transform-center-x="38.166086"
       inkscape:transform-center-y="-38.166086" /><g
       id="g294"
       transform="rotate(15,1005.8736,531.8857)"
       style="display:inline;fill:#ccff00"
       inkscape:transform-center-x="-3.2663536e-05"
       inkscape:transform-center-y="-96.837493"><path
         id="path293"
         style="opacity:1;fill:#ccff00;fill-opacity:1;stroke:none;stroke-width:0;stroke-linecap:round;stroke-dasharray:none;stroke-opacity:1;paint-order:stroke fill markers"
         d="m -26.758415,269.38428 a 19.049997,19.049997 0 0 0 -19.049998,19.05 19.049997,19.049997 0 0 0 19.049998,19.05 19.049997,19.049997 0 0 0 19.0499979,-19.05 19.049997,19.049997 0 0 0 -19.0499979,-19.05 z m 0,1.5875 a 17.462498,17.462498 0 0 1 17.4624981,17.4625 17.462498,17.462498 0 0 1 -17.4624981,17.4625 17.462498,17.462498 0 0 1 -17.462498,-17.4625 17.462498,17.462498 0 0 1 17.462498,-17.4625 z" /><path
         id="path294"
         style="display:inline;opacity:1;fill:#ccff00;fill-opacity:1;stroke:none;stroke-width:0;stroke-linecap:round;stroke-dasharray:none;stroke-opacity:1;paint-order:stroke fill markers"
         d="m -26.758415,272.55928 a 15.874998,15.874998 0 0 0 -15.874998,15.875 15.874998,15.874998 0 0 0 15.874998,15.875 15.874998,15.874998 0 0 0 15.874998,-15.875 15.874998,15.874998 0 0 0 -15.874998,-15.875 z m 0,1.5875 a 14.287498,14.287498 0 0 1 14.287498,14.2875 14.287498,14.287498 0 0 1 -14.287498,14.2875 14.287498,14.287498 0 0 1 -14.287499,-14.2875 14.287498,14.287498 0 0 1 14.287499,-14.2875 z" /></g><path
       id="path312"
       style="fill:#000080;fill-opacity:1;stroke:none;stroke-width:1.27;stroke-linecap:round;paint-order:markers fill stroke"
       d="m 85.18793,202.86487 a 36.512501,36.512501 0 0 0 -29.617463,42.29812 36.512501,36.512501 0 0 0 42.298121,29.61746 36.512501,36.512501 0 0 0 29.617462,-42.29812 36.512501,36.512501 0 0 0 -42.29812,-29.61746 z m 0.275666,1.56338 A 34.924999,34.924999 0 0 1 125.92267,232.758 34.924999,34.924999 0 0 1 97.592922,273.21707 34.924999,34.924999 0 0 1 57.133848,244.88732 34.924999,34.924999 0 0 1 85.463596,204.42825 Z" /><path
       id="path313"
       style="fill:#000080;fill-opacity:1;stroke:none;stroke-width:1.27;stroke-linecap:round;paint-order:markers fill stroke"
       d="M 87.117595,213.80854 A 25.4,25.4 0 0 0 66.514142,243.23333 25.4,25.4 0 0 0 95.938923,263.83678 25.4,25.4 0 0 0 116.54237,234.412 25.4,25.4 0 0 0 87.117595,213.80854 Z m 0.275667,1.56339 A 23.8125,23.8125 0 0 1 114.97899,234.68766 23.8125,23.8125 0 0 1 95.663256,262.2734 23.8125,23.8125 0 0 1 68.077524,242.95766 23.8125,23.8125 0 0 1 87.393262,215.37193 Z" /><g
       id="g28"
       transform="translate(-46.176509,-63.499994)"><path
         id="path27"
         style="fill:#ffff00;fill-opacity:0.999817;stroke:none;stroke-width:0.264583;stroke-linecap:butt;stroke-dasharray:none;paint-order:markers fill stroke"
         d="m 66.814008,314.32499 a 14.287499,14.287499 0 0 0 -14.287499,14.2875 14.287499,14.287499 0 0 0 14.287499,14.2875 14.287499,14.287499 0 0 0 14.2875,-14.2875 14.287499,14.287499 0 0 0 -14.2875,-14.2875 z m 0,1.5875 a 12.7,12.7 0 0 1 12.7,12.7 12.7,12.7 0 0 1 -12.7,12.7 12.7,12.7 0 0 1 -12.699999,-12.7 12.7,12.7 0 0 1 12.699999,-12.7 z" /><path
         id="path28"
         style="fill:#ffff00;fill-opacity:0.999817;stroke:none;stroke-width:0.264583;stroke-linecap:butt;stroke-dasharray:none;paint-order:markers fill stroke"
         d="m 66.814008,317.49999 a 11.1125,11.1125 0 0 0 -11.112499,11.1125 11.1125,11.1125 0 0 0 11.112499,11.1125 11.1125,11.1125 0 0 0 11.1125,-11.1125 11.1125,11.1125 0 0 0 -11.1125,-11.1125 z m 0,1.5875 a 9.5249996,9.5249996 0 0 1 9.525,9.525 9.5249996,9.5249996 0 0 1 -9.525,9.525 9.5249996,9.5249996 0 0 1 -9.524999,-9.525 9.5249996,9.5249996 0 0 1 9.524999,-9.525 z" /></g><g
       id="g30"
       transform="translate(151.73182,-307.97499)"><path
         id="path29"
         style="fill:#ffff00;fill-opacity:0.999817;stroke:none;stroke-width:0.264583;stroke-linecap:butt;stroke-dasharray:none;paint-order:markers fill stroke"
         d="m 66.814008,314.32499 a 14.287499,14.287499 0 0 0 -14.287499,14.2875 14.287499,14.287499 0 0 0 14.287499,14.2875 14.287499,14.287499 0 0 0 14.2875,-14.2875 14.287499,14.287499 0 0 0 -14.2875,-14.2875 z m 0,1.5875 a 12.7,12.7 0 0 1 12.7,12.7 12.7,12.7 0 0 1 -12.7,12.7 12.7,12.7 0 0 1 -12.699999,-12.7 12.7,12.7 0 0 1 12.699999,-12.7 z" /><path
         id="path30"
         style="fill:#ffff00;fill-opacity:0.999817;stroke:none;stroke-width:0.264583;stroke-linecap:butt;stroke-dasharray:none;paint-order:markers fill stroke"
         d="m 66.814008,317.49999 a 11.1125,11.1125 0 0 0 -11.112499,11.1125 11.1125,11.1125 0 0 0 11.112499,11.1125 11.1125,11.1125 0 0 0 11.1125,-11.1125 11.1125,11.1125 0 0 0 -11.1125,-11.1125 z m 0,1.5875 a 9.5249996,9.5249996 0 0 1 9.525,9.525 9.5249996,9.5249996 0 0 1 -9.525,9.525 9.5249996,9.5249996 0 0 1 -9.524999,-9.525 9.5249996,9.5249996 0 0 1 9.524999,-9.525 z" /></g><path
       id="path54"
       style="display:inline;fill:#c87137;fill-opacity:1;stroke:none;stroke-width:1.27;stroke-linecap:round;paint-order:markers fill stroke"
       d="m 563.56252,61.214848 a 65.087502,65.087502 0 0 1 65.0875,65.087502 65.087502,65.087502 0 0 1 -65.0875,65.0875 65.087502,65.087502 0 0 1 -65.0875,-65.0875 65.087502,65.087502 0 0 1 65.0875,-65.087502 z m 0,1.5875 a 63.5,63.5 0 0 0 -63.5,63.500002 63.5,63.5 0 0 0 63.5,63.5 63.5,63.5 0 0 0 63.5,-63.5 63.5,63.5 0 0 0 -63.5,-63.500002 z" /><circle
       style="fill:#c87137;fill-opacity:1;stroke:none;stroke-width:1.27;stroke-linecap:round;paint-order:markers fill stroke"
       id="circle55"
       cx="-563.5625"
       cy="126.30234"
       r="58.737499"
       transform="scale(-1,1)" /><path
       id="path55"
       style="fill:#5500d4;fill-opacity:1;stroke:none;stroke-width:1.27;stroke-linecap:round;paint-order:markers fill stroke"
       d="m 563.56252,67.564848 a 22.225,22.225 0 0 1 22.225,22.225 22.225,22.225 0 0 1 -22.225,22.225002 22.225,22.225 0 0 1 -22.225,-22.225002 22.225,22.225 0 0 1 22.225,-22.225 z m 0,1.5875 a 20.637499,20.637499 0 0 0 -20.6375,20.6375 20.637499,20.637499 0 0 0 20.6375,20.637502 20.637499,20.637499 0 0 0 20.6375,-20.637502 20.637499,20.637499 0 0 0 -20.6375,-20.6375 z" /><path
       id="path56"
       style="fill:#5500d4;fill-opacity:1;stroke:none;stroke-width:1.27;stroke-linecap:round;paint-order:markers fill stroke"
       d="m 563.5625,140.58984 a 22.225,22.225 0 0 1 22.225,22.225 22.225,22.225 0 0 1 -22.225,22.225 22.225,22.225 0 0 1 -22.225,-22.225 22.225,22.225 0 0 1 22.225,-22.225 z m 0,1.5875 a 20.637499,20.637499 0 0 0 -20.6375,20.6375 20.637499,20.637499 0 0 0 20.6375,20.6375 20.637499,20.637499 0 0 0 20.6375,-20.6375 20.637499,20.637499 0 0 0 -20.6375,-20.6375 z" /><path
       id="path57"
       style="fill:#5500d4;fill-opacity:1;stroke:none;stroke-width:1.27;stroke-linecap:round;paint-order:markers fill stroke"
       d="m 527.05,104.07734 a 22.225,22.225 0 0 1 22.225,22.225 22.225,22.225 0 0 1 -22.225,22.225 22.225,22.225 0 0 1 -22.225,-22.225 22.225,22.225 0 0 1 22.225,-22.225 z m 0,1.5875 a 20.637499,20.637499 0 0 0 -20.6375,20.6375 20.637499,20.637499 0 0 0 20.6375,20.6375 20.637499,20.637499 0 0 0 20.6375,-20.6375 20.637499,20.637499 0 0 0 -20.6375,-20.6375 z" /><path
       id="path58"
       style="fill:#5500d4;fill-opacity:1;stroke:none;stroke-width:1.27;stroke-linecap:round;paint-order:markers fill stroke"
       d="m 600.075,104.07734 a 22.225,22.225 0 0 1 22.225,22.225 22.225,22.225 0 0 1 -22.225,22.225 22.225,22.225 0 0 1 -22.225,-22.225 22.225,22.225 0 0 1 22.225,-22.225 z m 0,1.5875 a 20.637499,20.637499 0 0 0 -20.6375,20.6375 20.637499,20.637499 0 0 0 20.6375,20.6375 20.637499,20.637499 0 0 0 20.6375,-20.6375 20.637499,20.637499 0 0 0 -20.6375,-20.6375 z" /><path
       id="path59"
       style="display:inline;fill:#5500d4;fill-opacity:1;stroke:none;stroke-width:0;stroke-linecap:round;stroke-dasharray:none;stroke-opacity:1;paint-order:stroke fill markers"
       d="m 525.39642,92.898758 a 4.7624993,4.7624993 0 0 1 -4.76251,-4.7625 4.7624993,4.7624993 0 0 1 4.76251,-4.76251 4.7624993,4.7624993 0 0 1 4.7625,4.76251 4.7624993,4.7624993 0 0 1 -4.7625,4.7625 z m 0,-1.58751 a 3.1749997,3.1749997 0 0 0 3.17499,-3.17499 3.1749997,3.1749997 0 0 0 -3.17499,-3.175 3.1749997,3.1749997 0 0 0 -3.175,3.175 3.1749997,3.1749997 0 0 0 3.175,3.17499 z"
       inkscape:transform-center-y="-38.166086"
       inkscape:transform-center-x="-38.166086" /><path
       id="path60"
       style="display:inline;fill:#5500d4;fill-opacity:1;stroke:none;stroke-width:0;stroke-linecap:round;stroke-dasharray:none;stroke-opacity:1;paint-order:stroke fill markers"
       d="m 530.15892,164.46842 a 4.7624993,4.7624993 0 0 1 -4.7625,4.76251 4.7624993,4.7624993 0 0 1 -4.76251,-4.76251 4.7624993,4.7624993 0 0 1 4.76251,-4.7625 4.7624993,4.7624993 0 0 1 4.7625,4.7625 z m -1.58751,0 a 3.1749997,3.1749997 0 0 0 -3.17499,-3.17499 3.1749997,3.1749997 0 0 0 -3.175,3.17499 3.1749997,3.1749997 0 0 0 3.175,3.175 3.1749997,3.1749997 0 0 0 3.17499,-3.175 z"
       inkscape:transform-center-x="-38.166086"
       inkscape:transform-center-y="38.166086" /><path
       id="path61"
       style="display:inline;fill:#5500d4;fill-opacity:1;stroke:none;stroke-width:0;stroke-linecap:round;stroke-dasharray:none;stroke-opacity:1;paint-order:stroke fill markers"
       d="m 601.72858,159.70592 a 4.7624993,4.7624993 0 0 1 4.76251,4.7625 4.7624993,4.7624993 0 0 1 -4.76251,4.76251 4.7624993,4.7624993 0 0 1 -4.7625,-4.76251 4.7624993,4.7624993 0 0 1 4.7625,-4.7625 z m 0,1.58751 a 3.1749997,3.1749997 0 0 0 -3.17499,3.17499 3.1749997,3.1749997 0 0 0 3.17499,3.175 3.1749997,3.1749997 0 0 0 3.175,-3.175 3.1749997,3.1749997 0 0 0 -3.175,-3.17499 z"
       inkscape:transform-center-y="38.166086"
       inkscape:transform-center-x="38.166086" /><path
       id="path62"
       style="display:inline;fill:#5500d4;fill-opacity:1;stroke:none;stroke-width:0;stroke-linecap:round;stroke-dasharray:none;stroke-opacity:1;paint-order:stroke fill markers"
       d="m 596.96608,88.136258 a 4.7624993,4.7624993 0 0 1 4.7625,-4.76251 4.7624993,4.7624993 0 0 1 4.76251,4.76251 4.7624993,4.7624993 0 0 1 -4.76251,4.7625 4.7624993,4.7624993 0 0 1 -4.7625,-4.7625 z m 1.58751,0 a 3.1749997,3.1749997 0 0 0 3.17499,3.17499 3.1749997,3.1749997 0 0 0 3.175,-3.17499 3.1749997,3.1749997 0 0 0 -3.175,-3.175 3.1749997,3.1749997 0 0 0 -3.17499,3.175 z"
       inkscape:transform-center-x="38.166086"
       inkscape:transform-center-y="-38.166086" /><g
       id="g64"
       transform="matrix(-0.96592583,0.25881905,0.25881905,0.96592583,463.06356,-242.21569)"
       style="display:inline;fill:#ccff00"
       inkscape:transform-center-x="1.9396317e-05"
       inkscape:transform-center-y="-96.837503"><path
         id="path63"
         style="opacity:1;fill:#ccff00;fill-opacity:1;stroke:none;stroke-width:0;stroke-linecap:round;stroke-dasharray:none;stroke-opacity:1;paint-order:stroke fill markers"
         d="m -26.758415,269.38428 a 19.049997,19.049997 0 0 0 -19.049998,19.05 19.049997,19.049997 0 0 0 19.049998,19.05 19.049997,19.049997 0 0 0 19.0499979,-19.05 19.049997,19.049997 0 0 0 -19.0499979,-19.05 z m 0,1.5875 a 17.462498,17.462498 0 0 1 17.4624981,17.4625 17.462498,17.462498 0 0 1 -17.4624981,17.4625 17.462498,17.462498 0 0 1 -17.462498,-17.4625 17.462498,17.462498 0 0 1 17.462498,-17.4625 z" /><path
         id="path64"
         style="display:inline;opacity:1;fill:#ccff00;fill-opacity:1;stroke:none;stroke-width:0;stroke-linecap:round;stroke-dasharray:none;stroke-opacity:1;paint-order:stroke fill markers"
         d="m -26.758415,272.55928 a 15.874998,15.874998 0 0 0 -15.874998,15.875 15.874998,15.874998 0 0 0 15.874998,15.875 15.874998,15.874998 0 0 0 15.874998,-15.875 15.874998,15.874998 0 0 0 -15.874998,-15.875 z m 0,1.5875 a 14.287498,14.287498 0 0 1 14.287498,14.2875 14.287498,14.287498 0 0 1 -14.287498,14.2875 14.287498,14.287498 0 0 1 -14.287499,-14.2875 14.287498,14.287498 0 0 1 14.287499,-14.2875 z" /></g><path
       id="path65"
       style="fill:#000080;fill-opacity:1;stroke:none;stroke-width:1.27;stroke-linecap:round;paint-order:markers fill stroke"
       d="m 549.81209,202.86487 a 36.512501,36.512501 0 0 1 29.61746,42.29812 36.512501,36.512501 0 0 1 -42.29812,29.61746 36.512501,36.512501 0 0 1 -29.61747,-42.29812 36.512501,36.512501 0 0 1 42.29813,-29.61746 z m -0.27567,1.56338 a 34.924999,34.924999 0 0 0 -40.45907,28.32975 34.924999,34.924999 0 0 0 28.32974,40.45907 34.924999,34.924999 0 0 0 40.45908,-28.32975 34.924999,34.924999 0 0 0 -28.32975,-40.45907 z" /><path
       id="path66"
       style="fill:#000080;fill-opacity:1;stroke:none;stroke-width:1.27;stroke-linecap:round;paint-order:markers fill stroke"
       d="m 547.88242,213.80854 a 25.4,25.4 0 0 1 20.60345,29.42478 25.4,25.4 0 0 1 -29.42478,20.60346 25.4,25.4 0 0 1 -20.60345,-29.42478 25.4,25.4 0 0 1 29.42478,-20.60346 z m -0.27567,1.56339 a 23.8125,23.8125 0 0 0 -27.58573,19.31573 23.8125,23.8125 0 0 0 19.31574,27.58573 23.8125,23.8125 0 0 0 27.58573,-19.31573 23.8125,23.8125 0 0 0 -19.31574,-27.58573 z" /><g
       id="g68"
       transform="matrix(-1,0,0,1,681.1765,-63.499994)"><path
         id="path67"
         style="fill:#ffff00;fill-opacity:0.999817;stroke:none;stroke-width:0.264583;stroke-linecap:butt;stroke-dasharray:none;paint-order:markers fill stroke"
         d="m 66.814008,314.32499 a 14.287499,14.287499 0 0 0 -14.287499,14.2875 14.287499,14.287499 0 0 0 14.287499,14.2875 14.287499,14.287499 0 0 0 14.2875,-14.2875 14.287499,14.287499 0 0 0 -14.2875,-14.2875 z m 0,1.5875 a 12.7,12.7 0 0 1 12.7,12.7 12.7,12.7 0 0 1 -12.7,12.7 12.7,12.7 0 0 1 -12.699999,-12.7 12.7,12.7 0 0 1 12.699999,-12.7 z" /><path
         id="path68"
         style="fill:#ffff00;fill-opacity:0.999817;stroke:none;stroke-width:0.264583;stroke-linecap:butt;stroke-dasharray:none;paint-order:markers fill stroke"
         d="m 66.814008,317.49999 a 11.1125,11.1125 0 0 0 -11.112499,11.1125 11.1125,11.1125 0 0 0 11.112499,11.1125 11.1125,11.1125 0 0 0 11.1125,-11.1125 11.1125,11.1125 0 0 0 -11.1125,-11.1125 z m 0,1.5875 a 9.5249996,9.5249996 0 0 1 9.525,9.525 9.5249996,9.5249996 0 0 1 -9.525,9.525 9.5249996,9.5249996 0 0 1 -9.524999,-9.525 9.5249996,9.5249996 0 0 1 9.524999,-9.525 z" /></g><g
       id="g70"
       transform="matrix(-1,0,0,1,483.26817,-307.97499)"><path
         id="path69"
         style="fill:#ffff00;fill-opacity:0.999817;stroke:none;stroke-width:0.264583;stroke-linecap:butt;stroke-dasharray:none;paint-order:markers fill stroke"
         d="m 66.814008,314.32499 a 14.287499,14.287499 0 0 0 -14.287499,14.2875 14.287499,14.287499 0 0 0 14.287499,14.2875 14.287499,14.287499 0 0 0 14.2875,-14.2875 14.287499,14.287499 0 0 0 -14.2875,-14.2875 z m 0,1.5875 a 12.7,12.7 0 0 1 12.7,12.7 12.7,12.7 0 0 1 -12.7,12.7 12.7,12.7 0 0 1 -12.699999,-12.7 12.7,12.7 0 0 1 12.699999,-12.7 z" /><path
         id="path70"
         style="fill:#ffff00;fill-opacity:0.999817;stroke:none;stroke-width:0.264583;stroke-linecap:butt;stroke-dasharray:none;paint-order:markers fill stroke"
         d="m 66.814008,317.49999 a 11.1125,11.1125 0 0 0 -11.112499,11.1125 11.1125,11.1125 0 0 0 11.112499,11.1125 11.1125,11.1125 0 0 0 11.1125,-11.1125 11.1125,11.1125 0 0 0 -11.1125,-11.1125 z m 0,1.5875 a 9.5249996,9.5249996 0 0 1 9.525,9.525 9.5249996,9.5249996 0 0 1 -9.525,9.525 9.5249996,9.5249996 0 0 1 -9.524999,-9.525 9.5249996,9.5249996 0 0 1 9.524999,-9.525 z" /></g><g
       id="g4"
       transform="rotate(45,343.49194,342.41604)"
       style="display:inline;fill:#ccff00"
       inkscape:transform-center-x="-48.418774"
       inkscape:transform-center-y="-83.863712"><path
         id="path3"
         style="opacity:1;fill:#ccff00;fill-opacity:1;stroke:none;stroke-width:0;stroke-linecap:round;stroke-dasharray:none;stroke-opacity:1;paint-order:stroke fill markers"
         d="m -26.758415,269.38428 a 19.049997,19.049997 0 0 0 -19.049998,19.05 19.049997,19.049997 0 0 0 19.049998,19.05 19.049997,19.049997 0 0 0 19.0499979,-19.05 19.049997,19.049997 0 0 0 -19.0499979,-19.05 z m 0,1.5875 a 17.462498,17.462498 0 0 1 17.4624981,17.4625 17.462498,17.462498 0 0 1 -17.4624981,17.4625 17.462498,17.462498 0 0 1 -17.462498,-17.4625 17.462498,17.462498 0 0 1 17.462498,-17.4625 z" /><path
         id="path4"
         style="display:inline;opacity:1;fill:#ccff00;fill-opacity:1;stroke:none;stroke-width:0;stroke-linecap:round;stroke-dasharray:none;stroke-opacity:1;paint-order:stroke fill markers"
         d="m -26.758415,272.55928 a 15.874998,15.874998 0 0 0 -15.874998,15.875 15.874998,15.874998 0 0 0 15.874998,15.875 15.874998,15.874998 0 0 0 15.874998,-15.875 15.874998,15.874998 0 0 0 -15.874998,-15.875 z m 0,1.5875 a 14.287498,14.287498 0 0 1 14.287498,14.2875 14.287498,14.287498 0 0 1 -14.287498,14.2875 14.287498,14.287498 0 0 1 -14.287499,-14.2875 14.287498,14.287498 0 0 1 14.287499,-14.2875 z" /></g><g
       id="g8"
       transform="rotate(-15,-936.13116,-23.611232)"
       style="display:inline;fill:#ccff00"
       inkscape:transform-center-x="48.418718"
       inkscape:transform-center-y="-83.863745"><path
         id="path5"
         style="opacity:1;fill:#ccff00;fill-opacity:1;stroke:none;stroke-width:0;stroke-linecap:round;stroke-dasharray:none;stroke-opacity:1;paint-order:stroke fill markers"
         d="m -26.758415,269.38428 a 19.049997,19.049997 0 0 0 -19.049998,19.05 19.049997,19.049997 0 0 0 19.049998,19.05 19.049997,19.049997 0 0 0 19.0499979,-19.05 19.049997,19.049997 0 0 0 -19.0499979,-19.05 z m 0,1.5875 a 17.462498,17.462498 0 0 1 17.4624981,17.4625 17.462498,17.462498 0 0 1 -17.4624981,17.4625 17.462498,17.462498 0 0 1 -17.462498,-17.4625 17.462498,17.462498 0 0 1 17.462498,-17.4625 z" /><path
         id="path6"
         style="display:inline;opacity:1;fill:#ccff00;fill-opacity:1;stroke:none;stroke-width:0;stroke-linecap:round;stroke-dasharray:none;stroke-opacity:1;paint-order:stroke fill markers"
         d="m -26.758415,272.55928 a 15.874998,15.874998 0 0 0 -15.874998,15.875 15.874998,15.874998 0 0 0 15.874998,15.875 15.874998,15.874998 0 0 0 15.874998,-15.875 15.874998,15.874998 0 0 0 -15.874998,-15.875 z m 0,1.5875 a 14.287498,14.287498 0 0 1 14.287498,14.2875 14.287498,14.287498 0 0 1 -14.287498,14.2875 14.287498,14.287498 0 0 1 -14.287499,-14.2875 14.287498,14.287498 0 0 1 14.287499,-14.2875 z" /></g><g
       id="g11"
       transform="matrix(-0.70710678,0.70710679,0.70710679,0.70710678,292.26885,-142.59416)"
       style="display:inline;fill:#ccff00"
       inkscape:transform-center-x="48.418766"
       inkscape:transform-center-y="-83.863729"><path
         id="path9"
         style="opacity:1;fill:#ccff00;fill-opacity:1;stroke:none;stroke-width:0;stroke-linecap:round;stroke-dasharray:none;stroke-opacity:1;paint-order:stroke fill markers"
         d="m -26.758415,269.38428 a 19.049997,19.049997 0 0 0 -19.049998,19.05 19.049997,19.049997 0 0 0 19.049998,19.05 19.049997,19.049997 0 0 0 19.0499979,-19.05 19.049997,19.049997 0 0 0 -19.0499979,-19.05 z m 0,1.5875 a 17.462498,17.462498 0 0 1 17.4624981,17.4625 17.462498,17.462498 0 0 1 -17.4624981,17.4625 17.462498,17.462498 0 0 1 -17.462498,-17.4625 17.462498,17.462498 0 0 1 17.462498,-17.4625 z" /><path
         id="path11"
         style="display:inline;opacity:1;fill:#ccff00;fill-opacity:1;stroke:none;stroke-width:0;stroke-linecap:round;stroke-dasharray:none;stroke-opacity:1;paint-order:stroke fill markers"
         d="m -26.758415,272.55928 a 15.874998,15.874998 0 0 0 -15.874998,15.875 15.874998,15.874998 0 0 0 15.874998,15.875 15.874998,15.874998 0 0 0 15.874998,-15.875 15.874998,15.874998 0 0 0 -15.874998,-15.875 z m 0,1.5875 a 14.287498,14.287498 0 0 1 14.287498,14.2875 14.287498,14.287498 0 0 1 -14.287498,14.2875 14.287498,14.287498 0 0 1 -14.287499,-14.2875 14.287498,14.287498 0 0 1 14.287499,-14.2875 z" /></g><g
       id="g14"
       transform="matrix(-0.96592583,-0.25881904,-0.25881904,0.96592583,660.78688,-243.09311)"
       style="display:inline;fill:#ccff00"
       inkscape:transform-center-x="-48.418732"
       inkscape:transform-center-y="-83.863748"><path
         id="path12"
         style="opacity:1;fill:#ccff00;fill-opacity:1;stroke:none;stroke-width:0;stroke-linecap:round;stroke-dasharray:none;stroke-opacity:1;paint-order:stroke fill markers"
         d="m -26.758415,269.38428 a 19.049997,19.049997 0 0 0 -19.049998,19.05 19.049997,19.049997 0 0 0 19.049998,19.05 19.049997,19.049997 0 0 0 19.0499979,-19.05 19.049997,19.049997 0 0 0 -19.0499979,-19.05 z m 0,1.5875 a 17.462498,17.462498 0 0 1 17.4624981,17.4625 17.462498,17.462498 0 0 1 -17.4624981,17.4625 17.462498,17.462498 0 0 1 -17.462498,-17.4625 17.462498,17.462498 0 0 1 17.462498,-17.4625 z" /><path
         id="path14"
         style="display:inline;opacity:1;fill:#ccff00;fill-opacity:1;stroke:none;stroke-width:0;stroke-linecap:round;stroke-dasharray:none;stroke-opacity:1;paint-order:stroke fill markers"
         d="m -26.758415,272.55928 a 15.874998,15.874998 0 0 0 -15.874998,15.875 15.874998,15.874998 0 0 0 15.874998,15.875 15.874998,15.874998 0 0 0 15.874998,-15.875 15.874998,15.874998 0 0 0 -15.874998,-15.875 z m 0,1.5875 a 14.287498,14.287498 0 0 1 14.287498,14.2875 14.287498,14.287498 0 0 1 -14.287498,14.2875 14.287498,14.287498 0 0 1 -14.287499,-14.2875 14.287498,14.287498 0 0 1 14.287499,-14.2875 z" /></g></g><g
     inkscape:groupmode="layer"
     id="layer2"
     inkscape:label="backlit"
     inkscape:highlight-color="#8736a9"
     style="display:none;opacity:1"
     sodipodi:insensitive="true"><circle
       style="fill:#71c837;fill-opacity:0.998008;stroke-width:0.264583;paint-order:markers fill stroke"
       id="path2"
       cx="20.637499"
       cy="265.11249"
       r="11.1125" /><circle
       style="fill:#71c837;fill-opacity:0.998008;stroke-width:0.264583;paint-order:markers fill stroke"
       id="circle2"
       cx="218.54582"
       cy="20.637501"
       r="11.1125" /><circle
       style="fill:#71c837;fill-opacity:0.998008;stroke-width:0.264583;paint-order:markers fill stroke"
       id="circle3"
       cx="416.45416"
       cy="20.637501"
       r="11.1125" /><circle
       style="fill:#71c837;fill-opacity:0.998008;stroke-width:0.264583;paint-order:markers fill stroke"
       id="circle4"
       cx="614.36249"
       cy="265.11249"
       r="11.1125" /><circle
       style="fill:#71c837;fill-opacity:0.998008;stroke-width:0.264583;paint-order:markers fill stroke"
       id="circle5"
       cx="23.018782"
       cy="42.438602"
       r="15.875" /><circle
       style="fill:#71c837;fill-opacity:0.998008;stroke-width:0.264583;paint-order:markers fill stroke"
       id="circle6"
       cx="71.437531"
       cy="29.464838"
       r="15.875" /><circle
       style="fill:#71c837;fill-opacity:0.998008;stroke-width:0.264583;paint-order:markers fill stroke"
       id="circle7"
       cx="119.85627"
       cy="42.438633"
       r="15.875" /><circle
       style="fill:#71c837;fill-opacity:0.998008;stroke-width:0.264584;paint-order:markers fill stroke"
       id="path10"
       cx="33.271431"
       cy="88.136253"
       r="4.7624998" /><circle
       style="fill:#71c837;fill-opacity:0.998008;stroke-width:0.264584;paint-order:markers fill stroke"
       id="circle11"
       cx="109.60361"
       cy="88.136253"
       r="4.7624998" /><circle
       style="fill:#71c837;fill-opacity:0.998008;stroke-width:0.264584;paint-order:markers fill stroke"
       id="circle12"
       cx="33.271431"
       cy="164.46841"
       r="4.7624998" /><circle
       style="fill:#71c837;fill-opacity:0.998008;stroke-width:0.264584;paint-order:markers fill stroke"
       id="circle13"
       cx="109.60361"
       cy="164.46841"
       r="4.7624998" /><circle
       style="fill:#71c837;fill-opacity:0.998008;stroke-width:0.264583;paint-order:markers fill stroke"
       id="path13"
       cx="71.4375"
       cy="89.789848"
       r="22.225" /><circle
       style="fill:#71c837;fill-opacity:0.998008;stroke-width:0.264583;paint-order:markers fill stroke"
       id="circle14"
       cx="34.925014"
       cy="126.30233"
       r="22.225" /><circle
       style="fill:#71c837;fill-opacity:0.998008;stroke-width:0.264583;paint-order:markers fill stroke"
       id="circle15"
       cx="71.437523"
       cy="162.81485"
       r="22.225" /><circle
       style="fill:#71c837;fill-opacity:0.998008;stroke-width:0.264583;paint-order:markers fill stroke"
       id="circle16"
       cx="107.95002"
       cy="126.30233"
       r="22.225" /><circle
       style="fill:#71c837;fill-opacity:0.998008;stroke-width:0.264583;paint-order:markers fill stroke"
       id="circle8"
       cx="515.14374"
       cy="42.438618"
       r="15.875" /><circle
       style="fill:#71c837;fill-opacity:0.998008;stroke-width:0.264583;paint-order:markers fill stroke"
       id="circle9"
       cx="563.5625"
       cy="29.464838"
       r="15.875" /><circle
       style="fill:#71c837;fill-opacity:0.998008;stroke-width:0.264583;paint-order:markers fill stroke"
       id="circle10"
       cx="611.98126"
       cy="42.438599"
       r="15.875" /><circle
       style="fill:#71c837;fill-opacity:0.998008;stroke-width:0.264584;paint-order:markers fill stroke"
       id="circle17"
       cx="525.39642"
       cy="88.136192"
       r="4.7624998" /><circle
       style="fill:#71c837;fill-opacity:0.998008;stroke-width:0.264584;paint-order:markers fill stroke"
       id="circle18"
       cx="601.72858"
       cy="88.136192"
       r="4.7624998" /><circle
       style="fill:#71c837;fill-opacity:0.998008;stroke-width:0.264584;paint-order:markers fill stroke"
       id="circle19"
       cx="525.39642"
       cy="164.46851"
       r="4.7624998" /><circle
       style="fill:#71c837;fill-opacity:0.998008;stroke-width:0.264584;paint-order:markers fill stroke"
       id="circle20"
       cx="601.72858"
       cy="164.46851"
       r="4.7624998" /><circle
       style="fill:#71c837;fill-opacity:0.998008;stroke-width:0.264583;paint-order:markers fill stroke"
       id="circle21"
       cx="563.5625"
       cy="89.789848"
       r="22.225" /><circle
       style="fill:#71c837;fill-opacity:0.998008;stroke-width:0.264583;paint-order:markers fill stroke"
       id="circle22"
       cx="527.04999"
       cy="126.30233"
       r="22.225" /><circle
       style="fill:#71c837;fill-opacity:0.998008;stroke-width:0.264583;paint-order:markers fill stroke"
       id="circle23"
       cx="563.5625"
       cy="162.81485"
       r="22.225" /><circle
       style="fill:#71c837;fill-opacity:0.998008;stroke-width:0.264583;paint-order:markers fill stroke"
       id="circle24"
       cx="600.07501"
       cy="126.30233"
       r="22.225" /></g><g
     inkscape:groupmode="layer"
     id="layer5"
     inkscape:label="buttons"
     style="display:none;opacity:1"
     sodipodi:insensitive="true"><title
       id="title1">stop</title><title
       id="title1-7">fast-forward</title><title
       id="title1-8">play</title><title
       id="title1-1">open-in-app</title><title
       id="title1-9">content-save</title><title
       id="title1-5">menu</title><title
       id="title1-6">triangle-outline</title><title
       id="title1-2">square</title><title
       id="title1-07">square-outline</title><title
       id="title1-4">circle-outline</title><title
       id="title1-20">close</title><title
       id="title1-64">window-close</title><title
       id="title1-0">content-save-outline</title><title
       id="title1-15">triangle</title><g
       id="g25"
       transform="translate(99.483298,-306.38749)"><path
         id="path29-0"
         style="fill:#ffffff;fill-opacity:0.3;stroke:none;stroke-width:0.264583;stroke-linecap:butt;stroke-dasharray:none;paint-order:markers fill stroke"
         d="m 119.06253,312.73749 a 14.287499,14.287499 0 0 0 -14.2875,14.2875 14.287499,14.287499 0 0 0 14.2875,14.2875 14.287499,14.287499 0 0 0 14.2875,-14.2875 14.287499,14.287499 0 0 0 -14.2875,-14.2875 z m 0,1.5875 a 12.7,12.7 0 0 1 12.7,12.7 12.7,12.7 0 0 1 -12.7,12.7 12.7,12.7 0 0 1 -12.7,-12.7 12.7,12.7 0 0 1 12.7,-12.7 z" /><path
         id="path30-9"
         style="fill:#ffffff;fill-opacity:0.999817;stroke:none;stroke-width:0.264583;stroke-linecap:butt;stroke-dasharray:none;paint-order:markers fill stroke"
         d="m 119.06253,315.91249 a 11.1125,11.1125 0 0 0 -11.1125,11.1125 11.1125,11.1125 0 0 0 11.1125,11.1125 11.1125,11.1125 0 0 0 11.1125,-11.1125 11.1125,11.1125 0 0 0 -11.1125,-11.1125 z m 0,1.5875 a 9.5249996,9.5249996 0 0 1 9.525,9.525 9.5249996,9.5249996 0 0 1 -9.525,9.525 9.5249996,9.5249996 0 0 1 -9.525,-9.525 9.5249996,9.5249996 0 0 1 9.525,-9.525 z" /><path
         d="m 119.06252,325.96666 -2.11666,2.11667 h 1.58751 v 3.17499 h 1.05834 v -3.17499 h 1.58749 m 1.5875,-5.29167 h -7.40834 c -0.58739,0 -1.05833,0.47624 -1.05833,1.05831 v 6.35002 a 1.0583347,1.0583347 0 0 0 1.05833,1.05833 h 2.11667 v -1.05833 h -2.11667 v -5.29167 h 7.40834 v 5.29167 h -2.11668 v 1.05833 h 2.11668 a 1.0583347,1.0583347 0 0 0 1.05832,-1.05833 v -6.35002 a 1.0583347,1.0583347 0 0 0 -1.05832,-1.05831 z"
         id="path35"
         style="fill:#ffffff;stroke-width:0.264583" /></g><g
       id="g26"
       transform="translate(249.76667,-306.38749)"><path
         id="path31-7"
         style="fill:#ffffff;fill-opacity:0.3;stroke:none;stroke-width:0.264583;stroke-linecap:butt;stroke-dasharray:none;paint-order:markers fill stroke"
         d="m 166.68749,312.73749 a 14.287499,14.287499 0 0 0 -14.2875,14.2875 14.287499,14.287499 0 0 0 14.2875,14.2875 14.287499,14.287499 0 0 0 14.2875,-14.2875 14.287499,14.287499 0 0 0 -14.2875,-14.2875 z m 0,1.5875 a 12.7,12.7 0 0 1 12.7,12.7 12.7,12.7 0 0 1 -12.7,12.7 12.7,12.7 0 0 1 -12.7,-12.7 12.7,12.7 0 0 1 12.7,-12.7 z" /><path
         id="path32-7"
         style="fill:#ffffff;fill-opacity:0.999817;stroke:none;stroke-width:0.264583;stroke-linecap:butt;stroke-dasharray:none;paint-order:markers fill stroke"
         d="m 166.68749,315.91249 a 11.1125,11.1125 0 0 0 -11.1125,11.1125 11.1125,11.1125 0 0 0 11.1125,11.1125 11.1125,11.1125 0 0 0 11.1125,-11.1125 11.1125,11.1125 0 0 0 -11.1125,-11.1125 z m 0,1.5875 a 9.5249996,9.5249996 0 0 1 9.525,9.525 9.5249996,9.5249996 0 0 1 -9.525,9.525 9.5249996,9.5249996 0 0 1 -9.525,-9.525 9.5249996,9.5249996 0 0 1 9.525,-9.525 z" /><path
         d="m 168.275,325.4375 h -5.29167 v -2.11667 h 5.29167 m -1.58751,7.40832 a 1.5875003,1.5875003 0 0 1 -1.58749,-1.58749 1.5875003,1.5875003 0 0 1 1.58749,-1.58751 1.5875003,1.5875003 0 0 1 1.58751,1.58751 1.5875003,1.5875003 0 0 1 -1.58751,1.58749 m 2.64585,-8.46666 h -6.35001 c -0.58738,0 -1.05834,0.47627 -1.05834,1.05834 v 7.40832 a 1.0583334,1.0583334 0 0 0 1.05834,1.05834 h 7.40832 a 1.0583334,1.0583334 0 0 0 1.05834,-1.05834 v -6.35001 z"
         id="path36"
         style="fill:#ffffff;stroke-width:0.264583" /></g><g
       id="g27"
       transform="translate(352.42501,-61.912494)"><path
         id="path33-1"
         style="fill:#ffffff;fill-opacity:0.3;stroke:none;stroke-width:0.264583;stroke-linecap:butt;stroke-dasharray:none;paint-order:markers fill stroke"
         d="m 261.93749,312.73749 a 14.287499,14.287499 0 0 0 -14.2875,14.2875 14.287499,14.287499 0 0 0 14.2875,14.2875 14.287499,14.287499 0 0 0 14.2875,-14.2875 14.287499,14.287499 0 0 0 -14.2875,-14.2875 z m 0,1.5875 a 12.7,12.7 0 0 1 12.7,12.7 12.7,12.7 0 0 1 -12.7,12.7 12.7,12.7 0 0 1 -12.7,-12.7 12.7,12.7 0 0 1 12.7,-12.7 z" /><path
         id="path34-5"
         style="fill:#ffffff;fill-opacity:0.999817;stroke:none;stroke-width:0.264583;stroke-linecap:butt;stroke-dasharray:none;paint-order:markers fill stroke"
         d="m 261.93749,315.91249 a 11.1125,11.1125 0 0 0 -11.1125,11.1125 11.1125,11.1125 0 0 0 11.1125,11.1125 11.1125,11.1125 0 0 0 11.1125,-11.1125 11.1125,11.1125 0 0 0 -11.1125,-11.1125 z m 0,1.5875 a 9.5249996,9.5249996 0 0 1 9.525,9.525 9.5249996,9.5249996 0 0 1 -9.525,9.525 9.5249996,9.5249996 0 0 1 -9.525,-9.525 9.5249996,9.5249996 0 0 1 9.525,-9.525 z" /><path
         d="m 257.17499,323.85 h 9.52499 v 1.05834 h -9.52499 V 323.85 m 0,2.64583 h 9.52499 v 1.05832 h -9.52499 v -1.05832 m 0,2.64581 h 9.52499 v 1.05834 h -9.52499 z"
         id="path37"
         style="fill:#ffffff;stroke-width:0.264583" /></g><g
       id="g24"
       transform="translate(-3.175026,-61.912494)"><path
         id="path27-9"
         style="fill:#ffffff;fill-opacity:0.3;stroke:none;stroke-width:0.264583;stroke-linecap:butt;stroke-dasharray:none;paint-order:markers fill stroke"
         d="m 23.812525,312.73749 a 14.287499,14.287499 0 0 0 -14.287499,14.2875 14.287499,14.287499 0 0 0 14.287499,14.2875 14.287499,14.287499 0 0 0 14.2875,-14.2875 14.287499,14.287499 0 0 0 -14.2875,-14.2875 z m 0,1.5875 a 12.7,12.7 0 0 1 12.7,12.7 12.7,12.7 0 0 1 -12.7,12.7 12.7,12.7 0 0 1 -12.699999,-12.7 12.7,12.7 0 0 1 12.699999,-12.7 z" /><path
         id="path28-4"
         style="fill:#ffffff;fill-opacity:1;stroke:none;stroke-width:0.264583;stroke-linecap:butt;stroke-dasharray:none;paint-order:markers fill stroke"
         d="m 23.812525,315.91249 a 11.1125,11.1125 0 0 0 -11.112499,11.1125 11.1125,11.1125 0 0 0 11.112499,11.1125 11.1125,11.1125 0 0 0 11.1125,-11.1125 11.1125,11.1125 0 0 0 -11.1125,-11.1125 z m 0,1.5875 a 9.5249996,9.5249996 0 0 1 9.525,9.525 9.5249996,9.5249996 0 0 1 -9.525,9.525 9.5249996,9.5249996 0 0 1 -9.524999,-9.525 9.5249996,9.5249996 0 0 1 9.524999,-9.525 z" /><path
         d="m 24.719789,323.75884 v 6.5323 l 4.627045,-3.26615 m -9.526269,3.26615 4.627046,-3.26615 -4.627046,-3.26615 z"
         id="path38"
         style="fill:#ffffff;stroke-width:0.264583" /></g><g
       id="g34"
       transform="translate(-2.7881678e-6,-330.89763)"><text
         xml:space="preserve"
         style="font-style:normal;font-variant:normal;font-weight:bold;font-stretch:normal;font-size:14.8167px;line-height:18.6667px;font-family:Roboto;-inkscape-font-specification:'Roboto, Bold';font-variant-ligatures:none;font-variant-caps:normal;font-variant-numeric:normal;font-variant-east-asian:normal;text-align:center;letter-spacing:0px;word-spacing:0px;text-anchor:middle;display:inline;fill:#ffffff;fill-opacity:0.957675;stroke:none;stroke-width:0.264583;stroke-linecap:round;stroke-dasharray:none;stroke-opacity:1;paint-order:stroke fill markers"
         x="72.320168"
         y="365.6366"
         id="text273-6"><tspan
           sodipodi:role="line"
           id="tspan273-39"
           style="font-style:normal;font-variant:normal;font-weight:bold;font-stretch:normal;font-size:14.8167px;line-height:18.6667px;font-family:Roboto;-inkscape-font-specification:'Roboto, Bold';font-variant-ligatures:none;font-variant-caps:normal;font-variant-numeric:normal;font-variant-east-asian:normal;fill:#ffffff;fill-opacity:0.957675;stroke-width:0.264583"
           x="72.320168"
           y="365.6366">L1</tspan></text><path
         id="path293-5"
         style="fill:#ffffff;fill-opacity:0.3;stroke:none;stroke-width:0;stroke-linecap:round;stroke-dasharray:none;stroke-opacity:1;paint-order:stroke fill markers"
         d="M 76.368037,341.96159 A 19.049997,19.049997 0 0 0 53.03665,355.43198 19.049997,19.049997 0 0 0 66.507032,378.76337 19.049997,19.049997 0 0 0 89.83842,365.29298 19.049997,19.049997 0 0 0 76.368037,341.96159 Z M 75.957162,343.495 A 17.462498,17.462498 0 0 1 88.305013,364.88211 17.462498,17.462498 0 0 1 66.917907,377.22996 17.462498,17.462498 0 0 1 54.570057,355.84285 17.462498,17.462498 0 0 1 75.957162,343.495 Z" /><path
         id="path294-9"
         style="display:inline;fill:#ffffff;fill-opacity:1;stroke:none;stroke-width:0;stroke-linecap:round;stroke-dasharray:none;stroke-opacity:1;paint-order:stroke fill markers"
         d="m 75.546287,345.02841 a 15.874998,15.874998 0 0 0 -19.442823,11.22532 15.874998,15.874998 0 0 0 11.225318,19.44282 15.874998,15.874998 0 0 0 19.442823,-11.22532 15.874998,15.874998 0 0 0 -11.225318,-19.44282 z m -0.410875,1.53341 A 14.287498,14.287498 0 0 1 85.238198,364.06036 14.287498,14.287498 0 0 1 67.739658,374.16315 14.287498,14.287498 0 0 1 57.63687,356.6646 14.287498,14.287498 0 0 1 75.135412,346.56182 Z" /></g><g
       id="g31"
       transform="translate(349.25,-330.89764)"><text
         xml:space="preserve"
         style="font-style:normal;font-variant:normal;font-weight:bold;font-stretch:normal;font-size:14.8167px;line-height:19.4255px;font-family:Roboto;-inkscape-font-specification:'Roboto, Bold';font-variant-ligatures:none;font-variant-caps:normal;font-variant-numeric:normal;font-variant-east-asian:normal;text-align:center;letter-spacing:0px;word-spacing:0px;text-anchor:middle;display:inline;fill:#ffffff;fill-opacity:0.957675;stroke:none;stroke-width:0.264583;stroke-linecap:round;stroke-dasharray:none;stroke-opacity:1;paint-order:stroke fill markers"
         x="215.19513"
         y="365.6366"
         id="text278-36"><tspan
           sodipodi:role="line"
           id="tspan278-5"
           style="font-style:normal;font-variant:normal;font-weight:bold;font-stretch:normal;font-size:14.8167px;font-family:Roboto;-inkscape-font-specification:'Roboto, Bold';font-variant-ligatures:none;font-variant-caps:normal;font-variant-numeric:normal;font-variant-east-asian:normal;fill:#ffffff;fill-opacity:0.957675;stroke-width:0.264583"
           x="215.19513"
           y="365.6366">R1</tspan></text><path
         id="path308-8"
         style="fill:#ffffff;fill-opacity:0.3;stroke:none;stroke-width:0;stroke-linecap:round;stroke-dasharray:none;stroke-opacity:1;paint-order:stroke fill markers"
         d="m 219.24299,341.9616 a 19.049997,19.049997 0 0 0 -23.33138,13.47038 19.049997,19.049997 0 0 0 13.47038,23.33139 19.049997,19.049997 0 0 0 23.33139,-13.47039 19.049997,19.049997 0 0 0 -13.47039,-23.33138 z m -0.41087,1.5334 a 17.462498,17.462498 0 0 1 12.34785,21.38711 17.462498,17.462498 0 0 1 -21.38711,12.34785 17.462498,17.462498 0 0 1 -12.34785,-21.3871 17.462498,17.462498 0 0 1 21.38711,-12.34786 z" /><path
         id="path309-9"
         style="display:inline;fill:#ffffff;fill-opacity:1;stroke:none;stroke-width:0;stroke-linecap:round;stroke-dasharray:none;stroke-opacity:1;paint-order:stroke fill markers"
         d="m 218.42124,345.02841 a 15.874998,15.874998 0 0 0 -19.44282,11.22532 15.874998,15.874998 0 0 0 11.22532,19.44283 15.874998,15.874998 0 0 0 19.44282,-11.22533 15.874998,15.874998 0 0 0 -11.22532,-19.44282 z m -0.41087,1.53341 a 14.287498,14.287498 0 0 1 10.10278,17.49854 14.287498,14.287498 0 0 1 -17.49854,10.10279 14.287498,14.287498 0 0 1 -10.10278,-17.49854 14.287498,14.287498 0 0 1 17.49854,-10.10279 z" /></g><g
       id="g29"
       transform="translate(350.04374,-330.68495)"><text
         xml:space="preserve"
         style="font-style:normal;font-variant:normal;font-weight:bold;font-stretch:normal;font-size:14.8167px;line-height:19.4255px;font-family:Roboto;-inkscape-font-specification:'Roboto, Bold';font-variant-ligatures:none;font-variant-caps:normal;font-variant-numeric:normal;font-variant-east-asian:normal;text-align:center;letter-spacing:0px;word-spacing:0px;text-anchor:middle;display:inline;fill:#ffffff;fill-opacity:0.957675;stroke:none;stroke-width:0.264583;stroke-linecap:round;stroke-dasharray:none;stroke-opacity:1;paint-order:stroke fill markers"
         x="261.74939"
         y="378.46277"
         id="text280-6"><tspan
           sodipodi:role="line"
           id="tspan280-7"
           style="font-style:normal;font-variant:normal;font-weight:bold;font-stretch:normal;font-size:14.8167px;font-family:Roboto;-inkscape-font-specification:'Roboto, Bold';font-variant-ligatures:none;font-variant-caps:normal;font-variant-numeric:normal;font-variant-east-asian:normal;fill:#ffffff;fill-opacity:0.957675;stroke-width:0.264583"
           x="261.74939"
           y="378.46277">R2</tspan></text><path
         id="path310-4"
         style="fill:#ffffff;fill-opacity:0.3;stroke:none;stroke-width:0;stroke-linecap:round;stroke-dasharray:none;stroke-opacity:1;paint-order:stroke fill markers"
         d="m 275.40789,359.65317 a 19.049997,19.049997 0 0 0 -26.94077,0 19.049997,19.049997 0 0 0 0,26.94076 19.049997,19.049997 0 0 0 26.94076,0 19.049997,19.049997 0 0 0 1e-5,-26.94076 z m -1.12254,1.12253 a 17.462498,17.462498 0 0 1 0,24.6957 17.462498,17.462498 0 0 1 -24.6957,0 17.462498,17.462498 0 0 1 0,-24.6957 17.462498,17.462498 0 0 1 24.6957,0 z" /><path
         id="path311-3"
         style="display:inline;fill:#ffffff;fill-opacity:1;stroke:none;stroke-width:0;stroke-linecap:round;stroke-dasharray:none;stroke-opacity:1;paint-order:stroke fill markers"
         d="m 273.16282,361.89823 a 15.874998,15.874998 0 0 0 -22.45064,0 15.874998,15.874998 0 0 0 0,22.45064 15.874998,15.874998 0 0 0 22.45064,0 15.874998,15.874998 0 0 0 0,-22.45064 z m -1.12253,1.12253 a 14.287498,14.287498 0 0 1 0,20.20558 14.287498,14.287498 0 0 1 -20.20558,0 14.287498,14.287498 0 0 1 0,-20.20558 14.287498,14.287498 0 0 1 20.20558,0 z" /></g><g
       id="g32"
       transform="translate(348.45625,-330.68496)"><path
         id="path306-8"
         style="fill:#ffffff;fill-opacity:0.3;stroke:none;stroke-width:0;stroke-linecap:round;stroke-dasharray:none;stroke-opacity:1;paint-order:stroke fill markers"
         d="m 161.75699,354.72269 a 19.049997,19.049997 0 0 0 -13.47038,23.33139 19.049997,19.049997 0 0 0 23.33139,13.47038 19.049997,19.049997 0 0 0 13.47038,-23.33139 19.049997,19.049997 0 0 0 -23.33139,-13.47038 z m 0.41088,1.5334 a 17.462498,17.462498 0 0 1 21.3871,12.34786 17.462498,17.462498 0 0 1 -12.34785,21.3871 17.462498,17.462498 0 0 1 -21.3871,-12.34785 17.462498,17.462498 0 0 1 12.34785,-21.38711 z" /><path
         id="path307-3"
         style="display:inline;fill:#ffffff;fill-opacity:1;stroke:none;stroke-width:0;stroke-linecap:round;stroke-dasharray:none;stroke-opacity:1;paint-order:stroke fill markers"
         d="m 162.57874,357.7895 a 15.874998,15.874998 0 0 0 -11.22532,19.44283 15.874998,15.874998 0 0 0 19.44283,11.22532 15.874998,15.874998 0 0 0 11.22531,-19.44283 15.874998,15.874998 0 0 0 -19.44282,-11.22532 z m 0.41088,1.53341 a 14.287498,14.287498 0 0 1 17.49854,10.10279 14.287498,14.287498 0 0 1 -10.10279,17.49854 14.287498,14.287498 0 0 1 -17.49854,-10.10279 14.287498,14.287498 0 0 1 10.10279,-17.49854 z" /><path
         d="m 163.292,366.64128 v 12.96459 l 10.18646,-6.48231 z"
         id="path1-9"
         style="fill:#ffffff;stroke-width:0.264583" /></g><path
       id="path297-3"
       style="display:inline;fill:#ffffff;fill-opacity:0.3;stroke:none;stroke-width:1.27;stroke-linecap:round;paint-order:markers fill stroke"
       d="m 563.5625,61.21484 a 65.087502,65.087502 0 0 0 -65.0875,65.0875 65.087502,65.087502 0 0 0 65.0875,65.0875 65.087502,65.087502 0 0 0 65.0875,-65.0875 65.087502,65.087502 0 0 0 -65.0875,-65.0875 z m 0,1.5875 a 63.5,63.5 0 0 1 63.5,63.5 63.5,63.5 0 0 1 -63.5,63.5 63.5,63.5 0 0 1 -63.5,-63.5 63.5,63.5 0 0 1 63.5,-63.5 z" /><g
       id="g41"
       transform="translate(349.25,-330.89764)"><path
         d="m 221.45627,488.00768 -1.43895,-1.43894 -5.70478,5.70478 -5.70479,-5.70478 -1.43898,1.43894 5.70479,5.70479 -5.70479,5.70479 1.43898,1.43894 5.70479,-5.70479 5.70478,5.70479 1.43895,-1.43894 -5.70479,-5.70479 z"
         id="path1-68"
         style="fill:#ffffff;stroke-width:0.264583" /><path
         id="path299-0"
         style="display:inline;fill:#ffffff;fill-opacity:1;stroke:none;stroke-width:1.27;stroke-linecap:round;paint-order:markers fill stroke"
         d="m 214.31252,471.48747 a 22.225,22.225 0 0 0 -22.225,22.225 22.225,22.225 0 0 0 22.225,22.225 22.225,22.225 0 0 0 22.225,-22.225 22.225,22.225 0 0 0 -22.225,-22.225 z m 0,1.5875 a 20.637499,20.637499 0 0 1 20.6375,20.6375 20.637499,20.637499 0 0 1 -20.6375,20.6375 20.637499,20.637499 0 0 1 -20.6375,-20.6375 20.637499,20.637499 0 0 1 20.6375,-20.6375 z" /></g><g
       id="g42"
       transform="translate(349.25,-330.89764)"><path
         d="m 250.82502,463.54998 a 6.3499983,6.3499983 0 0 1 -6.35001,-6.35001 6.3499983,6.3499983 0 0 1 6.35001,-6.35001 6.3499983,6.3499983 0 0 1 6.35001,6.35001 6.3499983,6.3499983 0 0 1 -6.35001,6.35001 m 0,-14.2875 a 7.937498,7.937498 0 0 0 -7.93749,7.93749 7.937498,7.937498 0 0 0 7.93749,7.93749 7.937498,7.937498 0 0 0 7.93749,-7.93749 7.937498,7.937498 0 0 0 -7.93749,-7.93749 z"
         id="path1-3"
         style="fill:#ffffff;stroke-width:0.264583" /><path
         id="path300-9"
         style="display:inline;fill:#ffffff;fill-opacity:1;stroke:none;stroke-width:1.27;stroke-linecap:round;paint-order:markers fill stroke"
         d="m 250.82502,434.97497 a 22.225,22.225 0 0 0 -22.225,22.225 22.225,22.225 0 0 0 22.225,22.225 22.225,22.225 0 0 0 22.225,-22.225 22.225,22.225 0 0 0 -22.225,-22.225 z m 0,1.5875 a 20.637499,20.637499 0 0 1 20.6375,20.6375 20.637499,20.637499 0 0 1 -20.6375,20.6375 20.637499,20.637499 0 0 1 -20.6375,-20.6375 20.637499,20.637499 0 0 1 20.6375,-20.6375 z" /></g><g
       id="g40"
       transform="translate(349.25,-330.89764)"><path
         d="m 170.65627,450.05622 h 14.28749 v 14.2875 h -14.28749 v -14.2875 m 1.58748,1.58751 v 11.11251 h 11.11251 v -11.11251 z"
         id="path1-8"
         style="fill:#ffffff;stroke-width:0.264583" /><path
         id="path301-2"
         style="display:inline;fill:#ffffff;fill-opacity:1;stroke:none;stroke-width:1.27;stroke-linecap:round;paint-order:markers fill stroke"
         d="m 177.80002,434.97497 a 22.225,22.225 0 0 0 -22.225,22.225 22.225,22.225 0 0 0 22.225,22.225 22.225,22.225 0 0 0 22.225,-22.225 22.225,22.225 0 0 0 -22.225,-22.225 z m 0,1.5875 a 20.637499,20.637499 0 0 1 20.6375,20.6375 20.637499,20.637499 0 0 1 -20.6375,20.6375 20.637499,20.637499 0 0 1 -20.6375,-20.6375 20.637499,20.637499 0 0 1 20.6375,-20.6375 z" /></g><path
       id="path302-5"
       style="display:inline;fill:#ffffff;fill-opacity:0.3;stroke:none;stroke-width:0;stroke-linecap:round;stroke-dasharray:none;stroke-opacity:1;paint-order:stroke fill markers"
       d="m 601.7286,92.89875 a 4.7624993,4.7624993 0 0 0 4.76251,-4.7625 4.7624993,4.7624993 0 0 0 -4.76251,-4.76251 4.7624993,4.7624993 0 0 0 -4.7625,4.76251 4.7624993,4.7624993 0 0 0 4.7625,4.7625 z m 0,-1.58751 a 3.1749997,3.1749997 0 0 1 -3.17499,-3.17499 3.1749997,3.1749997 0 0 1 3.17499,-3.175 3.1749997,3.1749997 0 0 1 3.175,3.175 3.1749997,3.1749997 0 0 1 -3.175,3.17499 z"
       inkscape:transform-center-y="-38.166086"
       inkscape:transform-center-x="-38.166086" /><path
       id="path303-4"
       style="display:inline;fill:#ffffff;fill-opacity:0.3;stroke:none;stroke-width:0;stroke-linecap:round;stroke-dasharray:none;stroke-opacity:1;paint-order:stroke fill markers"
       d="m 596.9661,164.46841 a 4.7624993,4.7624993 0 0 0 4.7625,4.76251 4.7624993,4.7624993 0 0 0 4.76251,-4.76251 4.7624993,4.7624993 0 0 0 -4.76251,-4.7625 4.7624993,4.7624993 0 0 0 -4.7625,4.7625 z m 1.58751,0 a 3.1749997,3.1749997 0 0 1 3.17499,-3.17499 3.1749997,3.1749997 0 0 1 3.175,3.17499 3.1749997,3.1749997 0 0 1 -3.175,3.175 3.1749997,3.1749997 0 0 1 -3.17499,-3.175 z"
       inkscape:transform-center-x="-38.166086"
       inkscape:transform-center-y="38.166086" /><path
       id="path304-0"
       style="display:inline;fill:#ffffff;fill-opacity:0.3;stroke:none;stroke-width:0;stroke-linecap:round;stroke-dasharray:none;stroke-opacity:1;paint-order:stroke fill markers"
       d="m 525.39644,159.70591 a 4.7624993,4.7624993 0 0 0 -4.76251,4.7625 4.7624993,4.7624993 0 0 0 4.76251,4.76251 4.7624993,4.7624993 0 0 0 4.7625,-4.76251 4.7624993,4.7624993 0 0 0 -4.7625,-4.7625 z m 0,1.58751 a 3.1749997,3.1749997 0 0 1 3.17499,3.17499 3.1749997,3.1749997 0 0 1 -3.17499,3.175 3.1749997,3.1749997 0 0 1 -3.175,-3.175 3.1749997,3.1749997 0 0 1 3.175,-3.17499 z"
       inkscape:transform-center-y="38.166086"
       inkscape:transform-center-x="38.166086" /><path
       id="path305-5"
       style="display:inline;fill:#ffffff;fill-opacity:0.3;stroke:none;stroke-width:0;stroke-linecap:round;stroke-dasharray:none;stroke-opacity:1;paint-order:stroke fill markers"
       d="m 530.15894,88.13625 a 4.7624993,4.7624993 0 0 0 -4.7625,-4.76251 4.7624993,4.7624993 0 0 0 -4.76251,4.76251 4.7624993,4.7624993 0 0 0 4.76251,4.7625 4.7624993,4.7624993 0 0 0 4.7625,-4.7625 z m -1.58751,0 a 3.1749997,3.1749997 0 0 1 -3.17499,3.17499 3.1749997,3.1749997 0 0 1 -3.175,-3.17499 3.1749997,3.1749997 0 0 1 3.175,-3.175 3.1749997,3.1749997 0 0 1 3.17499,3.175 z"
       inkscape:transform-center-x="38.166086"
       inkscape:transform-center-y="-38.166086" /><path
       id="path316-2"
       style="fill:#ffffff;fill-opacity:0.3;stroke:none;stroke-width:1.27;stroke-linecap:round;paint-order:markers fill stroke"
       d="m 549.81208,202.86486 a 36.512501,36.512501 0 0 0 -42.29812,29.61747 36.512501,36.512501 0 0 0 29.61746,42.29812 36.512501,36.512501 0 0 0 42.29812,-29.61746 36.512501,36.512501 0 0 0 -29.61746,-42.29813 z m -0.27567,1.56339 a 34.924999,34.924999 0 0 1 28.32975,40.45907 34.924999,34.924999 0 0 1 -40.45907,28.32975 34.924999,34.924999 0 0 1 -28.32975,-40.45908 34.924999,34.924999 0 0 1 40.45907,-28.32974 z" /><path
       id="path317-2"
       style="fill:#ffffff;fill-opacity:0.998008;stroke:none;stroke-width:1.27;stroke-linecap:round;paint-order:markers fill stroke"
       d="m 547.88241,213.80854 a 25.4,25.4 0 0 0 -29.42478,20.60345 25.4,25.4 0 0 0 20.60345,29.42478 25.4,25.4 0 0 0 29.42478,-20.60345 25.4,25.4 0 0 0 -20.60345,-29.42478 z m -0.27566,1.56338 a 23.8125,23.8125 0 0 1 19.31573,27.58573 23.8125,23.8125 0 0 1 -27.58573,19.31574 23.8125,23.8125 0 0 1 -19.31574,-27.58573 23.8125,23.8125 0 0 1 27.58574,-19.31574 z" /><g
       id="g43"
       transform="translate(349.25,-330.89764)"><path
         id="path298-3"
         style="display:inline;fill:#ffffff;fill-opacity:1;stroke:none;stroke-width:1.27;stroke-linecap:round;paint-order:markers fill stroke"
         d="m 214.3125,398.46248 a 22.225,22.225 0 0 0 -22.225,22.225 22.225,22.225 0 0 0 22.225,22.225 22.225,22.225 0 0 0 22.225,-22.225 22.225,22.225 0 0 0 -22.225,-22.225 z m 0,1.5875 a 20.637499,20.637499 0 0 1 20.6375,20.6375 20.637499,20.637499 0 0 1 -20.6375,20.6375 20.637499,20.637499 0 0 1 -20.6375,-20.6375 20.637499,20.637499 0 0 1 20.6375,-20.6375 z" /><path
         d="m 214.3125,410.63333 -8.73126,15.08123 h 17.46252 m -8.73126,-11.90624 5.97693,10.31877 h -11.95386"
         id="path42"
         style="fill:#ffffff;stroke-width:0.264583" /></g><g
       id="g35"
       transform="translate(-0.7937439,-330.68494)"><text
         xml:space="preserve"
         style="font-style:normal;font-variant:normal;font-weight:bold;font-stretch:normal;font-size:14.8167px;line-height:18.6667px;font-family:Roboto;-inkscape-font-specification:'Roboto, Bold';font-variant-ligatures:none;font-variant-caps:normal;font-variant-numeric:normal;font-variant-east-asian:normal;text-align:center;letter-spacing:0px;word-spacing:0px;text-anchor:middle;display:inline;fill:#ffffff;fill-opacity:0.957675;stroke:none;stroke-width:0.264583;stroke-linecap:round;stroke-dasharray:none;stroke-opacity:1;paint-order:stroke fill markers"
         x="23.624422"
         y="378.46277"
         id="text271-4"><tspan
           sodipodi:role="line"
           id="tspan271-8"
           style="font-style:normal;font-variant:normal;font-weight:bold;font-stretch:normal;font-size:14.8167px;line-height:18.6667px;font-family:Roboto;-inkscape-font-specification:'Roboto, Bold';font-variant-ligatures:none;font-variant-caps:normal;font-variant-numeric:normal;font-variant-east-asian:normal;fill:#ffffff;fill-opacity:0.957675;stroke-width:0.264583"
           x="23.624422"
           y="378.46277">L2</tspan></text><path
         id="path291-4"
         style="fill:#ffffff;fill-opacity:0.3;stroke:none;stroke-width:0;stroke-linecap:round;stroke-dasharray:none;stroke-opacity:1;paint-order:stroke fill markers"
         d="M 18.882022,354.72266 A 19.049997,19.049997 0 0 0 5.4116402,378.05405 19.049997,19.049997 0 0 0 28.743028,391.52443 19.049997,19.049997 0 0 0 42.21341,368.19304 19.049997,19.049997 0 0 0 18.882022,354.72266 Z m 0.410876,1.5334 a 17.462498,17.462498 0 0 1 21.387105,12.34786 17.462498,17.462498 0 0 1 -12.34785,21.3871 A 17.462498,17.462498 0 0 1 6.9450475,377.64317 17.462498,17.462498 0 0 1 19.292898,356.25606 Z" /><path
         id="path292-1"
         style="display:inline;fill:#ffffff;fill-opacity:1;stroke:none;stroke-width:0;stroke-linecap:round;stroke-dasharray:none;stroke-opacity:1;paint-order:stroke fill markers"
         d="M 19.703773,357.78947 A 15.874998,15.874998 0 0 0 8.4784552,377.2323 15.874998,15.874998 0 0 0 27.921277,388.45762 15.874998,15.874998 0 0 0 39.146596,369.01479 15.874998,15.874998 0 0 0 19.703773,357.78947 Z m 0.410875,1.53341 a 14.287498,14.287498 0 0 1 17.49854,10.10279 14.287498,14.287498 0 0 1 -10.102786,17.49854 14.287498,14.287498 0 0 1 -17.498541,-10.10279 14.287498,14.287498 0 0 1 10.102787,-17.49854 z" /></g><g
       id="g33"
       transform="translate(0.79373734,-330.68494)"><path
         d="m 124.61882,378.67987 h -11.11258 v -11.11259 h 11.11258 z"
         id="path1"
         style="fill:#ffffff;stroke-width:0.264583" /><path
         id="path295-5"
         style="fill:#ffffff;fill-opacity:0.3;stroke:none;stroke-width:0;stroke-linecap:round;stroke-dasharray:none;stroke-opacity:1;paint-order:stroke fill markers"
         d="m 132.53292,359.6532 a 19.049997,19.049997 0 0 0 -26.94077,0 19.049997,19.049997 0 0 0 0,26.94076 19.049997,19.049997 0 0 0 26.94076,0 19.049997,19.049997 0 0 0 1e-5,-26.94076 z m -1.12254,1.12253 a 17.462498,17.462498 0 0 1 0,24.6957 17.462498,17.462498 0 0 1 -24.6957,0 17.462498,17.462498 0 0 1 0,-24.6957 17.462498,17.462498 0 0 1 24.6957,0 z" /><path
         id="path296-3"
         style="display:inline;fill:#ffffff;fill-opacity:1;stroke:none;stroke-width:0;stroke-linecap:round;stroke-dasharray:none;stroke-opacity:1;paint-order:stroke fill markers"
         d="m 130.28785,361.89826 a 15.874998,15.874998 0 0 0 -22.45064,0 15.874998,15.874998 0 0 0 0,22.45064 15.874998,15.874998 0 0 0 22.45064,0 15.874998,15.874998 0 0 0 0,-22.45064 z m -1.12253,1.12253 a 14.287498,14.287498 0 0 1 0,20.20558 14.287498,14.287498 0 0 1 -20.20558,0 14.287498,14.287498 0 0 1 0,-20.20558 14.287498,14.287498 0 0 1 20.20558,0 z" /></g><path
       id="path282-0"
       style="display:inline;fill:#ffffff;fill-opacity:0.3;stroke:none;stroke-width:1.27;stroke-linecap:round;paint-order:markers fill stroke"
       d="M 71.4375,61.21485 A 65.087502,65.087502 0 0 0 6.3499999,126.30235 65.087502,65.087502 0 0 0 71.4375,191.38985 65.087502,65.087502 0 0 0 136.525,126.30235 65.087502,65.087502 0 0 0 71.4375,61.21485 Z m 0,1.5875 a 63.5,63.5 0 0 1 63.5,63.5 63.5,63.5 0 0 1 -63.5,63.5 63.5,63.5 0 0 1 -63.5000001,-63.5 63.5,63.5 0 0 1 63.5000001,-63.5 z" /><g
       id="g36"
       transform="translate(0,-330.89763)"><path
         d="m 62.706255,425.71456 h 17.46249 l -8.73123,-15.08123"
         id="path1-54"
         style="fill:#ffffff;stroke-width:0.264583" /><path
         id="path283-8"
         style="display:inline;fill:#ffffff;fill-opacity:1;stroke:none;stroke-width:1.27;stroke-linecap:round;paint-order:markers fill stroke"
         d="m 71.4375,398.46248 a 22.225,22.225 0 0 0 -22.225,22.225 22.225,22.225 0 0 0 22.225,22.225 22.225,22.225 0 0 0 22.225,-22.225 22.225,22.225 0 0 0 -22.225,-22.225 z m 0,1.5875 a 20.637499,20.637499 0 0 1 20.6375,20.6375 20.637499,20.637499 0 0 1 -20.6375,20.6375 20.637499,20.637499 0 0 1 -20.6375,-20.6375 20.637499,20.637499 0 0 1 20.6375,-20.6375 z" /></g><path
       id="path287-7"
       style="display:inline;fill:#ffffff;fill-opacity:0.3;stroke:none;stroke-width:0;stroke-linecap:round;stroke-dasharray:none;stroke-opacity:1;paint-order:stroke fill markers"
       d="m 109.6036,92.89876 a 4.7624993,4.7624993 0 0 0 4.76251,-4.7625 4.7624993,4.7624993 0 0 0 -4.76251,-4.76251 4.7624993,4.7624993 0 0 0 -4.7625,4.76251 4.7624993,4.7624993 0 0 0 4.7625,4.7625 z m 0,-1.58751 a 3.1749997,3.1749997 0 0 1 -3.17499,-3.17499 3.1749997,3.1749997 0 0 1 3.17499,-3.175 3.1749997,3.1749997 0 0 1 3.175,3.175 3.1749997,3.1749997 0 0 1 -3.175,3.17499 z"
       inkscape:transform-center-y="-38.166086"
       inkscape:transform-center-x="-38.166086" /><path
       id="path288-7"
       style="display:inline;fill:#ffffff;fill-opacity:0.3;stroke:none;stroke-width:0;stroke-linecap:round;stroke-dasharray:none;stroke-opacity:1;paint-order:stroke fill markers"
       d="m 104.8411,164.46842 a 4.7624993,4.7624993 0 0 0 4.7625,4.76251 4.7624993,4.7624993 0 0 0 4.76251,-4.76251 4.7624993,4.7624993 0 0 0 -4.76251,-4.7625 4.7624993,4.7624993 0 0 0 -4.7625,4.7625 z m 1.58751,0 a 3.1749997,3.1749997 0 0 1 3.17499,-3.17499 3.1749997,3.1749997 0 0 1 3.175,3.17499 3.1749997,3.1749997 0 0 1 -3.175,3.175 3.1749997,3.1749997 0 0 1 -3.17499,-3.175 z"
       inkscape:transform-center-x="-38.166086"
       inkscape:transform-center-y="38.166086" /><path
       id="path289-6"
       style="display:inline;fill:#ffffff;fill-opacity:0.3;stroke:none;stroke-width:0;stroke-linecap:round;stroke-dasharray:none;stroke-opacity:1;paint-order:stroke fill markers"
       d="m 33.27144,159.70592 a 4.7624993,4.7624993 0 0 0 -4.76251,4.7625 4.7624993,4.7624993 0 0 0 4.76251,4.76251 4.7624993,4.7624993 0 0 0 4.7625,-4.76251 4.7624993,4.7624993 0 0 0 -4.7625,-4.7625 z m 0,1.58751 a 3.1749997,3.1749997 0 0 1 3.17499,3.17499 3.1749997,3.1749997 0 0 1 -3.17499,3.175 3.1749997,3.1749997 0 0 1 -3.175,-3.175 3.1749997,3.1749997 0 0 1 3.175,-3.17499 z"
       inkscape:transform-center-y="38.166086"
       inkscape:transform-center-x="38.166086" /><path
       id="path290-4"
       style="display:inline;fill:#ffffff;fill-opacity:0.3;stroke:none;stroke-width:0;stroke-linecap:round;stroke-dasharray:none;stroke-opacity:1;paint-order:stroke fill markers"
       d="m 38.03394,88.13626 a 4.7624993,4.7624993 0 0 0 -4.7625,-4.76251 4.7624993,4.7624993 0 0 0 -4.76251,4.76251 4.7624993,4.7624993 0 0 0 4.76251,4.7625 4.7624993,4.7624993 0 0 0 4.7625,-4.7625 z m -1.58751,0 a 3.1749997,3.1749997 0 0 1 -3.17499,3.17499 3.1749997,3.1749997 0 0 1 -3.175,-3.17499 3.1749997,3.1749997 0 0 1 3.175,-3.175 3.1749997,3.1749997 0 0 1 3.17499,3.175 z"
       inkscape:transform-center-x="38.166086"
       inkscape:transform-center-y="-38.166086" /><path
       id="path312-4"
       style="fill:#ffffff;fill-opacity:0.3;stroke:none;stroke-width:1.27;stroke-linecap:round;paint-order:markers fill stroke"
       d="M 85.187928,202.86488 A 36.512501,36.512501 0 0 0 55.570465,245.163 36.512501,36.512501 0 0 0 97.868586,274.78046 36.512501,36.512501 0 0 0 127.48605,232.48234 36.512501,36.512501 0 0 0 85.187928,202.86488 Z m 0.275667,1.56338 a 34.924999,34.924999 0 0 1 40.459075,28.32975 34.924999,34.924999 0 0 1 -28.32975,40.45907 34.924999,34.924999 0 0 1 -40.459074,-28.32975 34.924999,34.924999 0 0 1 28.329749,-40.45907 z" /><path
       id="path313-6"
       style="fill:#ffffff;fill-opacity:1;stroke:none;stroke-width:1.27;stroke-linecap:round;paint-order:markers fill stroke"
       d="M 87.117594,213.80855 A 25.4,25.4 0 0 0 66.51414,243.23333 25.4,25.4 0 0 0 95.938921,263.83679 25.4,25.4 0 0 0 116.54238,234.41201 25.4,25.4 0 0 0 87.117594,213.80855 Z m 0.275666,1.56338 A 23.8125,23.8125 0 0 1 114.979,234.68767 23.8125,23.8125 0 0 1 95.663254,262.2734 23.8125,23.8125 0 0 1 68.077523,242.95767 23.8125,23.8125 0 0 1 87.39326,215.37193 Z" /><g
       id="g38"
       transform="translate(0,-330.89763)"><path
         d="m 102.92294,448.46873 v 17.46249 l 15.08123,-8.73123"
         id="path44"
         style="display:inline;fill:#ffffff;stroke-width:0.264583" /><path
         id="path45"
         style="display:inline;fill:#ffffff;fill-opacity:1;stroke:none;stroke-width:1.27;stroke-linecap:round;paint-order:markers fill stroke"
         d="m 130.17502,457.19997 a 22.225,22.225 0 0 0 -22.225,-22.225 22.225,22.225 0 0 0 -22.224998,22.225 22.225,22.225 0 0 0 22.224998,22.225 22.225,22.225 0 0 0 22.225,-22.225 z m -1.5875,0 a 20.637499,20.637499 0 0 1 -20.6375,20.6375 20.637499,20.637499 0 0 1 -20.637498,-20.6375 20.637499,20.637499 0 0 1 20.637498,-20.6375 20.637499,20.637499 0 0 1 20.6375,20.6375 z" /></g><g
       id="g39"
       transform="translate(0,-330.89763)"><path
         id="path284-8"
         style="display:inline;fill:#ffffff;fill-opacity:1;stroke:none;stroke-width:1.27;stroke-linecap:round;paint-order:markers fill stroke"
         d="m 71.43752,471.48747 a 22.225,22.225 0 0 0 -22.225,22.225 22.225,22.225 0 0 0 22.225,22.225 22.225,22.225 0 0 0 22.225,-22.225 22.225,22.225 0 0 0 -22.225,-22.225 z m 0,1.5875 a 20.637499,20.637499 0 0 1 20.6375,20.6375 20.637499,20.637499 0 0 1 -20.6375,20.6375 20.637499,20.637499 0 0 1 -20.6375,-20.6375 20.637499,20.637499 0 0 1 20.6375,-20.6375 z" /><path
         d="M 80.16876,488.68539 H 62.70627 l 8.73123,15.08123"
         id="path44-3"
         style="display:inline;fill:#ffffff;stroke-width:0.264583" /></g><g
       id="g37"
       transform="translate(0,-330.89763)"><path
         id="path286-9"
         style="display:inline;fill:#ffffff;fill-opacity:1;stroke:none;stroke-width:1.27;stroke-linecap:round;paint-order:markers fill stroke"
         d="m 34.92502,434.97497 a 22.225,22.225 0 0 0 -22.225,22.225 22.225,22.225 0 0 0 22.225,22.225 22.225,22.225 0 0 0 22.225,-22.225 22.225,22.225 0 0 0 -22.225,-22.225 z m 0,1.5875 a 20.637499,20.637499 0 0 1 20.6375,20.6375 20.637499,20.637499 0 0 1 -20.6375,20.6375 20.637499,20.637499 0 0 1 -20.6375,-20.6375 20.637499,20.637499 0 0 1 20.6375,-20.6375 z" /><path
         d="m 39.9521,448.46873 v 17.46249 l -15.08123,-8.73123"
         id="path44-1"
         style="display:inline;fill:#ffffff;stroke-width:0.264583" /></g></g><g
     inkscape:groupmode="layer"
     id="layer3"
     inkscape:label="active"
     style="display:none;opacity:1"
     sodipodi:insensitive="true"><g
       id="g6"
       inkscape:export-filename="./g6.png"
       inkscape:export-xdpi="96"
       inkscape:export-ydpi="96"
       transform="translate(-1.409539e-6,-330.89764)"><ellipse
         style="display:inline;fill:#71c837;fill-opacity:0.998008;stroke-width:0.264583;paint-order:markers fill stroke"
         id="path24"
         cx="91.528252"
         cy="569.7204"
         rx="25.4"
         ry="25.400005" /><path
         id="path313-6-6"
         style="display:inline;fill:#ffffff;fill-opacity:1;stroke:none;stroke-width:1.27;stroke-linecap:round;paint-order:markers fill stroke"
         d="M 87.117594,544.70618 A 25.4,25.4 0 0 0 66.51414,574.13096 25.4,25.4 0 0 0 95.938921,594.73442 25.4,25.4 0 0 0 116.54238,565.30964 25.4,25.4 0 0 0 87.117594,544.70618 Z m 0.275666,1.56338 A 23.8125,23.8125 0 0 1 114.979,565.5853 23.8125,23.8125 0 0 1 95.663254,593.17103 23.8125,23.8125 0 0 1 68.077523,573.8553 23.8125,23.8125 0 0 1 87.39326,546.26956 Z" /></g><g
       id="g7"
       transform="translate(349.25,-330.89774)"><ellipse
         style="display:inline;fill:#71c837;fill-opacity:0.998008;stroke-width:0.264583;paint-order:markers fill stroke"
         id="ellipse24"
         cx="194.22176"
         cy="569.7204"
         rx="25.4"
         ry="25.400005" /><path
         id="path317-2-2"
         style="display:inline;fill:#ffffff;fill-opacity:0.998008;stroke:none;stroke-width:1.27;stroke-linecap:round;paint-order:markers fill stroke"
         d="m 198.63241,544.70618 a 25.4,25.4 0 0 0 -29.42478,20.60345 25.4,25.4 0 0 0 20.60345,29.42478 25.4,25.4 0 0 0 29.42478,-20.60345 25.4,25.4 0 0 0 -20.60345,-29.42478 z m -0.27566,1.56338 a 23.8125,23.8125 0 0 1 19.31573,27.58573 23.8125,23.8125 0 0 1 -27.58573,19.31574 23.8125,23.8125 0 0 1 -19.31574,-27.58573 23.8125,23.8125 0 0 1 27.58574,-19.31574 z" /></g></g></svg>
