<?xml version="1.0" encoding="UTF-8" standalone="no"?>
<!-- Created with Inkscape (http://www.inkscape.org/) -->

<svg
   width="1080"
   height="2400"
   viewBox="0 0 285.74999 635"
   version="1.1"
   id="svg1"
   xml:space="preserve"
   sodipodi:docname="snes-portrait.svg"
   inkscape:version="1.3.2 (091e20ef0f, 2023-11-25, custom)"
   inkscape:export-filename="psx-analog-portrait.png"
   inkscape:export-xdpi="96"
   inkscape:export-ydpi="96"
   xmlns:inkscape="http://www.inkscape.org/namespaces/inkscape"
   xmlns:sodipodi="http://sodipodi.sourceforge.net/DTD/sodipodi-0.dtd"
   xmlns="http://www.w3.org/2000/svg"
   xmlns:svg="http://www.w3.org/2000/svg"><sodipodi:namedview
     id="namedview1"
     pagecolor="#000000"
     bordercolor="#000000"
     borderopacity="0.25"
     inkscape:showpageshadow="2"
     inkscape:pageopacity="0.0"
     inkscape:pagecheckerboard="0"
     inkscape:deskcolor="#d1d1d1"
     inkscape:document-units="px"
     showguides="true"
     inkscape:zoom="0.67833333"
     inkscape:cx="813.02211"
     inkscape:cy="1432.9238"
     inkscape:window-width="959"
     inkscape:window-height="1017"
     inkscape:window-x="0"
     inkscape:window-y="0"
     inkscape:window-maximized="0"
     inkscape:current-layer="layer3"
     inkscape:export-bgcolor="#ffffff00"><sodipodi:guide
       position="71.437499,177.8"
       orientation="0,-1"
       id="guide3"
       inkscape:locked="false" /><sodipodi:guide
       position="71.437522,177.80001"
       orientation="1,0"
       id="guide4"
       inkscape:locked="false" /><sodipodi:guide
       position="214.31252,177.8"
       orientation="1,0"
       id="guide9"
       inkscape:locked="false" /></sodipodi:namedview><defs
     id="defs1"><inkscape:path-effect
       effect="offset"
       id="path-effect74"
       is_visible="true"
       lpeversion="1.2"
       linejoin_type="miter"
       unit="px"
       offset="-18"
       miter_limit="0"
       attempt_force_join="true"
       update_on_knot_move="true" /><inkscape:path-effect
       effect="offset"
       id="path-effect73"
       is_visible="true"
       lpeversion="1.2"
       linejoin_type="bevel"
       unit="px"
       offset="-12"
       miter_limit="0"
       attempt_force_join="false"
       update_on_knot_move="true" /><inkscape:path-effect
       effect="offset"
       id="path-effect246"
       is_visible="true"
       lpeversion="1.2"
       linejoin_type="round"
       unit="px"
       offset="-24"
       miter_limit="4"
       attempt_force_join="true"
       update_on_knot_move="true" /><inkscape:path-effect
       effect="offset"
       id="path-effect237"
       is_visible="true"
       lpeversion="1.2"
       linejoin_type="miter"
       unit="px"
       offset="48"
       miter_limit="4"
       attempt_force_join="false"
       update_on_knot_move="true" /><inkscape:path-effect
       effect="offset"
       id="path-effect235"
       is_visible="true"
       lpeversion="1.2"
       linejoin_type="miter"
       unit="px"
       offset="-6"
       miter_limit="4"
       attempt_force_join="false"
       update_on_knot_move="true" /></defs><g
     inkscape:label="layout"
     inkscape:groupmode="layer"
     id="layer1"
     style="display:inline;opacity:1"
     sodipodi:insensitive="true"><rect
       style="fill:#c6afe9;fill-opacity:0.985355;stroke-width:1.27;stroke-linecap:round;paint-order:markers fill stroke"
       id="rect1"
       width="285.75"
       height="34.924999"
       x="1.8858692e-21"
       y="600.07501" /><rect
       style="fill:#c6afe9;fill-opacity:1;stroke-width:1.27;stroke-linecap:round;paint-order:markers fill stroke"
       id="rect2"
       width="285.75"
       height="28.574999"
       x="-4.9999999e-06"
       y="-1.1111111e-05" /><rect
       style="fill:#aa87de;fill-opacity:1;stroke-width:1.27;stroke-linecap:round;paint-order:markers fill stroke"
       id="rect3"
       width="285.75"
       height="285.75003"
       x="0"
       y="28.574986" /><rect
       style="fill:#aa87de;fill-opacity:1;stroke-width:1.27;stroke-linecap:round;paint-order:markers fill stroke"
       id="rect4"
       width="285.75"
       height="285.75003"
       x="0"
       y="314.32498" /><g
       id="g74"
       style="fill:#ccff00;fill-opacity:1"><path
         id="path73"
         style="fill:#ccff00;fill-opacity:1;stroke-width:0.264583;paint-order:markers fill stroke"
         d="m 214.31353,344.48749 c -8.75183,0 -15.87603,7.12474 -15.87603,15.87707 0,8.75234 7.12379,15.87448 15.87603,15.87448 14.21286,1e-5 28.17426,3.74219 40.4828,10.84895 7.57935,4.37617 17.31109,1.76869 21.68705,-5.81101 4.37591,-7.57976 1.76825,-17.31188 -5.81102,-21.68808 -17.13527,-9.8937 -36.57254,-15.10134 -56.35883,-15.10141 z m 0.002,1.5875 c 19.50782,6e-5 38.67207,5.13397 55.56612,14.8885 6.81322,3.93394 9.16434,12.70855 5.23068,19.52232 -3.93367,6.81369 -12.70743,9.16514 -19.52077,5.23121 -12.54989,-7.24619 -26.78439,-11.06185 -41.27603,-11.06186 -7.86788,0 -14.29008,-6.42125 -14.29008,-14.28905 0,-7.8678 6.42283,-14.29112 14.29008,-14.29112 z" /><path
         id="circle48"
         style="fill:#ccff00;fill-opacity:1;stroke-width:0.264583;paint-order:markers fill stroke"
         d="m 214.3125,341.31249 a 19.049999,19.049999 0 0 0 -19.05,19.05 19.049999,19.049999 0 0 0 19.05,19.05 77.787498,77.787498 0 0 1 38.89375,10.42159 19.049999,19.049999 0 0 0 26.0227,-6.9727 19.049999,19.049999 0 0 0 -6.9727,-26.0227 115.8875,115.8875 0 0 0 -57.94375,-15.52619 z m -0.002,1.58802 c 20.06134,6e-5 39.76969,5.27923 57.14328,15.30914 8.3673,4.83055 11.22014,15.48356 6.38927,23.85023 -4.83093,8.36662 -15.48288,11.22025 -23.85022,6.38979 -12.06488,-6.96512 -25.751,-10.63242 -39.68233,-10.63243 -9.66182,0 -17.46095,-7.79629 -17.46095,-17.45733 0,-9.66104 7.79913,-17.4594 17.46095,-17.4594 z" /></g><rect
       style="fill:#8d5fd3;fill-opacity:1;stroke-width:1.27;stroke-linecap:round;paint-order:markers fill stroke"
       id="rect5"
       width="285.75"
       height="190.5"
       x="0"
       y="76.199997" /><path
       id="path282"
       style="display:inline;fill:#c87137;fill-opacity:1;stroke:none;stroke-width:1.27;stroke-linecap:round;paint-order:markers fill stroke"
       d="m 71.4375,392.11249 a 65.087502,65.087502 0 0 0 -65.0875,65.0875 65.087502,65.087502 0 0 0 65.0875,65.0875 65.087502,65.087502 0 0 0 65.0875,-65.0875 65.087502,65.087502 0 0 0 -65.0875,-65.0875 z m 0,1.5875 a 63.5,63.5 0 0 1 63.5,63.5 63.5,63.5 0 0 1 -63.5,63.5 63.5,63.5 0 0 1 -63.5,-63.5 63.5,63.5 0 0 1 63.5,-63.5 z" /><circle
       style="fill:#c87137;fill-opacity:1;stroke:none;stroke-width:1.27;stroke-linecap:round;paint-order:markers fill stroke"
       id="circle282"
       cx="71.437523"
       cy="457.19998"
       r="58.737499" /><path
       id="path283"
       style="fill:#5500d4;fill-opacity:1;stroke:none;stroke-width:1.27;stroke-linecap:round;paint-order:markers fill stroke"
       d="m 71.4375,398.46249 a 22.225,22.225 0 0 0 -22.225,22.225 22.225,22.225 0 0 0 22.225,22.225 22.225,22.225 0 0 0 22.225,-22.225 22.225,22.225 0 0 0 -22.225,-22.225 z m 0,1.5875 a 20.637499,20.637499 0 0 1 20.6375,20.6375 20.637499,20.637499 0 0 1 -20.6375,20.6375 20.637499,20.637499 0 0 1 -20.6375,-20.6375 20.637499,20.637499 0 0 1 20.6375,-20.6375 z" /><path
       id="path284"
       style="fill:#5500d4;fill-opacity:1;stroke:none;stroke-width:1.27;stroke-linecap:round;paint-order:markers fill stroke"
       d="m 71.43752,471.48748 a 22.225,22.225 0 0 0 -22.225,22.225 22.225,22.225 0 0 0 22.225,22.225 22.225,22.225 0 0 0 22.225,-22.225 22.225,22.225 0 0 0 -22.225,-22.225 z m 0,1.5875 a 20.637499,20.637499 0 0 1 20.6375,20.6375 20.637499,20.637499 0 0 1 -20.6375,20.6375 20.637499,20.637499 0 0 1 -20.6375,-20.6375 20.637499,20.637499 0 0 1 20.6375,-20.6375 z" /><path
       id="path285"
       style="fill:#5500d4;fill-opacity:1;stroke:none;stroke-width:1.27;stroke-linecap:round;paint-order:markers fill stroke"
       d="m 107.95002,434.97498 a 22.225,22.225 0 0 0 -22.225,22.225 22.225,22.225 0 0 0 22.225,22.225 22.225,22.225 0 0 0 22.225,-22.225 22.225,22.225 0 0 0 -22.225,-22.225 z m 0,1.5875 a 20.637499,20.637499 0 0 1 20.6375,20.6375 20.637499,20.637499 0 0 1 -20.6375,20.6375 20.637499,20.637499 0 0 1 -20.6375,-20.6375 20.637499,20.637499 0 0 1 20.6375,-20.6375 z" /><path
       id="path286"
       style="fill:#5500d4;fill-opacity:1;stroke:none;stroke-width:1.27;stroke-linecap:round;paint-order:markers fill stroke"
       d="m 34.92502,434.97498 a 22.225,22.225 0 0 0 -22.225,22.225 22.225,22.225 0 0 0 22.225,22.225 22.225,22.225 0 0 0 22.225,-22.225 22.225,22.225 0 0 0 -22.225,-22.225 z m 0,1.5875 a 20.637499,20.637499 0 0 1 20.6375,20.6375 20.637499,20.637499 0 0 1 -20.6375,20.6375 20.637499,20.637499 0 0 1 -20.6375,-20.6375 20.637499,20.637499 0 0 1 20.6375,-20.6375 z" /><path
       id="path287"
       style="display:inline;fill:#5500d4;fill-opacity:1;stroke:none;stroke-width:0;stroke-linecap:round;stroke-dasharray:none;stroke-opacity:1;paint-order:stroke fill markers"
       d="m 109.6036,423.7964 a 4.7624993,4.7624993 0 0 0 4.76251,-4.7625 4.7624993,4.7624993 0 0 0 -4.76251,-4.76251 4.7624993,4.7624993 0 0 0 -4.7625,4.76251 4.7624993,4.7624993 0 0 0 4.7625,4.7625 z m 0,-1.58751 a 3.1749997,3.1749997 0 0 1 -3.17499,-3.17499 3.1749997,3.1749997 0 0 1 3.17499,-3.175 3.1749997,3.1749997 0 0 1 3.175,3.175 3.1749997,3.1749997 0 0 1 -3.175,3.17499 z"
       inkscape:transform-center-y="-38.166086"
       inkscape:transform-center-x="-38.166086" /><path
       id="path288"
       style="display:inline;fill:#5500d4;fill-opacity:1;stroke:none;stroke-width:0;stroke-linecap:round;stroke-dasharray:none;stroke-opacity:1;paint-order:stroke fill markers"
       d="m 104.8411,495.36606 a 4.7624993,4.7624993 0 0 0 4.7625,4.76251 4.7624993,4.7624993 0 0 0 4.76251,-4.76251 4.7624993,4.7624993 0 0 0 -4.76251,-4.7625 4.7624993,4.7624993 0 0 0 -4.7625,4.7625 z m 1.58751,0 a 3.1749997,3.1749997 0 0 1 3.17499,-3.17499 3.1749997,3.1749997 0 0 1 3.175,3.17499 3.1749997,3.1749997 0 0 1 -3.175,3.175 3.1749997,3.1749997 0 0 1 -3.17499,-3.175 z"
       inkscape:transform-center-x="-38.166086"
       inkscape:transform-center-y="38.166086" /><path
       id="path289"
       style="display:inline;fill:#5500d4;fill-opacity:1;stroke:none;stroke-width:0;stroke-linecap:round;stroke-dasharray:none;stroke-opacity:1;paint-order:stroke fill markers"
       d="m 33.27144,490.60356 a 4.7624993,4.7624993 0 0 0 -4.76251,4.7625 4.7624993,4.7624993 0 0 0 4.76251,4.76251 4.7624993,4.7624993 0 0 0 4.7625,-4.76251 4.7624993,4.7624993 0 0 0 -4.7625,-4.7625 z m 0,1.58751 a 3.1749997,3.1749997 0 0 1 3.17499,3.17499 3.1749997,3.1749997 0 0 1 -3.17499,3.175 3.1749997,3.1749997 0 0 1 -3.175,-3.175 3.1749997,3.1749997 0 0 1 3.175,-3.17499 z"
       inkscape:transform-center-y="38.166086"
       inkscape:transform-center-x="38.166086" /><path
       id="path290"
       style="display:inline;fill:#5500d4;fill-opacity:1;stroke:none;stroke-width:0;stroke-linecap:round;stroke-dasharray:none;stroke-opacity:1;paint-order:stroke fill markers"
       d="m 38.03394,419.0339 a 4.7624993,4.7624993 0 0 0 -4.7625,-4.76251 4.7624993,4.7624993 0 0 0 -4.76251,4.76251 4.7624993,4.7624993 0 0 0 4.76251,4.7625 4.7624993,4.7624993 0 0 0 4.7625,-4.7625 z m -1.58751,0 a 3.1749997,3.1749997 0 0 1 -3.17499,3.17499 3.1749997,3.1749997 0 0 1 -3.175,-3.17499 3.1749997,3.1749997 0 0 1 3.175,-3.175 3.1749997,3.1749997 0 0 1 3.17499,3.175 z"
       inkscape:transform-center-x="38.166086"
       inkscape:transform-center-y="-38.166086" /><g
       id="g28"
       transform="translate(-43.795228,257.17502)"><path
         id="path27"
         style="fill:#ffff00;fill-opacity:0.999817;stroke:none;stroke-width:0.264583;stroke-linecap:butt;stroke-dasharray:none;paint-order:markers fill stroke"
         d="m 66.814008,314.32499 a 14.287499,14.287499 0 0 0 -14.287499,14.2875 14.287499,14.287499 0 0 0 14.287499,14.2875 14.287499,14.287499 0 0 0 14.2875,-14.2875 14.287499,14.287499 0 0 0 -14.2875,-14.2875 z m 0,1.5875 a 12.7,12.7 0 0 1 12.7,12.7 12.7,12.7 0 0 1 -12.7,12.7 12.7,12.7 0 0 1 -12.699999,-12.7 12.7,12.7 0 0 1 12.699999,-12.7 z" /><path
         id="path28"
         style="fill:#ffff00;fill-opacity:0.999817;stroke:none;stroke-width:0.264583;stroke-linecap:butt;stroke-dasharray:none;paint-order:markers fill stroke"
         d="m 66.814008,317.49999 a 11.1125,11.1125 0 0 0 -11.112499,11.1125 11.1125,11.1125 0 0 0 11.112499,11.1125 11.1125,11.1125 0 0 0 11.1125,-11.1125 11.1125,11.1125 0 0 0 -11.1125,-11.1125 z m 0,1.5875 a 9.5249996,9.5249996 0 0 1 9.525,9.525 9.5249996,9.5249996 0 0 1 -9.525,9.525 9.5249996,9.5249996 0 0 1 -9.524999,-9.525 9.5249996,9.5249996 0 0 1 9.524999,-9.525 z" /></g><g
       id="g30"
       transform="translate(36.108926,257.17502)"><path
         id="path29"
         style="fill:#ffff00;fill-opacity:0.999817;stroke:none;stroke-width:0.264583;stroke-linecap:butt;stroke-dasharray:none;paint-order:markers fill stroke"
         d="m 66.814008,314.32499 a 14.287499,14.287499 0 0 0 -14.287499,14.2875 14.287499,14.287499 0 0 0 14.287499,14.2875 14.287499,14.287499 0 0 0 14.2875,-14.2875 14.287499,14.287499 0 0 0 -14.2875,-14.2875 z m 0,1.5875 a 12.7,12.7 0 0 1 12.7,12.7 12.7,12.7 0 0 1 -12.7,12.7 12.7,12.7 0 0 1 -12.699999,-12.7 12.7,12.7 0 0 1 12.699999,-12.7 z" /><path
         id="path30"
         style="fill:#ffff00;fill-opacity:0.999817;stroke:none;stroke-width:0.264583;stroke-linecap:butt;stroke-dasharray:none;paint-order:markers fill stroke"
         d="m 66.814008,317.49999 a 11.1125,11.1125 0 0 0 -11.112499,11.1125 11.1125,11.1125 0 0 0 11.112499,11.1125 11.1125,11.1125 0 0 0 11.1125,-11.1125 11.1125,11.1125 0 0 0 -11.1125,-11.1125 z m 0,1.5875 a 9.5249996,9.5249996 0 0 1 9.525,9.525 9.5249996,9.5249996 0 0 1 -9.525,9.525 9.5249996,9.5249996 0 0 1 -9.524999,-9.525 9.5249996,9.5249996 0 0 1 9.524999,-9.525 z" /></g><path
       id="path54"
       style="display:inline;fill:#c87137;fill-opacity:1;stroke:none;stroke-width:1.27;stroke-linecap:round;paint-order:markers fill stroke"
       d="m 214.31252,392.11249 a 65.087502,65.087502 0 0 1 65.0875,65.0875 65.087502,65.087502 0 0 1 -65.0875,65.0875 65.087502,65.087502 0 0 1 -65.0875,-65.0875 65.087502,65.087502 0 0 1 65.0875,-65.0875 z m 0,1.5875 a 63.5,63.5 0 0 0 -63.5,63.5 63.5,63.5 0 0 0 63.5,63.5 63.5,63.5 0 0 0 63.5,-63.5 63.5,63.5 0 0 0 -63.5,-63.5 z" /><circle
       style="fill:#c87137;fill-opacity:1;stroke:none;stroke-width:1.27;stroke-linecap:round;paint-order:markers fill stroke"
       id="circle55"
       cx="-214.3125"
       cy="457.19998"
       r="58.737499"
       transform="scale(-1,1)" /><path
       id="path55"
       style="fill:#5500d4;fill-opacity:1;stroke:none;stroke-width:1.27;stroke-linecap:round;paint-order:markers fill stroke"
       d="m 214.31252,398.46249 a 22.225,22.225 0 0 1 22.225,22.225 22.225,22.225 0 0 1 -22.225,22.225 22.225,22.225 0 0 1 -22.225,-22.225 22.225,22.225 0 0 1 22.225,-22.225 z m 0,1.5875 a 20.637499,20.637499 0 0 0 -20.6375,20.6375 20.637499,20.637499 0 0 0 20.6375,20.6375 20.637499,20.637499 0 0 0 20.6375,-20.6375 20.637499,20.637499 0 0 0 -20.6375,-20.6375 z" /><path
       id="path56"
       style="fill:#5500d4;fill-opacity:1;stroke:none;stroke-width:1.27;stroke-linecap:round;paint-order:markers fill stroke"
       d="m 214.3125,471.48748 a 22.225,22.225 0 0 1 22.225,22.225 22.225,22.225 0 0 1 -22.225,22.225 22.225,22.225 0 0 1 -22.225,-22.225 22.225,22.225 0 0 1 22.225,-22.225 z m 0,1.5875 a 20.637499,20.637499 0 0 0 -20.6375,20.6375 20.637499,20.637499 0 0 0 20.6375,20.6375 20.637499,20.637499 0 0 0 20.6375,-20.6375 20.637499,20.637499 0 0 0 -20.6375,-20.6375 z" /><path
       id="path57"
       style="fill:#5500d4;fill-opacity:1;stroke:none;stroke-width:1.27;stroke-linecap:round;paint-order:markers fill stroke"
       d="m 177.8,434.97498 a 22.225,22.225 0 0 1 22.225,22.225 22.225,22.225 0 0 1 -22.225,22.225 22.225,22.225 0 0 1 -22.225,-22.225 22.225,22.225 0 0 1 22.225,-22.225 z m 0,1.5875 a 20.637499,20.637499 0 0 0 -20.6375,20.6375 20.637499,20.637499 0 0 0 20.6375,20.6375 20.637499,20.637499 0 0 0 20.6375,-20.6375 20.637499,20.637499 0 0 0 -20.6375,-20.6375 z" /><path
       id="path58"
       style="fill:#5500d4;fill-opacity:1;stroke:none;stroke-width:1.27;stroke-linecap:round;paint-order:markers fill stroke"
       d="m 250.825,434.97498 a 22.225,22.225 0 0 1 22.225,22.225 22.225,22.225 0 0 1 -22.225,22.225 22.225,22.225 0 0 1 -22.225,-22.225 22.225,22.225 0 0 1 22.225,-22.225 z m 0,1.5875 a 20.637499,20.637499 0 0 0 -20.6375,20.6375 20.637499,20.637499 0 0 0 20.6375,20.6375 20.637499,20.637499 0 0 0 20.6375,-20.6375 20.637499,20.637499 0 0 0 -20.6375,-20.6375 z" /><path
       id="path59"
       style="display:inline;fill:#5500d4;fill-opacity:1;stroke:none;stroke-width:0;stroke-linecap:round;stroke-dasharray:none;stroke-opacity:1;paint-order:stroke fill markers"
       d="m 176.14642,423.7964 a 4.7624993,4.7624993 0 0 1 -4.76251,-4.7625 4.7624993,4.7624993 0 0 1 4.76251,-4.76251 4.7624993,4.7624993 0 0 1 4.7625,4.76251 4.7624993,4.7624993 0 0 1 -4.7625,4.7625 z m 0,-1.58751 a 3.1749997,3.1749997 0 0 0 3.17499,-3.17499 3.1749997,3.1749997 0 0 0 -3.17499,-3.175 3.1749997,3.1749997 0 0 0 -3.175,3.175 3.1749997,3.1749997 0 0 0 3.175,3.17499 z"
       inkscape:transform-center-y="-38.166086"
       inkscape:transform-center-x="-38.166086" /><path
       id="path60"
       style="display:inline;fill:#5500d4;fill-opacity:1;stroke:none;stroke-width:0;stroke-linecap:round;stroke-dasharray:none;stroke-opacity:1;paint-order:stroke fill markers"
       d="m 180.90892,495.36606 a 4.7624993,4.7624993 0 0 1 -4.7625,4.76251 4.7624993,4.7624993 0 0 1 -4.76251,-4.76251 4.7624993,4.7624993 0 0 1 4.76251,-4.7625 4.7624993,4.7624993 0 0 1 4.7625,4.7625 z m -1.58751,0 a 3.1749997,3.1749997 0 0 0 -3.17499,-3.17499 3.1749997,3.1749997 0 0 0 -3.175,3.17499 3.1749997,3.1749997 0 0 0 3.175,3.175 3.1749997,3.1749997 0 0 0 3.17499,-3.175 z"
       inkscape:transform-center-x="-38.166086"
       inkscape:transform-center-y="38.166086" /><path
       id="path61"
       style="display:inline;fill:#5500d4;fill-opacity:1;stroke:none;stroke-width:0;stroke-linecap:round;stroke-dasharray:none;stroke-opacity:1;paint-order:stroke fill markers"
       d="m 252.47858,490.60356 a 4.7624993,4.7624993 0 0 1 4.76251,4.7625 4.7624993,4.7624993 0 0 1 -4.76251,4.76251 4.7624993,4.7624993 0 0 1 -4.7625,-4.76251 4.7624993,4.7624993 0 0 1 4.7625,-4.7625 z m 0,1.58751 a 3.1749997,3.1749997 0 0 0 -3.17499,3.17499 3.1749997,3.1749997 0 0 0 3.17499,3.175 3.1749997,3.1749997 0 0 0 3.175,-3.175 3.1749997,3.1749997 0 0 0 -3.175,-3.17499 z"
       inkscape:transform-center-y="38.166086"
       inkscape:transform-center-x="38.166086" /><path
       id="path62"
       style="display:inline;fill:#5500d4;fill-opacity:1;stroke:none;stroke-width:0;stroke-linecap:round;stroke-dasharray:none;stroke-opacity:1;paint-order:stroke fill markers"
       d="m 247.71608,419.0339 a 4.7624993,4.7624993 0 0 1 4.7625,-4.76251 4.7624993,4.7624993 0 0 1 4.76251,4.76251 4.7624993,4.7624993 0 0 1 -4.76251,4.7625 4.7624993,4.7624993 0 0 1 -4.7625,-4.7625 z m 1.58751,0 a 3.1749997,3.1749997 0 0 0 3.17499,3.17499 3.1749997,3.1749997 0 0 0 3.175,-3.17499 3.1749997,3.1749997 0 0 0 -3.175,-3.175 3.1749997,3.1749997 0 0 0 -3.17499,3.175 z"
       inkscape:transform-center-x="38.166086"
       inkscape:transform-center-y="-38.166086" /><g
       id="g68"
       transform="matrix(-1,0,0,1,329.54525,257.17502)"><path
         id="path67"
         style="fill:#ffff00;fill-opacity:0.999817;stroke:none;stroke-width:0.264583;stroke-linecap:butt;stroke-dasharray:none;paint-order:markers fill stroke"
         d="m 66.814008,314.32499 a 14.287499,14.287499 0 0 0 -14.287499,14.2875 14.287499,14.287499 0 0 0 14.287499,14.2875 14.287499,14.287499 0 0 0 14.2875,-14.2875 14.287499,14.287499 0 0 0 -14.2875,-14.2875 z m 0,1.5875 a 12.7,12.7 0 0 1 12.7,12.7 12.7,12.7 0 0 1 -12.7,12.7 12.7,12.7 0 0 1 -12.699999,-12.7 12.7,12.7 0 0 1 12.699999,-12.7 z" /><path
         id="path68"
         style="fill:#ffff00;fill-opacity:0.999817;stroke:none;stroke-width:0.264583;stroke-linecap:butt;stroke-dasharray:none;paint-order:markers fill stroke"
         d="m 66.814008,317.49999 a 11.1125,11.1125 0 0 0 -11.112499,11.1125 11.1125,11.1125 0 0 0 11.112499,11.1125 11.1125,11.1125 0 0 0 11.1125,-11.1125 11.1125,11.1125 0 0 0 -11.1125,-11.1125 z m 0,1.5875 a 9.5249996,9.5249996 0 0 1 9.525,9.525 9.5249996,9.5249996 0 0 1 -9.525,9.525 9.5249996,9.5249996 0 0 1 -9.524999,-9.525 9.5249996,9.5249996 0 0 1 9.524999,-9.525 z" /></g><g
       id="g70"
       transform="matrix(-1,0,0,1,249.6411,257.17502)"><path
         id="path69"
         style="fill:#ffff00;fill-opacity:0.999817;stroke:none;stroke-width:0.264583;stroke-linecap:butt;stroke-dasharray:none;paint-order:markers fill stroke"
         d="m 66.814008,314.32499 a 14.287499,14.287499 0 0 0 -14.287499,14.2875 14.287499,14.287499 0 0 0 14.287499,14.2875 14.287499,14.287499 0 0 0 14.2875,-14.2875 14.287499,14.287499 0 0 0 -14.2875,-14.2875 z m 0,1.5875 a 12.7,12.7 0 0 1 12.7,12.7 12.7,12.7 0 0 1 -12.7,12.7 12.7,12.7 0 0 1 -12.699999,-12.7 12.7,12.7 0 0 1 12.699999,-12.7 z" /><path
         id="path70"
         style="fill:#ffff00;fill-opacity:0.999817;stroke:none;stroke-width:0.264583;stroke-linecap:butt;stroke-dasharray:none;paint-order:markers fill stroke"
         d="m 66.814008,317.49999 a 11.1125,11.1125 0 0 0 -11.112499,11.1125 11.1125,11.1125 0 0 0 11.112499,11.1125 11.1125,11.1125 0 0 0 11.1125,-11.1125 11.1125,11.1125 0 0 0 -11.1125,-11.1125 z m 0,1.5875 a 9.5249996,9.5249996 0 0 1 9.525,9.525 9.5249996,9.5249996 0 0 1 -9.525,9.525 9.5249996,9.5249996 0 0 1 -9.524999,-9.525 9.5249996,9.5249996 0 0 1 9.524999,-9.525 z" /></g><g
       id="g5"
       transform="rotate(45,-55.936813,507.86487)"
       style="display:inline;fill:#ccff00"
       inkscape:transform-center-x="-48.418767"
       inkscape:transform-center-y="-83.863735"><path
         id="path4"
         style="opacity:1;fill:#ccff00;fill-opacity:1;stroke:none;stroke-width:0;stroke-linecap:round;stroke-dasharray:none;stroke-opacity:1;paint-order:stroke fill markers"
         d="m -26.758415,269.38428 a 19.049997,19.049997 0 0 0 -19.049998,19.05 19.049997,19.049997 0 0 0 19.049998,19.05 19.049997,19.049997 0 0 0 19.0499979,-19.05 19.049997,19.049997 0 0 0 -19.0499979,-19.05 z m 0,1.5875 a 17.462498,17.462498 0 0 1 17.4624981,17.4625 17.462498,17.462498 0 0 1 -17.4624981,17.4625 17.462498,17.462498 0 0 1 -17.462498,-17.4625 17.462498,17.462498 0 0 1 17.462498,-17.4625 z" /><path
         id="path5"
         style="display:inline;opacity:1;fill:#ccff00;fill-opacity:1;stroke:none;stroke-width:0;stroke-linecap:round;stroke-dasharray:none;stroke-opacity:1;paint-order:stroke fill markers"
         d="m -26.758415,272.55928 a 15.874998,15.874998 0 0 0 -15.874998,15.875 15.874998,15.874998 0 0 0 15.874998,15.875 15.874998,15.874998 0 0 0 15.874998,-15.875 15.874998,15.874998 0 0 0 -15.874998,-15.875 z m 0,1.5875 a 14.287498,14.287498 0 0 1 14.287498,14.2875 14.287498,14.287498 0 0 1 -14.287498,14.2875 14.287498,14.287498 0 0 1 -14.287499,-14.2875 14.287498,14.287498 0 0 1 14.287499,-14.2875 z" /></g><g
       id="g11"
       transform="matrix(-0.70710678,0.70710679,0.70710679,0.70710678,-56.981161,188.30345)"
       style="display:inline;fill:#ccff00"
       inkscape:transform-center-x="48.418725"
       inkscape:transform-center-y="-83.863763"><path
         id="path9"
         style="opacity:1;fill:#ccff00;fill-opacity:1;stroke:none;stroke-width:0;stroke-linecap:round;stroke-dasharray:none;stroke-opacity:1;paint-order:stroke fill markers"
         d="m -26.758415,269.38428 a 19.049997,19.049997 0 0 0 -19.049998,19.05 19.049997,19.049997 0 0 0 19.049998,19.05 19.049997,19.049997 0 0 0 19.0499979,-19.05 19.049997,19.049997 0 0 0 -19.0499979,-19.05 z m 0,1.5875 a 17.462498,17.462498 0 0 1 17.4624981,17.4625 17.462498,17.462498 0 0 1 -17.4624981,17.4625 17.462498,17.462498 0 0 1 -17.462498,-17.4625 17.462498,17.462498 0 0 1 17.462498,-17.4625 z" /><path
         id="path11"
         style="display:inline;opacity:1;fill:#ccff00;fill-opacity:1;stroke:none;stroke-width:0;stroke-linecap:round;stroke-dasharray:none;stroke-opacity:1;paint-order:stroke fill markers"
         d="m -26.758415,272.55928 a 15.874998,15.874998 0 0 0 -15.874998,15.875 15.874998,15.874998 0 0 0 15.874998,15.875 15.874998,15.874998 0 0 0 15.874998,-15.875 15.874998,15.874998 0 0 0 -15.874998,-15.875 z m 0,1.5875 a 14.287498,14.287498 0 0 1 14.287498,14.2875 14.287498,14.287498 0 0 1 -14.287498,14.2875 14.287498,14.287498 0 0 1 -14.287499,-14.2875 14.287498,14.287498 0 0 1 14.287499,-14.2875 z" /></g><g
       id="g75"
       style="fill:#ccff00;fill-opacity:1"
       transform="matrix(-1,0,0,1,285.74993,0)"><path
         id="path74"
         style="fill:#ccff00;fill-opacity:1;stroke-width:0.264583;paint-order:markers fill stroke"
         d="m 214.31353,344.48749 c -8.75183,0 -15.87603,7.12474 -15.87603,15.87707 0,8.75234 7.12379,15.87448 15.87603,15.87448 14.21286,1e-5 28.17426,3.74219 40.4828,10.84895 7.57935,4.37617 17.31109,1.76869 21.68705,-5.81101 4.37591,-7.57976 1.76825,-17.31188 -5.81102,-21.68808 -17.13527,-9.8937 -36.57254,-15.10134 -56.35883,-15.10141 z m 0.002,1.5875 c 19.50782,6e-5 38.67207,5.13397 55.56612,14.8885 6.81322,3.93394 9.16434,12.70855 5.23068,19.52232 -3.93367,6.81369 -12.70743,9.16514 -19.52077,5.23121 -12.54989,-7.24619 -26.78439,-11.06185 -41.27603,-11.06186 -7.86788,0 -14.29008,-6.42125 -14.29008,-14.28905 0,-7.8678 6.42283,-14.29112 14.29008,-14.29112 z" /><path
         id="path75"
         style="fill:#ccff00;fill-opacity:1;stroke-width:0.264583;paint-order:markers fill stroke"
         d="m 214.3125,341.31249 a 19.049999,19.049999 0 0 0 -19.05,19.05 19.049999,19.049999 0 0 0 19.05,19.05 77.787498,77.787498 0 0 1 38.89375,10.42159 19.049999,19.049999 0 0 0 26.0227,-6.9727 19.049999,19.049999 0 0 0 -6.9727,-26.0227 115.8875,115.8875 0 0 0 -57.94375,-15.52619 z m -0.002,1.58802 c 20.06134,6e-5 39.76969,5.27923 57.14328,15.30914 8.3673,4.83055 11.22014,15.48356 6.38927,23.85023 -4.83093,8.36662 -15.48288,11.22025 -23.85022,6.38979 -12.06488,-6.96512 -25.751,-10.63242 -39.68233,-10.63243 -9.66182,0 -17.46095,-7.79629 -17.46095,-17.45733 0,-9.66104 7.79913,-17.4594 17.46095,-17.4594 z" /></g></g><g
     inkscape:groupmode="layer"
     id="layer2"
     inkscape:label="backlit"
     inkscape:highlight-color="#8736a9"
     style="display:none;opacity:1"
     sodipodi:insensitive="true"><circle
       style="fill:#71c837;fill-opacity:0.998008;stroke-width:0.264583;paint-order:markers fill stroke"
       id="path2"
       cx="23.01878"
       cy="585.78754"
       r="11.1125" /><circle
       style="fill:#71c837;fill-opacity:0.998008;stroke-width:0.264583;paint-order:markers fill stroke"
       id="circle2"
       cx="102.92293"
       cy="585.78748"
       r="11.1125" /><circle
       style="fill:#71c837;fill-opacity:0.998008;stroke-width:0.264583;paint-order:markers fill stroke"
       id="circle3"
       cx="182.82709"
       cy="585.78748"
       r="11.1125" /><circle
       style="fill:#71c837;fill-opacity:0.998008;stroke-width:0.264583;paint-order:markers fill stroke"
       id="circle4"
       cx="262.73123"
       cy="585.78754"
       r="11.1125" /><circle
       style="fill:#71c837;fill-opacity:0.998008;stroke-width:0.264583;paint-order:markers fill stroke"
       id="circle7"
       cx="119.85629"
       cy="373.33624"
       r="15.875" /><circle
       style="fill:#71c837;fill-opacity:0.998008;stroke-width:0.264583;paint-order:markers fill stroke"
       id="circle8"
       cx="165.89374"
       cy="373.33624"
       r="15.875" /><circle
       style="fill:#71c837;fill-opacity:0.998008;stroke-width:0.264584;paint-order:markers fill stroke"
       id="path10"
       cx="33.271435"
       cy="419.03391"
       r="4.7624998" /><circle
       style="fill:#71c837;fill-opacity:0.998008;stroke-width:0.264584;paint-order:markers fill stroke"
       id="circle11"
       cx="109.60361"
       cy="419.03391"
       r="4.7624998" /><circle
       style="fill:#71c837;fill-opacity:0.998008;stroke-width:0.264584;paint-order:markers fill stroke"
       id="circle12"
       cx="33.271435"
       cy="495.36606"
       r="4.7624998" /><circle
       style="fill:#71c837;fill-opacity:0.998008;stroke-width:0.264584;paint-order:markers fill stroke"
       id="circle13"
       cx="109.60361"
       cy="495.36606"
       r="4.7624998" /><circle
       style="fill:#71c837;fill-opacity:0.998008;stroke-width:0.264583;paint-order:markers fill stroke"
       id="path13"
       cx="71.4375"
       cy="420.6875"
       r="22.225" /><circle
       style="fill:#71c837;fill-opacity:0.998008;stroke-width:0.264583;paint-order:markers fill stroke"
       id="circle14"
       cx="34.925018"
       cy="457.19998"
       r="22.225" /><circle
       style="fill:#71c837;fill-opacity:0.998008;stroke-width:0.264583;paint-order:markers fill stroke"
       id="circle15"
       cx="71.437523"
       cy="493.71249"
       r="22.225" /><circle
       style="fill:#71c837;fill-opacity:0.998008;stroke-width:0.264583;paint-order:markers fill stroke"
       id="circle16"
       cx="107.95002"
       cy="457.19998"
       r="22.225" /><circle
       style="fill:#71c837;fill-opacity:0.998008;stroke-width:0.264584;paint-order:markers fill stroke"
       id="circle17"
       cx="176.14641"
       cy="419.03384"
       r="4.7624998" /><circle
       style="fill:#71c837;fill-opacity:0.998008;stroke-width:0.264584;paint-order:markers fill stroke"
       id="circle18"
       cx="252.47859"
       cy="419.03384"
       r="4.7624998" /><circle
       style="fill:#71c837;fill-opacity:0.998008;stroke-width:0.264584;paint-order:markers fill stroke"
       id="circle19"
       cx="176.14641"
       cy="495.36615"
       r="4.7624998" /><circle
       style="fill:#71c837;fill-opacity:0.998008;stroke-width:0.264584;paint-order:markers fill stroke"
       id="circle20"
       cx="252.47859"
       cy="495.36615"
       r="4.7624998" /><circle
       style="fill:#71c837;fill-opacity:0.998008;stroke-width:0.264583;paint-order:markers fill stroke"
       id="circle21"
       cx="214.31248"
       cy="420.6875"
       r="22.225" /><circle
       style="fill:#71c837;fill-opacity:0.998008;stroke-width:0.264583;paint-order:markers fill stroke"
       id="circle22"
       cx="177.8"
       cy="457.19998"
       r="22.225" /><circle
       style="fill:#71c837;fill-opacity:0.998008;stroke-width:0.264583;paint-order:markers fill stroke"
       id="circle23"
       cx="214.3125"
       cy="493.71249"
       r="22.225" /><circle
       style="fill:#71c837;fill-opacity:0.998008;stroke-width:0.264583;paint-order:markers fill stroke"
       id="circle24"
       cx="250.825"
       cy="457.19998"
       r="22.225" /><path
       id="path73-0"
       style="fill:#71c837;fill-opacity:1;stroke-width:0.264583;paint-order:markers fill stroke"
       d="m 214.31353,344.48748 c -8.75183,0 -15.87603,7.12477 -15.87603,15.87713 0,8.75238 7.12379,15.87455 15.87603,15.87455 14.21286,10e-6 28.17426,3.7422 40.4828,10.84899 7.57935,4.37619 17.31109,1.7687 21.68705,-5.81103 4.37591,-7.57979 1.76825,-17.31195 -5.81102,-21.68817 -17.13527,-9.89374 -36.57254,-15.1014 -56.35883,-15.10147 z"
       sodipodi:nodetypes="sssssss" /><path
       id="path76"
       style="display:inline;fill:#71c837;fill-opacity:1;stroke-width:0.264583;paint-order:markers fill stroke"
       d="m 71.436578,344.48748 c 8.75183,0 15.87603,7.12477 15.87603,15.87713 0,8.75238 -7.12379,15.87455 -15.87603,15.87455 -14.21286,10e-6 -28.17426,3.7422 -40.4828,10.84899 -7.57935,4.37619 -17.31109,1.7687 -21.6870502,-5.81103 -4.37591,-7.57979 -1.76825,-17.31195 5.8110202,-21.68817 17.13527,-9.89374 36.57254,-15.1014 56.35883,-15.10147 z"
       sodipodi:nodetypes="sssssss" /></g><g
     inkscape:groupmode="layer"
     id="layer5"
     inkscape:label="buttons"
     style="display:none;opacity:1"
     sodipodi:insensitive="true"><title
       id="title1">stop</title><title
       id="title1-7">fast-forward</title><title
       id="title1-8">play</title><title
       id="title1-1">open-in-app</title><title
       id="title1-9">content-save</title><title
       id="title1-5">menu</title><title
       id="title1-6">triangle-outline</title><title
       id="title1-2">square</title><title
       id="title1-07">square-outline</title><title
       id="title1-4">circle-outline</title><title
       id="title1-20">close</title><title
       id="title1-64">window-close</title><title
       id="title1-0">content-save-outline</title><title
       id="title1-15">triangle</title><g
       id="g25"
       transform="translate(-16.139595,258.76252)"><path
         id="path29-0"
         style="fill:#ffffff;fill-opacity:0.3;stroke:none;stroke-width:0.264583;stroke-linecap:butt;stroke-dasharray:none;paint-order:markers fill stroke"
         d="m 119.06253,312.73749 a 14.287499,14.287499 0 0 0 -14.2875,14.2875 14.287499,14.287499 0 0 0 14.2875,14.2875 14.287499,14.287499 0 0 0 14.2875,-14.2875 14.287499,14.287499 0 0 0 -14.2875,-14.2875 z m 0,1.5875 a 12.7,12.7 0 0 1 12.7,12.7 12.7,12.7 0 0 1 -12.7,12.7 12.7,12.7 0 0 1 -12.7,-12.7 12.7,12.7 0 0 1 12.7,-12.7 z" /><path
         id="path30-9"
         style="fill:#ffffff;fill-opacity:0.999817;stroke:none;stroke-width:0.264583;stroke-linecap:butt;stroke-dasharray:none;paint-order:markers fill stroke"
         d="m 119.06253,315.91249 a 11.1125,11.1125 0 0 0 -11.1125,11.1125 11.1125,11.1125 0 0 0 11.1125,11.1125 11.1125,11.1125 0 0 0 11.1125,-11.1125 11.1125,11.1125 0 0 0 -11.1125,-11.1125 z m 0,1.5875 a 9.5249996,9.5249996 0 0 1 9.525,9.525 9.5249996,9.5249996 0 0 1 -9.525,9.525 9.5249996,9.5249996 0 0 1 -9.525,-9.525 9.5249996,9.5249996 0 0 1 9.525,-9.525 z" /><path
         d="m 119.06252,325.96666 -2.11666,2.11667 h 1.58751 v 3.17499 h 1.05834 v -3.17499 h 1.58749 m 1.5875,-5.29167 h -7.40834 c -0.58739,0 -1.05833,0.47624 -1.05833,1.05831 v 6.35002 a 1.0583347,1.0583347 0 0 0 1.05833,1.05833 h 2.11667 v -1.05833 h -2.11667 v -5.29167 h 7.40834 v 5.29167 h -2.11668 v 1.05833 h 2.11668 a 1.0583347,1.0583347 0 0 0 1.05832,-1.05833 v -6.35002 a 1.0583347,1.0583347 0 0 0 -1.05832,-1.05831 z"
         id="path35"
         style="fill:#ffffff;stroke-width:0.264583" /></g><g
       id="g26"
       transform="translate(16.139601,258.76252)"><path
         id="path31-7"
         style="fill:#ffffff;fill-opacity:0.3;stroke:none;stroke-width:0.264583;stroke-linecap:butt;stroke-dasharray:none;paint-order:markers fill stroke"
         d="m 166.68749,312.73749 a 14.287499,14.287499 0 0 0 -14.2875,14.2875 14.287499,14.287499 0 0 0 14.2875,14.2875 14.287499,14.287499 0 0 0 14.2875,-14.2875 14.287499,14.287499 0 0 0 -14.2875,-14.2875 z m 0,1.5875 a 12.7,12.7 0 0 1 12.7,12.7 12.7,12.7 0 0 1 -12.7,12.7 12.7,12.7 0 0 1 -12.7,-12.7 12.7,12.7 0 0 1 12.7,-12.7 z" /><path
         id="path32-7"
         style="fill:#ffffff;fill-opacity:0.999817;stroke:none;stroke-width:0.264583;stroke-linecap:butt;stroke-dasharray:none;paint-order:markers fill stroke"
         d="m 166.68749,315.91249 a 11.1125,11.1125 0 0 0 -11.1125,11.1125 11.1125,11.1125 0 0 0 11.1125,11.1125 11.1125,11.1125 0 0 0 11.1125,-11.1125 11.1125,11.1125 0 0 0 -11.1125,-11.1125 z m 0,1.5875 a 9.5249996,9.5249996 0 0 1 9.525,9.525 9.5249996,9.5249996 0 0 1 -9.525,9.525 9.5249996,9.5249996 0 0 1 -9.525,-9.525 9.5249996,9.5249996 0 0 1 9.525,-9.525 z" /><path
         d="m 168.275,325.4375 h -5.29167 v -2.11667 h 5.29167 m -1.58751,7.40832 a 1.5875003,1.5875003 0 0 1 -1.58749,-1.58749 1.5875003,1.5875003 0 0 1 1.58749,-1.58751 1.5875003,1.5875003 0 0 1 1.58751,1.58751 1.5875003,1.5875003 0 0 1 -1.58751,1.58749 m 2.64585,-8.46666 h -6.35001 c -0.58738,0 -1.05834,0.47627 -1.05834,1.05834 v 7.40832 a 1.0583334,1.0583334 0 0 0 1.05834,1.05834 h 7.40832 a 1.0583334,1.0583334 0 0 0 1.05834,-1.05834 v -6.35001 z"
         id="path36"
         style="fill:#ffffff;stroke-width:0.264583" /></g><g
       id="g27"
       transform="translate(0.7937565,258.76252)"><path
         id="path33-1"
         style="fill:#ffffff;fill-opacity:0.3;stroke:none;stroke-width:0.264583;stroke-linecap:butt;stroke-dasharray:none;paint-order:markers fill stroke"
         d="m 261.93749,312.73749 a 14.287499,14.287499 0 0 0 -14.2875,14.2875 14.287499,14.287499 0 0 0 14.2875,14.2875 14.287499,14.287499 0 0 0 14.2875,-14.2875 14.287499,14.287499 0 0 0 -14.2875,-14.2875 z m 0,1.5875 a 12.7,12.7 0 0 1 12.7,12.7 12.7,12.7 0 0 1 -12.7,12.7 12.7,12.7 0 0 1 -12.7,-12.7 12.7,12.7 0 0 1 12.7,-12.7 z" /><path
         id="path34-5"
         style="fill:#ffffff;fill-opacity:0.999817;stroke:none;stroke-width:0.264583;stroke-linecap:butt;stroke-dasharray:none;paint-order:markers fill stroke"
         d="m 261.93749,315.91249 a 11.1125,11.1125 0 0 0 -11.1125,11.1125 11.1125,11.1125 0 0 0 11.1125,11.1125 11.1125,11.1125 0 0 0 11.1125,-11.1125 11.1125,11.1125 0 0 0 -11.1125,-11.1125 z m 0,1.5875 a 9.5249996,9.5249996 0 0 1 9.525,9.525 9.5249996,9.5249996 0 0 1 -9.525,9.525 9.5249996,9.5249996 0 0 1 -9.525,-9.525 9.5249996,9.5249996 0 0 1 9.525,-9.525 z" /><path
         d="m 257.17499,323.85 h 9.52499 v 1.05834 h -9.52499 V 323.85 m 0,2.64583 h 9.52499 v 1.05832 h -9.52499 v -1.05832 m 0,2.64581 h 9.52499 v 1.05834 h -9.52499 z"
         id="path37"
         style="fill:#ffffff;stroke-width:0.264583" /></g><g
       id="g24"
       transform="translate(-0.793745,258.76252)"><path
         id="path27-9"
         style="fill:#ffffff;fill-opacity:0.3;stroke:none;stroke-width:0.264583;stroke-linecap:butt;stroke-dasharray:none;paint-order:markers fill stroke"
         d="m 23.812525,312.73749 a 14.287499,14.287499 0 0 0 -14.287499,14.2875 14.287499,14.287499 0 0 0 14.287499,14.2875 14.287499,14.287499 0 0 0 14.2875,-14.2875 14.287499,14.287499 0 0 0 -14.2875,-14.2875 z m 0,1.5875 a 12.7,12.7 0 0 1 12.7,12.7 12.7,12.7 0 0 1 -12.7,12.7 12.7,12.7 0 0 1 -12.699999,-12.7 12.7,12.7 0 0 1 12.699999,-12.7 z" /><path
         id="path28-4"
         style="fill:#ffffff;fill-opacity:1;stroke:none;stroke-width:0.264583;stroke-linecap:butt;stroke-dasharray:none;paint-order:markers fill stroke"
         d="m 23.812525,315.91249 a 11.1125,11.1125 0 0 0 -11.112499,11.1125 11.1125,11.1125 0 0 0 11.112499,11.1125 11.1125,11.1125 0 0 0 11.1125,-11.1125 11.1125,11.1125 0 0 0 -11.1125,-11.1125 z m 0,1.5875 a 9.5249996,9.5249996 0 0 1 9.525,9.525 9.5249996,9.5249996 0 0 1 -9.525,9.525 9.5249996,9.5249996 0 0 1 -9.524999,-9.525 9.5249996,9.5249996 0 0 1 9.524999,-9.525 z" /><path
         d="m 24.719789,323.75884 v 6.5323 l 4.627045,-3.26615 m -9.526269,3.26615 4.627046,-3.26615 -4.627046,-3.26615 z"
         id="path38"
         style="fill:#ffffff;stroke-width:0.264583" /></g><g
       id="g77"><path
         id="path74-9"
         style="fill:#ffffff;fill-opacity:1;stroke-width:0.264583;paint-order:markers fill stroke"
         d="m 71.4364,344.48749 c 8.75183,0 15.87603,7.12474 15.87603,15.87707 0,8.75234 -7.12379,15.87448 -15.87603,15.87448 -14.21286,1e-5 -28.17426,3.74219 -40.4828,10.84895 -7.57935,4.37617 -17.31109,1.76869 -21.68705,-5.81101 C 4.89064,373.69722 7.4983,363.9651 15.07757,359.5889 32.21284,349.6952 51.65011,344.48756 71.4364,344.48749 Z m -0.002,1.5875 c -19.50782,6e-5 -38.67207,5.13397 -55.56612,14.8885 -6.81322,3.93394 -9.16434,12.70855 -5.23068,19.52232 3.93367,6.81369 12.70743,9.16514 19.52077,5.23121 12.54989,-7.24619 26.78439,-11.06185 41.27603,-11.06186 7.86788,0 14.29008,-6.42125 14.29008,-14.28905 0,-7.8678 -6.42283,-14.29112 -14.29008,-14.29112 z" /><path
         id="path75-3"
         style="fill:#ffffff;fill-opacity:0.3;stroke-width:0.264583;paint-order:markers fill stroke"
         d="m 71.43743,341.31249 a 19.049999,19.049999 0 0 1 19.05,19.05 19.049999,19.049999 0 0 1 -19.05,19.05 77.787498,77.787498 0 0 0 -38.89375,10.42159 19.049999,19.049999 0 0 1 -26.0227,-6.9727 19.049999,19.049999 0 0 1 6.9727,-26.0227 115.8875,115.8875 0 0 1 57.94375,-15.52619 z m 0.002,1.58802 c -20.06134,6e-5 -39.76969,5.27923 -57.14328,15.30914 -8.3673,4.83055 -11.22014,15.48356 -6.38927,23.85023 4.83093,8.36662 15.48288,11.22025 23.85022,6.38979 12.06488,-6.96512 25.751,-10.63242 39.68233,-10.63243 9.66182,0 17.46095,-7.79629 17.46095,-17.45733 0,-9.66104 -7.79913,-17.4594 -17.46095,-17.4594 z" /><text
         xml:space="preserve"
         style="font-style:normal;font-variant:normal;font-weight:bold;font-stretch:normal;font-size:14.8167px;line-height:18.6667px;font-family:Roboto;-inkscape-font-specification:'Roboto, Bold';font-variant-ligatures:none;font-variant-caps:normal;font-variant-numeric:normal;font-variant-east-asian:normal;text-align:center;letter-spacing:0px;word-spacing:0px;text-anchor:middle;display:inline;fill:#ffffff;fill-opacity:0.957675;stroke:none;stroke-width:0.264583;stroke-linecap:round;stroke-dasharray:none;stroke-opacity:1;paint-order:stroke fill markers"
         x="-49.64703"
         y="368.54004"
         id="text273-6"
         transform="rotate(-15)"><tspan
           sodipodi:role="line"
           id="tspan273-39"
           style="font-style:normal;font-variant:normal;font-weight:bold;font-stretch:normal;font-size:14.8167px;line-height:18.6667px;font-family:Roboto;-inkscape-font-specification:'Roboto, Bold';font-variant-ligatures:none;font-variant-caps:normal;font-variant-numeric:normal;font-variant-east-asian:normal;fill:#ffffff;fill-opacity:0.957675;stroke-width:0.264583"
           x="-49.64703"
           y="368.54004">L</tspan></text></g><g
       id="g33"
       transform="translate(0.79375828,0.2126749)"><path
         d="m 124.61882,378.67987 h -11.11258 v -11.11259 h 11.11258 z"
         id="path1"
         style="fill:#ffffff;stroke-width:0.264583" /><path
         id="path295-5"
         style="fill:#ffffff;fill-opacity:0.3;stroke:none;stroke-width:0;stroke-linecap:round;stroke-dasharray:none;stroke-opacity:1;paint-order:stroke fill markers"
         d="m 132.53292,359.6532 a 19.049997,19.049997 0 0 0 -26.94077,0 19.049997,19.049997 0 0 0 0,26.94076 19.049997,19.049997 0 0 0 26.94076,0 19.049997,19.049997 0 0 0 1e-5,-26.94076 z m -1.12254,1.12253 a 17.462498,17.462498 0 0 1 0,24.6957 17.462498,17.462498 0 0 1 -24.6957,0 17.462498,17.462498 0 0 1 0,-24.6957 17.462498,17.462498 0 0 1 24.6957,0 z" /><path
         id="path296-3"
         style="display:inline;fill:#ffffff;fill-opacity:1;stroke:none;stroke-width:0;stroke-linecap:round;stroke-dasharray:none;stroke-opacity:1;paint-order:stroke fill markers"
         d="m 130.28785,361.89826 a 15.874998,15.874998 0 0 0 -22.45064,0 15.874998,15.874998 0 0 0 0,22.45064 15.874998,15.874998 0 0 0 22.45064,0 15.874998,15.874998 0 0 0 0,-22.45064 z m -1.12253,1.12253 a 14.287498,14.287498 0 0 1 0,20.20558 14.287498,14.287498 0 0 1 -20.20558,0 14.287498,14.287498 0 0 1 0,-20.20558 14.287498,14.287498 0 0 1 20.20558,0 z" /></g><g
       id="g76"><path
         id="path73-6"
         style="fill:#ffffff;fill-opacity:1;stroke-width:0.264583;paint-order:markers fill stroke"
         d="m 214.31353,344.48749 c -8.75183,0 -15.87603,7.12474 -15.87603,15.87707 0,8.75234 7.12379,15.87448 15.87603,15.87448 14.21286,1e-5 28.17426,3.74219 40.4828,10.84895 7.57935,4.37617 17.31109,1.76869 21.68705,-5.81101 4.37591,-7.57976 1.76825,-17.31188 -5.81102,-21.68808 -17.13527,-9.8937 -36.57254,-15.10134 -56.35883,-15.10141 z m 0.002,1.5875 c 19.50782,6e-5 38.67207,5.13397 55.56612,14.8885 6.81322,3.93394 9.16434,12.70855 5.23068,19.52232 -3.93367,6.81369 -12.70743,9.16514 -19.52077,5.23121 -12.54989,-7.24619 -26.78439,-11.06185 -41.27603,-11.06186 -7.86788,0 -14.29008,-6.42125 -14.29008,-14.28905 0,-7.8678 6.42283,-14.29112 14.29008,-14.29112 z" /><path
         id="circle48-1"
         style="fill:#ffffff;fill-opacity:0.3;stroke-width:0.264583;paint-order:markers fill stroke"
         d="m 214.3125,341.31249 a 19.049999,19.049999 0 0 0 -19.05,19.05 19.049999,19.049999 0 0 0 19.05,19.05 77.787498,77.787498 0 0 1 38.89375,10.42159 19.049999,19.049999 0 0 0 26.0227,-6.9727 19.049999,19.049999 0 0 0 -6.9727,-26.0227 115.8875,115.8875 0 0 0 -57.94375,-15.52619 z m -0.002,1.58802 c 20.06134,6e-5 39.76969,5.27923 57.14328,15.30914 8.3673,4.83055 11.22014,15.48356 6.38927,23.85023 -4.83093,8.36662 -15.48288,11.22025 -23.85022,6.38979 -12.06488,-6.96512 -25.751,-10.63242 -39.68233,-10.63243 -9.66182,0 -17.46095,-7.79629 -17.46095,-17.45733 0,-9.66104 7.79913,-17.4594 17.46095,-17.4594 z" /><text
         xml:space="preserve"
         style="font-style:normal;font-variant:normal;font-weight:bold;font-stretch:normal;font-size:14.8167px;line-height:19.4255px;font-family:Roboto;-inkscape-font-specification:'Roboto, Bold';font-variant-ligatures:none;font-variant-caps:normal;font-variant-numeric:normal;font-variant-east-asian:normal;text-align:center;letter-spacing:0px;word-spacing:0px;text-anchor:middle;display:inline;fill:#ffffff;fill-opacity:0.957675;stroke:none;stroke-width:0.264583;stroke-linecap:round;stroke-dasharray:none;stroke-opacity:1;paint-order:stroke fill markers"
         x="325.02731"
         y="294.58255"
         id="text278-36"
         transform="rotate(15)"><tspan
           sodipodi:role="line"
           id="tspan278-5"
           style="font-style:normal;font-variant:normal;font-weight:bold;font-stretch:normal;font-size:14.8167px;font-family:Roboto;-inkscape-font-specification:'Roboto, Bold';font-variant-ligatures:none;font-variant-caps:normal;font-variant-numeric:normal;font-variant-east-asian:normal;fill:#ffffff;fill-opacity:0.957675;stroke-width:0.264583"
           x="325.02731"
           y="294.58255">R</tspan></text></g><g
       id="g32"
       transform="translate(-0.79375677,0.21265175)"><path
         id="path306-8"
         style="fill:#ffffff;fill-opacity:0.3;stroke:none;stroke-width:0;stroke-linecap:round;stroke-dasharray:none;stroke-opacity:1;paint-order:stroke fill markers"
         d="m 161.75699,354.72269 a 19.049997,19.049997 0 0 0 -13.47038,23.33139 19.049997,19.049997 0 0 0 23.33139,13.47038 19.049997,19.049997 0 0 0 13.47038,-23.33139 19.049997,19.049997 0 0 0 -23.33139,-13.47038 z m 0.41088,1.5334 a 17.462498,17.462498 0 0 1 21.3871,12.34786 17.462498,17.462498 0 0 1 -12.34785,21.3871 17.462498,17.462498 0 0 1 -21.3871,-12.34785 17.462498,17.462498 0 0 1 12.34785,-21.38711 z" /><path
         id="path307-3"
         style="display:inline;fill:#ffffff;fill-opacity:1;stroke:none;stroke-width:0;stroke-linecap:round;stroke-dasharray:none;stroke-opacity:1;paint-order:stroke fill markers"
         d="m 162.57874,357.7895 a 15.874998,15.874998 0 0 0 -11.22532,19.44283 15.874998,15.874998 0 0 0 19.44283,11.22532 15.874998,15.874998 0 0 0 11.22531,-19.44283 15.874998,15.874998 0 0 0 -19.44282,-11.22532 z m 0.41088,1.53341 a 14.287498,14.287498 0 0 1 17.49854,10.10279 14.287498,14.287498 0 0 1 -10.10279,17.49854 14.287498,14.287498 0 0 1 -17.49854,-10.10279 14.287498,14.287498 0 0 1 10.10279,-17.49854 z" /><path
         d="m 163.292,366.64128 v 12.96459 l 10.18646,-6.48231 z"
         id="path1-9"
         style="fill:#ffffff;stroke-width:0.264583" /></g><path
       id="path282-0"
       style="display:inline;fill:#ffffff;fill-opacity:0.3;stroke:none;stroke-width:1.27;stroke-linecap:round;paint-order:markers fill stroke"
       d="m 71.4375,392.11248 a 65.087502,65.087502 0 0 0 -65.0875001,65.0875 65.087502,65.087502 0 0 0 65.0875001,65.0875 65.087502,65.087502 0 0 0 65.0875,-65.0875 65.087502,65.087502 0 0 0 -65.0875,-65.0875 z m 0,1.5875 a 63.5,63.5 0 0 1 63.5,63.5 63.5,63.5 0 0 1 -63.5,63.5 63.5,63.5 0 0 1 -63.5000001,-63.5 63.5,63.5 0 0 1 63.5000001,-63.5 z" /><g
       id="g36"><path
         d="m 62.706255,425.71456 h 17.46249 l -8.73123,-15.08123"
         id="path1-54"
         style="fill:#ffffff;stroke-width:0.264583" /><path
         id="path283-8"
         style="display:inline;fill:#ffffff;fill-opacity:1;stroke:none;stroke-width:1.27;stroke-linecap:round;paint-order:markers fill stroke"
         d="m 71.4375,398.46248 a 22.225,22.225 0 0 0 -22.225,22.225 22.225,22.225 0 0 0 22.225,22.225 22.225,22.225 0 0 0 22.225,-22.225 22.225,22.225 0 0 0 -22.225,-22.225 z m 0,1.5875 a 20.637499,20.637499 0 0 1 20.6375,20.6375 20.637499,20.637499 0 0 1 -20.6375,20.6375 20.637499,20.637499 0 0 1 -20.6375,-20.6375 20.637499,20.637499 0 0 1 20.6375,-20.6375 z" /></g><path
       id="path287-7"
       style="display:inline;fill:#ffffff;fill-opacity:0.3;stroke:none;stroke-width:0;stroke-linecap:round;stroke-dasharray:none;stroke-opacity:1;paint-order:stroke fill markers"
       d="m 109.6036,423.79639 a 4.7624993,4.7624993 0 0 0 4.76251,-4.7625 4.7624993,4.7624993 0 0 0 -4.76251,-4.76251 4.7624993,4.7624993 0 0 0 -4.7625,4.76251 4.7624993,4.7624993 0 0 0 4.7625,4.7625 z m 0,-1.58751 a 3.1749997,3.1749997 0 0 1 -3.17499,-3.17499 3.1749997,3.1749997 0 0 1 3.17499,-3.175 3.1749997,3.1749997 0 0 1 3.175,3.175 3.1749997,3.1749997 0 0 1 -3.175,3.17499 z"
       inkscape:transform-center-y="-38.166086"
       inkscape:transform-center-x="-38.166086" /><path
       id="path288-7"
       style="display:inline;fill:#ffffff;fill-opacity:0.3;stroke:none;stroke-width:0;stroke-linecap:round;stroke-dasharray:none;stroke-opacity:1;paint-order:stroke fill markers"
       d="m 104.8411,495.36605 a 4.7624993,4.7624993 0 0 0 4.7625,4.76251 4.7624993,4.7624993 0 0 0 4.76251,-4.76251 4.7624993,4.7624993 0 0 0 -4.76251,-4.7625 4.7624993,4.7624993 0 0 0 -4.7625,4.7625 z m 1.58751,0 a 3.1749997,3.1749997 0 0 1 3.17499,-3.17499 3.1749997,3.1749997 0 0 1 3.175,3.17499 3.1749997,3.1749997 0 0 1 -3.175,3.175 3.1749997,3.1749997 0 0 1 -3.17499,-3.175 z"
       inkscape:transform-center-x="-38.166086"
       inkscape:transform-center-y="38.166086" /><path
       id="path289-6"
       style="display:inline;fill:#ffffff;fill-opacity:0.3;stroke:none;stroke-width:0;stroke-linecap:round;stroke-dasharray:none;stroke-opacity:1;paint-order:stroke fill markers"
       d="m 33.27144,490.60355 a 4.7624993,4.7624993 0 0 0 -4.76251,4.7625 4.7624993,4.7624993 0 0 0 4.76251,4.76251 4.7624993,4.7624993 0 0 0 4.7625,-4.76251 4.7624993,4.7624993 0 0 0 -4.7625,-4.7625 z m 0,1.58751 a 3.1749997,3.1749997 0 0 1 3.17499,3.17499 3.1749997,3.1749997 0 0 1 -3.17499,3.175 3.1749997,3.1749997 0 0 1 -3.175,-3.175 3.1749997,3.1749997 0 0 1 3.175,-3.17499 z"
       inkscape:transform-center-y="38.166086"
       inkscape:transform-center-x="38.166086" /><path
       id="path290-4"
       style="display:inline;fill:#ffffff;fill-opacity:0.3;stroke:none;stroke-width:0;stroke-linecap:round;stroke-dasharray:none;stroke-opacity:1;paint-order:stroke fill markers"
       d="m 38.03394,419.03389 a 4.7624993,4.7624993 0 0 0 -4.7625,-4.76251 4.7624993,4.7624993 0 0 0 -4.76251,4.76251 4.7624993,4.7624993 0 0 0 4.76251,4.7625 4.7624993,4.7624993 0 0 0 4.7625,-4.7625 z m -1.58751,0 a 3.1749997,3.1749997 0 0 1 -3.17499,3.17499 3.1749997,3.1749997 0 0 1 -3.175,-3.17499 3.1749997,3.1749997 0 0 1 3.175,-3.175 3.1749997,3.1749997 0 0 1 3.17499,3.175 z"
       inkscape:transform-center-x="38.166086"
       inkscape:transform-center-y="-38.166086" /><path
       id="path297-3"
       style="display:inline;fill:#ffffff;fill-opacity:0.3;stroke:none;stroke-width:1.27;stroke-linecap:round;paint-order:markers fill stroke"
       d="m 214.3125,392.11248 a 65.087502,65.087502 0 0 0 -65.0875,65.0875 65.087502,65.087502 0 0 0 65.0875,65.0875 65.087502,65.087502 0 0 0 65.0875,-65.0875 65.087502,65.087502 0 0 0 -65.0875,-65.0875 z m 0,1.5875 a 63.5,63.5 0 0 1 63.5,63.5 63.5,63.5 0 0 1 -63.5,63.5 63.5,63.5 0 0 1 -63.5,-63.5 63.5,63.5 0 0 1 63.5,-63.5 z" /><path
       id="path302-5"
       style="display:inline;fill:#ffffff;fill-opacity:0.3;stroke:none;stroke-width:0;stroke-linecap:round;stroke-dasharray:none;stroke-opacity:1;paint-order:stroke fill markers"
       d="m 252.4786,423.79639 a 4.7624993,4.7624993 0 0 0 4.76251,-4.7625 4.7624993,4.7624993 0 0 0 -4.76251,-4.76251 4.7624993,4.7624993 0 0 0 -4.7625,4.76251 4.7624993,4.7624993 0 0 0 4.7625,4.7625 z m 0,-1.58751 a 3.1749997,3.1749997 0 0 1 -3.17499,-3.17499 3.1749997,3.1749997 0 0 1 3.17499,-3.175 3.1749997,3.1749997 0 0 1 3.175,3.175 3.1749997,3.1749997 0 0 1 -3.175,3.17499 z"
       inkscape:transform-center-y="-38.166086"
       inkscape:transform-center-x="-38.166086" /><path
       id="path303-4"
       style="display:inline;fill:#ffffff;fill-opacity:0.3;stroke:none;stroke-width:0;stroke-linecap:round;stroke-dasharray:none;stroke-opacity:1;paint-order:stroke fill markers"
       d="m 247.7161,495.36605 a 4.7624993,4.7624993 0 0 0 4.7625,4.76251 4.7624993,4.7624993 0 0 0 4.76251,-4.76251 4.7624993,4.7624993 0 0 0 -4.76251,-4.7625 4.7624993,4.7624993 0 0 0 -4.7625,4.7625 z m 1.58751,0 a 3.1749997,3.1749997 0 0 1 3.17499,-3.17499 3.1749997,3.1749997 0 0 1 3.175,3.17499 3.1749997,3.1749997 0 0 1 -3.175,3.175 3.1749997,3.1749997 0 0 1 -3.17499,-3.175 z"
       inkscape:transform-center-x="-38.166086"
       inkscape:transform-center-y="38.166086" /><path
       id="path304-0"
       style="display:inline;fill:#ffffff;fill-opacity:0.3;stroke:none;stroke-width:0;stroke-linecap:round;stroke-dasharray:none;stroke-opacity:1;paint-order:stroke fill markers"
       d="m 176.14644,490.60355 a 4.7624993,4.7624993 0 0 0 -4.76251,4.7625 4.7624993,4.7624993 0 0 0 4.76251,4.76251 4.7624993,4.7624993 0 0 0 4.7625,-4.76251 4.7624993,4.7624993 0 0 0 -4.7625,-4.7625 z m 0,1.58751 a 3.1749997,3.1749997 0 0 1 3.17499,3.17499 3.1749997,3.1749997 0 0 1 -3.17499,3.175 3.1749997,3.1749997 0 0 1 -3.175,-3.175 3.1749997,3.1749997 0 0 1 3.175,-3.17499 z"
       inkscape:transform-center-y="38.166086"
       inkscape:transform-center-x="38.166086" /><path
       id="path305-5"
       style="display:inline;fill:#ffffff;fill-opacity:0.3;stroke:none;stroke-width:0;stroke-linecap:round;stroke-dasharray:none;stroke-opacity:1;paint-order:stroke fill markers"
       d="m 180.90894,419.03389 a 4.7624993,4.7624993 0 0 0 -4.7625,-4.76251 4.7624993,4.7624993 0 0 0 -4.76251,4.76251 4.7624993,4.7624993 0 0 0 4.76251,4.7625 4.7624993,4.7624993 0 0 0 4.7625,-4.7625 z m -1.58751,0 a 3.1749997,3.1749997 0 0 1 -3.17499,3.17499 3.1749997,3.1749997 0 0 1 -3.175,-3.17499 3.1749997,3.1749997 0 0 1 3.175,-3.175 3.1749997,3.1749997 0 0 1 3.17499,3.175 z"
       inkscape:transform-center-x="38.166086"
       inkscape:transform-center-y="-38.166086" /><g
       id="g38"><path
         d="m 102.92294,448.46873 v 17.46249 l 15.08123,-8.73123"
         id="path44"
         style="display:inline;fill:#ffffff;stroke-width:0.264583" /><path
         id="path45"
         style="display:inline;fill:#ffffff;fill-opacity:1;stroke:none;stroke-width:1.27;stroke-linecap:round;paint-order:markers fill stroke"
         d="m 130.17502,457.19997 a 22.225,22.225 0 0 0 -22.225,-22.225 22.225,22.225 0 0 0 -22.224998,22.225 22.225,22.225 0 0 0 22.224998,22.225 22.225,22.225 0 0 0 22.225,-22.225 z m -1.5875,0 a 20.637499,20.637499 0 0 1 -20.6375,20.6375 20.637499,20.637499 0 0 1 -20.637498,-20.6375 20.637499,20.637499 0 0 1 20.637498,-20.6375 20.637499,20.637499 0 0 1 20.6375,20.6375 z" /></g><g
       id="g39"><path
         id="path284-8"
         style="display:inline;fill:#ffffff;fill-opacity:1;stroke:none;stroke-width:1.27;stroke-linecap:round;paint-order:markers fill stroke"
         d="m 71.43752,471.48747 a 22.225,22.225 0 0 0 -22.225,22.225 22.225,22.225 0 0 0 22.225,22.225 22.225,22.225 0 0 0 22.225,-22.225 22.225,22.225 0 0 0 -22.225,-22.225 z m 0,1.5875 a 20.637499,20.637499 0 0 1 20.6375,20.6375 20.637499,20.637499 0 0 1 -20.6375,20.6375 20.637499,20.637499 0 0 1 -20.6375,-20.6375 20.637499,20.637499 0 0 1 20.6375,-20.6375 z" /><path
         d="M 80.16876,488.68539 H 62.70627 l 8.73123,15.08123"
         id="path44-3"
         style="display:inline;fill:#ffffff;stroke-width:0.264583" /></g><g
       id="g37"><path
         id="path286-9"
         style="display:inline;fill:#ffffff;fill-opacity:1;stroke:none;stroke-width:1.27;stroke-linecap:round;paint-order:markers fill stroke"
         d="m 34.92502,434.97497 a 22.225,22.225 0 0 0 -22.225,22.225 22.225,22.225 0 0 0 22.225,22.225 22.225,22.225 0 0 0 22.225,-22.225 22.225,22.225 0 0 0 -22.225,-22.225 z m 0,1.5875 a 20.637499,20.637499 0 0 1 20.6375,20.6375 20.637499,20.637499 0 0 1 -20.6375,20.6375 20.637499,20.637499 0 0 1 -20.6375,-20.6375 20.637499,20.637499 0 0 1 20.6375,-20.6375 z" /><path
         d="m 39.9521,448.46873 v 17.46249 l -15.08123,-8.73123"
         id="path44-1"
         style="display:inline;fill:#ffffff;stroke-width:0.264583" /></g><g
       id="g84"><path
         id="path300-9"
         style="display:inline;fill:#ffffff;fill-opacity:1;stroke:none;stroke-width:1.27;stroke-linecap:round;paint-order:markers fill stroke"
         d="m 250.82502,434.97497 a 22.225,22.225 0 0 0 -22.225,22.225 22.225,22.225 0 0 0 22.225,22.225 22.225,22.225 0 0 0 22.225,-22.225 22.225,22.225 0 0 0 -22.225,-22.225 z m 0,1.5875 a 20.637499,20.637499 0 0 1 20.6375,20.6375 20.637499,20.637499 0 0 1 -20.6375,20.6375 20.637499,20.637499 0 0 1 -20.6375,-20.6375 20.637499,20.637499 0 0 1 20.6375,-20.6375 z" /><text
         xml:space="preserve"
         style="font-weight:bold;font-size:19.05px;line-height:20px;font-family:Roboto;-inkscape-font-specification:'Roboto, Bold';font-variant-ligatures:none;text-align:center;letter-spacing:0px;word-spacing:0px;text-anchor:middle;fill:#ffffff;fill-opacity:1;stroke:none;stroke-width:3.175;stroke-dasharray:none;stroke-opacity:1;paint-order:markers fill stroke"
         x="250.82037"
         y="463.97165"
         id="text81"><tspan
           sodipodi:role="line"
           id="tspan81"
           style="fill:#ffffff;stroke-width:3.175"
           x="250.82037"
           y="463.97165">A</tspan></text></g><g
       id="g85"><path
         id="path299-0"
         style="display:inline;fill:#ffffff;fill-opacity:1;stroke:none;stroke-width:1.27;stroke-linecap:round;paint-order:markers fill stroke"
         d="m 214.31252,471.48747 a 22.225,22.225 0 0 0 -22.225,22.225 22.225,22.225 0 0 0 22.225,22.225 22.225,22.225 0 0 0 22.225,-22.225 22.225,22.225 0 0 0 -22.225,-22.225 z m 0,1.5875 a 20.637499,20.637499 0 0 1 20.6375,20.6375 20.637499,20.637499 0 0 1 -20.6375,20.6375 20.637499,20.637499 0 0 1 -20.6375,-20.6375 20.637499,20.637499 0 0 1 20.6375,-20.6375 z" /><text
         xml:space="preserve"
         style="font-weight:bold;font-size:19.05px;line-height:20px;font-family:Roboto;-inkscape-font-specification:'Roboto, Bold';font-variant-ligatures:none;text-align:center;letter-spacing:0px;word-spacing:0px;text-anchor:middle;fill:#ffffff;fill-opacity:1;stroke:none;stroke-width:3.175;stroke-dasharray:none;stroke-opacity:1;paint-order:markers fill stroke"
         x="214.14973"
         y="500.48416"
         id="text82"><tspan
           sodipodi:role="line"
           id="tspan82"
           style="fill:#ffffff;stroke-width:3.175"
           x="214.14973"
           y="500.48416">B</tspan></text></g><g
       id="g87"><path
         id="path298-3"
         style="display:inline;fill:#ffffff;fill-opacity:1;stroke:none;stroke-width:1.27;stroke-linecap:round;paint-order:markers fill stroke"
         d="m 214.3125,398.46248 a 22.225,22.225 0 0 0 -22.225,22.225 22.225,22.225 0 0 0 22.225,22.225 22.225,22.225 0 0 0 22.225,-22.225 22.225,22.225 0 0 0 -22.225,-22.225 z m 0,1.5875 a 20.637499,20.637499 0 0 1 20.6375,20.6375 20.637499,20.637499 0 0 1 -20.6375,20.6375 20.637499,20.637499 0 0 1 -20.6375,-20.6375 20.637499,20.637499 0 0 1 20.6375,-20.6375 z" /><text
         xml:space="preserve"
         style="font-weight:bold;font-size:19.05px;line-height:20px;font-family:Roboto;-inkscape-font-specification:'Roboto, Bold';font-variant-ligatures:none;text-align:center;letter-spacing:0px;word-spacing:0px;text-anchor:middle;fill:#ffffff;fill-opacity:1;stroke:none;stroke-width:3.175;stroke-dasharray:none;stroke-opacity:1;paint-order:markers fill stroke"
         x="214.30785"
         y="427.45917"
         id="text83"><tspan
           sodipodi:role="line"
           id="tspan83"
           style="fill:#ffffff;stroke-width:3.175"
           x="214.30785"
           y="427.45917">X</tspan></text></g><g
       id="g86"><path
         id="path301-2"
         style="display:inline;fill:#ffffff;fill-opacity:1;stroke:none;stroke-width:1.27;stroke-linecap:round;paint-order:markers fill stroke"
         d="m 177.80002,434.97497 a 22.225,22.225 0 0 0 -22.225,22.225 22.225,22.225 0 0 0 22.225,22.225 22.225,22.225 0 0 0 22.225,-22.225 22.225,22.225 0 0 0 -22.225,-22.225 z m 0,1.5875 a 20.637499,20.637499 0 0 1 20.6375,20.6375 20.637499,20.637499 0 0 1 -20.6375,20.6375 20.637499,20.637499 0 0 1 -20.6375,-20.6375 20.637499,20.637499 0 0 1 20.6375,-20.6375 z" /><text
         xml:space="preserve"
         style="font-weight:bold;font-size:19.05px;line-height:20px;font-family:Roboto;-inkscape-font-specification:'Roboto, Bold';font-variant-ligatures:none;text-align:center;letter-spacing:0px;word-spacing:0px;text-anchor:middle;fill:#ffffff;fill-opacity:1;stroke:none;stroke-width:3.175;stroke-dasharray:none;stroke-opacity:1;paint-order:markers fill stroke"
         x="177.80467"
         y="463.97165"
         id="text84"><tspan
           sodipodi:role="line"
           id="tspan84"
           style="fill:#ffffff;stroke-width:3.175"
           x="177.80467"
           y="463.97165">Y</tspan></text></g></g><g
     inkscape:groupmode="layer"
     id="layer3"
     inkscape:label="invisible"
     style="display:none;opacity:1"
     sodipodi:insensitive="true"><circle
       style="fill:#ff0000;fill-opacity:1;stroke:none;stroke-width:3.175;stroke-dasharray:none;stroke-opacity:1;paint-order:markers fill stroke"
       id="path77"
       cx="71.437523"
       cy="360.36249"
       r="19.049999"
       inkscape:transform-center-y="-96.837503" /><circle
       style="fill:#ff0000;fill-opacity:1;stroke:none;stroke-width:3.175;stroke-dasharray:none;stroke-opacity:1;paint-order:markers fill stroke"
       id="circle77"
       cx="-49.328716"
       cy="363.27316"
       r="19.049999"
       inkscape:transform-center-y="-93.53785"
       transform="rotate(-15)"
       inkscape:transform-center-x="25.063391" /><circle
       style="fill:#ff0000;fill-opacity:1;stroke:none;stroke-width:3.175;stroke-dasharray:none;stroke-opacity:1;paint-order:markers fill stroke"
       id="circle78"
       cx="-166.73329"
       cy="334.82806"
       r="19.049999"
       inkscape:transform-center-y="-83.863736"
       transform="rotate(-30)"
       inkscape:transform-center-x="48.418758" /><circle
       style="fill:#ff0000;fill-opacity:1;stroke:none;stroke-width:3.175;stroke-dasharray:none;stroke-opacity:1;paint-order:markers fill stroke"
       id="circle79"
       cx="214.31252"
       cy="360.36249"
       r="19.049999"
       inkscape:transform-center-y="-96.837503" /><circle
       style="fill:#ff0000;fill-opacity:1;stroke:none;stroke-width:3.175;stroke-dasharray:none;stroke-opacity:1;paint-order:markers fill stroke"
       id="circle80"
       cx="325.34207"
       cy="289.31561"
       r="19.049999"
       inkscape:transform-center-y="-93.537844"
       transform="rotate(15)"
       inkscape:transform-center-x="-25.063404" /><circle
       style="fill:#ff0000;fill-opacity:1;stroke:none;stroke-width:3.175;stroke-dasharray:none;stroke-opacity:1;paint-order:markers fill stroke"
       id="circle81"
       cx="414.2001"
       cy="191.95305"
       r="19.049999"
       inkscape:transform-center-y="-83.863722"
       transform="rotate(30)"
       inkscape:transform-center-x="-48.418774" /></g></svg>
